SplineFontDB: 3.2
FontName: metaball_font
FullName: metaball_font
FamilyName: Metaball
Weight: Regular
Copyright: none lol
Version: 0.0
ItalicAngle: 0
UnderlinePosition: 0
UnderlineWidth: 0
Ascent: 819
Descent: 205
InvalidEm: 0
LayerCount: 2
Layer: 0 0 "Back" 1
Layer: 1 0 "Fore" 0
HasVMetrics: 1
XUID: [1021 956 -1194666483 1371]
FSType: 0
OS2Version: 0
OS2_WeightWidthSlopeOnly: 0
OS2_UseTypoMetrics: 0
CreationTime: 1716317209
ModificationTime: 1716317430
PfmFamily: 17
TTFWeight: 400
TTFWidth: 5
LineGap: 92
VLineGap: 92
OS2TypoAscent: 900
OS2TypoAOffset: 0
OS2TypoDescent: 200
OS2TypoDOffset: 0
OS2TypoLinegap: 92
OS2WinAscent: 900
OS2WinAOffset: 0
OS2WinDescent: 200
OS2WinDOffset: 0
HheadAscent: 900
HheadAOffset: 0
HheadDescent: 200
HheadDOffset: 0
OS2Vendor: 'PfEd'
Lookup: 4 0 1 "'liga' Standard Ligatures lookup 0" { "'liga' Standard Ligatures lookup 0 subtable"  } ['liga' ('DFLT' <'dflt' > ) ]
Lookup: 4 0 1 "'liga' Standard Ligatures in Latin lookup 0" { "'liga' Standard Ligatures in Latin lookup 0 subtable"  } ['liga' ('latn' <'dflt' > ) ]
MarkAttachClasses: 1
DEI: 91125
Encoding: UnicodeBmp
UnicodeInterp: none
NameList: AGL For New Fonts
DisplaySize: -48
AntiAlias: 1
FitToEm: 0
WinInfo: 0 21 8
BeginPrivate: 0
EndPrivate
BeginChars: 65603 179

StartChar: .notdef
Encoding: 0 0 0
Width: 180
VWidth: 824
Flags: H
LayerCount: 2
Fore
SplineSet
67.5 700 m 0
 30.24609375 700 0 669.75390625 0 632.5 c 2
 0 67.5 l 2
 0 30.24609375 30.24609375 0 67.5 0 c 0
 104.75390625 0 135 30.24609375 135 67.5 c 2
 135 632.5 l 2
 135 669.75390625 104.75390625 700 67.5 700 c 0
EndSplineSet
EndChar

StartChar: exclamation
Encoding: 33 33 1
Width: 90
VWidth: 824
Flags: HW
LayerCount: 2
Fore
SplineSet
22.5 700 m 0
 10.08203125 700 0 689.91796875 0 677.5 c 2
 0 112.5 l 2
 0 100.08203125 10.08203125 90 22.5 90 c 0
 34.91796875 90 45 100.08203125 45 112.5 c 2
 45 677.5 l 2
 45 689.91796875 34.91796875 700 22.5 700 c 0
22.5 45 m 0
 10.08203125 45 0 34.91796875 0 22.5 c 0
 0 10.08203125 10.08203125 0 22.5 0 c 0
 34.91796875 0 45 10.08203125 45 22.5 c 0
 45 34.91796875 34.91796875 45 22.5 45 c 0
EndSplineSet
EndChar

StartChar: double_quote
Encoding: 34 34 2
Width: 180
VWidth: 824
Flags: H
LayerCount: 2
Fore
SplineSet
22.5 700 m 0
 10.08203125 700 0 689.91796875 0 677.5 c 2
 0 522.5 l 2
 0 510.08203125 10.08203125 500 22.5 500 c 0
 34.91796875 500 45 510.08203125 45 522.5 c 2
 45 677.5 l 2
 45 689.91796875 34.91796875 700 22.5 700 c 0
112.5 700 m 0
 100.08203125 700 90 689.91796875 90 677.5 c 1
 90 522.5 l 2
 90 510.08203125 100.08203125 500 112.5 500 c 0
 124.91796875 500 135 510.08203125 135 522.5 c 2
 135 677.5 l 2
 135 689.91796875 124.91796875 700 112.5 700 c 0
EndSplineSet
EndChar

StartChar: hastag
Encoding: 35 35 3
Width: 315
VWidth: 824
Flags: HW
LayerCount: 2
Fore
SplineSet
90 500 m 0
 77.58203125 500 67.5 489.91796875 67.5 477.5 c 2
 67.5 340 l 2
 67.5 327.58203125 57.41796875 317.5 45 317.5 c 2
 22.5 317.5 l 2
 10.08203125 317.5 0 307.41796875 0 295 c 0
 0 282.58203125 10.08203125 272.5 22.5 272.5 c 2
 45 272.5 l 2
 57.41796875 272.5 67.5 262.41796875 67.5 250 c 0
 67.5 237.58203125 57.41796875 227.5 45 227.5 c 2
 22.5 227.5 l 2
 10.08203125 227.5 0 217.41796875 0 205 c 0
 0 192.58203125 10.08203125 182.5 22.5 182.5 c 2
 45 182.5 l 2
 57.41796875 182.5 67.5 172.41796875 67.5 160 c 2
 67.5 22.5 l 2
 67.5 10.08203125 77.58203125 0 90 0 c 0
 102.41796875 0 112.5 10.08203125 112.5 22.5 c 2
 112.5 160 l 2
 112.5 172.41796875 122.58203125 182.5 135 182.5 c 0
 147.41796875 182.5 157.5 172.41796875 157.5 160 c 2
 157.5 22.5 l 2
 157.5 10.08203125 167.58203125 0 180 0 c 0
 192.41796875 0 202.5 10.08203125 202.5 22.5 c 2
 202.5 160 l 2
 202.5 172.41796875 212.58203125 182.5 225 182.5 c 2
 247.5 182.5 l 2
 259.91796875 182.5 270 192.58203125 270 205 c 0
 270 217.41796875 259.91796875 227.5 247.5 227.5 c 2
 225 227.5 l 2
 212.58203125 227.5 202.5 237.58203125 202.5 250 c 0
 202.5 262.41796875 212.58203125 272.5 225 272.5 c 2
 247.5 272.5 l 2
 259.91796875 272.5 270 282.58203125 270 295 c 0
 270 307.41796875 259.91796875 317.5 247.5 317.5 c 2
 225 317.5 l 2
 212.58203125 317.5 202.5 327.58203125 202.5 340 c 2
 202.5 477.5 l 2
 202.5 489.91796875 192.41796875 500 180 500 c 0
 167.58203125 500 157.5 489.91796875 157.5 477.5 c 2
 157.5 340 l 2
 157.5 327.58203125 147.41796875 317.5 135 317.5 c 0
 122.58203125 317.5 112.5 327.58203125 112.5 340 c 2
 112.5 477.5 l 2
 112.5 489.91796875 102.41796875 500 90 500 c 0
135 272.5 m 0
 147.41796875 272.5 157.5 262.41796875 157.5 250 c 0
 157.5 237.58203125 147.41796875 227.5 135 227.5 c 0
 122.58203125 227.5 112.5 237.58203125 112.5 250 c 0
 112.5 262.41796875 122.58203125 272.5 135 272.5 c 0
EndSplineSet
EndChar

StartChar: dollar
Encoding: 36 36 4
Width: 270
VWidth: 824
Flags: HW
LayerCount: 2
Fore
SplineSet
112.5 767.5 m 0
 100.08203125 767.5 90 757.41796875 90 745 c 2
 90 722.5 l 2
 90 710.08203125 79.91796875 700 67.5 700 c 0
 30.24609375 700 0 669.75390625 0 632.5 c 2
 0 500 l 2
 0 462.74609375 30.24609375 432.5 67.5 432.5 c 0
 79.91796875 432.5 90 422.41796875 90 410 c 2
 90 67.5 l 2
 90 55.08203125 79.91796875 45 67.5 45 c 0
 55.08203125 45 45 55.08203125 45 67.5 c 2
 45 112.5 l 2
 45 124.91796875 34.91796875 135 22.5 135 c 0
 10.08203125 135 0 124.91796875 0 112.5 c 2
 0 67.5 l 2
 0 30.24609375 30.24609375 0 67.5 0 c 0
 79.91796875 0 90 -10.08203125 90 -22.5 c 2
 90 -45 l 2
 90 -57.41796875 100.08203125 -67.5 112.5 -67.5 c 0
 124.91796875 -67.5 135 -57.41796875 135 -45 c 2
 135 -22.5 l 2
 135 -10.08203125 145.08203125 0 157.5 0 c 0
 194.75390625 0 225 30.24609375 225 67.5 c 2
 225 410 l 2
 225 447.25390625 194.75390625 477.5 157.5 477.5 c 0
 145.08203125 477.5 135 487.58203125 135 500 c 2
 135 632.5 l 2
 135 644.91796875 145.08203125 655 157.5 655 c 0
 169.91796875 655 180 644.91796875 180 632.5 c 2
 180 587.5 l 2
 180 575.08203125 190.08203125 565 202.5 565 c 0
 214.91796875 565 225 575.08203125 225 587.5 c 2
 225 632.5 l 2
 225 669.75390625 194.75390625 700 157.5 700 c 0
 145.08203125 700 135 710.08203125 135 722.5 c 2
 135 745 l 2
 135 757.41796875 124.91796875 767.5 112.5 767.5 c 0
67.5 655 m 0
 79.91796875 655 90 644.91796875 90 632.5 c 2
 90 500 l 2
 90 487.58203125 79.91796875 477.5 67.5 477.5 c 0
 55.08203125 477.5 45 487.58203125 45 500 c 2
 45 632.5 l 2
 45 644.91796875 55.08203125 655 67.5 655 c 0
157.5 432.5 m 0
 169.91796875 432.5 180 422.41796875 180 410 c 2
 180 67.5 l 2
 180 55.08203125 169.91796875 45 157.5 45 c 0
 145.08203125 45 135 55.08203125 135 67.5 c 2
 135 410 l 2
 135 422.41796875 145.08203125 432.5 157.5 432.5 c 0
EndSplineSet
EndChar

StartChar: percent
Encoding: 37 37 5
Width: 180
VWidth: 824
Flags: H
LayerCount: 2
Fore
SplineSet
22.5 700 m 0
 10.08203125 700 0 689.91796875 0 677.5 c 0
 0 665.08203125 10.08203125 655 22.5 655 c 0
 34.91796875 655 45 665.08203125 45 677.5 c 0
 45 689.91796875 34.91796875 700 22.5 700 c 0
112.5 700 m 0
 100.08203125 700 90 689.91796875 90 677.5 c 2
 90 500 l 2
 90 487.58203125 79.91796875 477.5 67.5 477.5 c 0
 30.24609375 477.5 0 447.25390625 0 410 c 2
 0 22.5 l 2
 0 10.08203125 10.08203125 0 22.5 0 c 0
 34.91796875 0 45 10.08203125 45 22.5 c 2
 45 410 l 2
 45 422.41796875 55.08203125 432.5 67.5 432.5 c 0
 104.75390625 432.5 135 462.74609375 135 500 c 2
 135 677.5 l 2
 135 689.91796875 124.91796875 700 112.5 700 c 0
112.5 45 m 0
 100.08203125 45 90 34.91796875 90 22.5 c 0
 90 10.08203125 100.08203125 0 112.5 0 c 0
 124.91796875 0 135 10.08203125 135 22.5 c 0
 135 34.91796875 124.91796875 45 112.5 45 c 0
EndSplineSet
EndChar

StartChar: ampersand
Encoding: 38 38 6
Width: 279
VWidth: 824
Flags: HW
LayerCount: 2
Fore
SplineSet
157.5 700 m 0
 120.24609375 700 90 669.75390625 90 632.5 c 1
 90 500 l 2
 90 487.58203125 79.91796875 477.5 67.5 477.5 c 0
 30.24609375 477.5 0 447.25390625 0 410 c 2
 0 67.5 l 2
 0 30.24609375 30.24609375 0 67.5 0 c 0
 79.91796875 0 90 -10.08203125 90 -22.5 c 1
 90 -45 l 2
 90 -57.41796875 100.08203125 -67.5 112.5 -67.5 c 0
 124.91796875 -67.5 135 -57.41796875 135 -45 c 2
 135 -22.5 l 2
 135 -10.08203125 145.08203125 0 157.5 0 c 0
 194.75390625 0 225 30.24609375 225 67.5 c 2
 225 112.5 l 2
 225 124.91796875 214.91796875 135 202.5 135 c 0
 190.08203125 135 180 124.91796875 180 112.5 c 2
 180 67.5 l 2
 180 55.08203125 169.91796875 45 157.5 45 c 0
 145.08203125 45 135 55.08203125 135 67.5 c 2
 135 410 l 2
 135 422.41796875 145.08203125 432.5 157.5 432.5 c 0
 194.75390625 432.5 225 462.74609375 225 500 c 2
 225 632.5 l 2
 225 669.75390625 194.75390625 700 157.5 700 c 0
157.5 655 m 0
 169.91796875 655 180 644.91796875 180 632.5 c 2
 180 500 l 2
 180 487.58203125 169.91796875 477.5 157.5 477.5 c 0
 145.08203125 477.5 135 487.58203125 135 500 c 2
 135 632.5 l 2
 135 644.91796875 145.08203125 655 157.5 655 c 0
67.5 432.5 m 0
 79.91796875 432.5 90 422.41796875 90 410 c 1
 90 67.5 l 2
 90 55.08203125 79.91796875 45 67.5 45 c 0
 55.08203125 45 45 55.08203125 45 67.5 c 2
 45 410 l 2
 45 422.41796875 55.08203125 432.5 67.5 432.5 c 0
EndSplineSet
EndChar

StartChar: single_quote
Encoding: 39 39 7
Width: 90
VWidth: 824
Flags: HW
LayerCount: 2
Fore
SplineSet
22.5 700 m 0
 10.08203125 700 0 689.91796875 0 677.5 c 2
 0 522.5 l 2
 0 510.08203125 10.08203125 500 22.5 500 c 0
 34.91796875 500 45 510.08203125 45 522.5 c 2
 45 677.5 l 2
 45 689.91796875 34.91796875 700 22.5 700 c 0
EndSplineSet
EndChar

StartChar: parentheses_open
Encoding: 40 40 8
Width: 180
VWidth: 824
Flags: HW
LayerCount: 2
Fore
SplineSet
67.5 834.9375 m 0
 30.24609375 834.9375 0 804.69140625 0 767.4375 c 2
 0 -67.5625 l 2
 0 -104.81640625 30.24609375 -135.0625 67.5 -135.0625 c 0
 104.75390625 -135.0625 135 -104.81640625 135 -67.5625 c 1
 134.998046875 -67.5625 l 1
 134.999023438 -67.5517578125 134.999023438 -67.5419921875 135 -67.53125 c 0
 135 -55.11328125 124.91796875 -45.03125 112.5 -45.03125 c 0
 100.08203125 -45.03125 90 -55.11328125 90 -67.53125 c 0
 90.0009765625 -67.5419921875 90.0009765625 -67.5517578125 90.001953125 -67.5625 c 0
 90 -67.5625 l 1
 90 -79.98046875 79.91796875 -90.0625 67.5 -90.0625 c 0
 55.08203125 -90.0625 45 -79.98046875 45 -67.5625 c 2
 45 767.4375 l 2
 45 779.85546875 55.08203125 789.9375 67.5 789.9375 c 0
 79.91796875 789.9375 90 779.85546875 90 767.4375 c 1
 90.001953125 767.4375 l 1
 90.01953125 755.03515625 100.09375 744.969726562 112.5 744.96875 c 0
 124.90625 744.969726562 134.98046875 755.03515625 134.998046875 767.4375 c 1
 134.998046875 767.436523438 135 767.4375 135 767.4375 c 1
 134.999023438 767.442382812 134.999023438 767.448242188 134.998046875 767.453125 c 0
 134.999023438 767.458007812 134.999023438 767.463867188 135 767.46875 c 0
 134.998046875 768.448242188 134.934570312 769.391601562 134.810546875 770.337890625 c 0
 133.268554688 806.185546875 103.708984375 834.869140625 67.5 834.9375 c 0
EndSplineSet
EndChar

StartChar: parentheses_close
Encoding: 41 41 9
Width: 180
VWidth: 824
Flags: HW
LayerCount: 2
Fore
SplineSet
67.5 834.96875 m 0
 30.388671875 834.955078125 0.2373046875 804.920898438 0.025390625 767.85546875 c 0
 0.015625 767.736328125 0.0078125 767.619140625 0 767.5 c 0
 0.0009765625 767.495117188 0.0009765625 767.489257812 0.001953125 767.484375 c 0
 0.0009765625 767.479492188 0.0009765625 767.473632812 0 767.46875 c 1
 0.001953125 767.46875 l 1
 0.01953125 755.06640625 10.09375 745.000976562 22.5 745 c 0
 34.90625 745.000976562 44.98046875 755.06640625 44.998046875 767.46875 c 1
 44.998046875 767.467773438 45 767.46875 45 767.46875 c 1
 45 779.88671875 55.08203125 789.96875 67.5 789.96875 c 0
 79.91796875 789.96875 90 779.88671875 90 767.46875 c 2
 90 -67.53125 l 2
 90 -79.94921875 79.91796875 -90.03125 67.5 -90.03125 c 0
 55.08203125 -90.03125 45 -79.94921875 45 -67.53125 c 1
 44.998046875 -67.53125 l 1
 44.9990234375 -67.5205078125 44.9990234375 -67.5107421875 45 -67.5 c 0
 45 -55.08203125 34.91796875 -45 22.5 -45 c 0
 10.08203125 -45 0 -55.08203125 0 -67.5 c 0
 0.0009765625 -67.5107421875 0.0009765625 -67.5205078125 0.001953125 -67.53125 c 0
 0 -67.53125 l 1
 0 -104.78515625 30.24609375 -135.03125 67.5 -135.03125 c 0
 104.75390625 -135.03125 135 -104.78515625 135 -67.53125 c 2
 135 767.46875 l 2
 135 804.72265625 104.75390625 834.96875 67.5 834.96875 c 0
EndSplineSet
EndChar

StartChar: star
Encoding: 42 42 10
Width: 225
VWidth: 824
Flags: HW
LayerCount: 2
Fore
SplineSet
90 700 m 0
 77.58203125 700 67.5 689.91796875 67.5 677.5 c 1
 67.5 645 l 2
 67.5 632.58203125 57.41796875 622.5 45 622.5 c 2
 22.5 622.5 l 2
 10.08203125 622.5 0 612.41796875 0 600 c 0
 0 587.58203125 10.08203125 577.5 22.5 577.5 c 2
 45 577.5 l 2
 57.41796875 577.5 67.5 567.41796875 67.5 555 c 2
 67.5 522.5 l 2
 67.5 510.08203125 77.58203125 500 90 500 c 0
 102.41796875 500 112.5 510.08203125 112.5 522.5 c 1
 112.5 555 l 2
 112.5 567.41796875 122.58203125 577.5 135 577.5 c 2
 157.5 577.5 l 2
 169.91796875 577.5 180 587.58203125 180 600 c 0
 180 612.41796875 169.91796875 622.5 157.5 622.5 c 2
 135 622.5 l 2
 122.58203125 622.5 112.5 632.58203125 112.5 645 c 2
 112.5 677.5 l 2
 112.5 689.91796875 102.41796875 700 90 700 c 0
EndSplineSet
EndChar

StartChar: plus
Encoding: 43 43 11
Width: 225
VWidth: 824
Flags: HW
LayerCount: 2
Fore
SplineSet
90 340 m 0
 77.58203125 340 67.5 329.91796875 67.5 317.5 c 1
 67.5 295 l 2
 67.5 282.58203125 57.41796875 272.5 45 272.5 c 2
 22.5 272.5 l 2
 10.08203125 272.5 0 262.41796875 0 250 c 0
 0 237.58203125 10.08203125 227.5 22.5 227.5 c 2
 45 227.5 l 2
 57.41796875 227.5 67.5 217.41796875 67.5 205 c 2
 67.5 182.5 l 2
 67.5 170.08203125 77.58203125 160 90 160 c 0
 102.41796875 160 112.5 170.08203125 112.5 182.5 c 1
 112.5 205 l 2
 112.5 217.41796875 122.58203125 227.5 135 227.5 c 2
 157.5 227.5 l 2
 169.91796875 227.5 180 237.58203125 180 250 c 0
 180 262.41796875 169.91796875 272.5 157.5 272.5 c 2
 135 272.5 l 2
 122.58203125 272.5 112.5 282.58203125 112.5 295 c 2
 112.5 317.5 l 2
 112.5 329.91796875 102.41796875 340 90 340 c 0
EndSplineSet
EndChar

StartChar: comma
Encoding: 44 44 12
Width: 90
VWidth: 824
Flags: HW
LayerCount: 2
Fore
SplineSet
22.5 100 m 0
 10.08203125 100 0 89.91796875 0 77.5 c 2
 0 -77.5 l 2
 0 -89.91796875 10.08203125 -100 22.5 -100 c 0
 34.91796875 -100 45 -89.91796875 45 -77.5 c 2
 45 77.5 l 2
 45 89.91796875 34.91796875 100 22.5 100 c 0
EndSplineSet
EndChar

StartChar: minus
Encoding: 45 45 13
Width: 225
VWidth: 824
Flags: HW
LayerCount: 2
Fore
SplineSet
22.5 272.5 m 2
 10.08203125 272.5 0 262.41796875 0 250 c 0
 0 237.58203125 10.08203125 227.5 22.5 227.5 c 2
 154 227.5 l 1
 154 227.79296875 l 1
 155.146484375 227.606445312 156.302734375 227.506835938 157.5 227.5 c 0
 169.91796875 227.5 180 237.58203125 180 250 c 0
 180 262.41796875 169.91796875 272.5 157.5 272.5 c 0
 156.302734375 272.493164062 155.146484375 272.392578125 154 272.205078125 c 0
 153.981445312 272.204101562 154 272.5 154 272.5 c 1
 22.5 272.5 l 2
EndSplineSet
EndChar

StartChar: dot
Encoding: 46 46 14
Width: 90
VWidth: 824
Flags: HW
LayerCount: 2
Fore
SplineSet
22.5 45 m 0
 10.08203125 45 0 34.91796875 0 22.5 c 0
 0 10.08203125 10.08203125 0 22.5 0 c 0
 34.91796875 0 45 10.08203125 45 22.5 c 0
 45 34.91796875 34.91796875 45 22.5 45 c 0
EndSplineSet
EndChar

StartChar: slash
Encoding: 47 47 15
Width: 180
VWidth: 824
Flags: H
LayerCount: 2
Fore
SplineSet
112.5 700 m 0
 100.08203125 700 90 689.91796875 90 677.5 c 2
 90 500 l 2
 90 487.58203125 79.91796875 477.5 67.5 477.5 c 0
 30.24609375 477.5 0 447.25390625 0 410 c 2
 0 22.5 l 2
 0 10.08203125 10.08203125 0 22.5 0 c 0
 34.91796875 0 45 10.08203125 45 22.5 c 2
 45 410 l 2
 45 422.41796875 55.08203125 432.5 67.5 432.5 c 0
 104.75390625 432.5 135 462.74609375 135 500 c 2
 135 677.5 l 2
 135 689.91796875 124.91796875 700 112.5 700 c 0
EndSplineSet
EndChar

StartChar: zero
Encoding: 48 48 16
Width: 180
VWidth: 824
Flags: H
LayerCount: 2
Fore
SplineSet
67.5 700 m 0
 30.24609375 700 0 669.75390625 0 632.5 c 2
 0 67.5 l 2
 0 30.24609375 30.24609375 0 67.5 0 c 0
 104.75390625 0 135 30.24609375 135 67.5 c 2
 135 632.5 l 2
 135 669.75390625 104.75390625 700 67.5 700 c 0
67.5 655 m 0
 79.91796875 655 90 644.91796875 90 632.5 c 2
 90 67.5 l 2
 90 55.08203125 79.91796875 45 67.5 45 c 0
 55.08203125 45 45 55.08203125 45 67.5 c 2
 45 632.5 l 2
 45 644.91796875 55.08203125 655 67.5 655 c 0
EndSplineSet
EndChar

StartChar: one
Encoding: 49 49 17
Width: 90
VWidth: 824
Flags: HW
LayerCount: 2
Fore
SplineSet
22.5 700 m 0
 10.08203125 700 0 689.91796875 0 677.5 c 1
 0 22.5 l 2
 0 10.08203125 10.08203125 0 22.5 0 c 0
 34.91796875 0 45 10.08203125 45 22.5 c 2
 45 677.5 l 2
 45 689.91796875 34.91796875 700 22.5 700 c 0
EndSplineSet
EndChar

StartChar: two
Encoding: 50 50 18
Width: 180
VWidth: 824
Flags: H
LayerCount: 2
Fore
SplineSet
22.5 700 m 2
 10.08203125 700 0 689.91796875 0 677.5 c 0
 0 665.08203125 10.08203125 655 22.5 655 c 2
 67.5 655 l 2
 79.91796875 655 90 644.91796875 90 632.5 c 2
 90 500 l 2
 90 487.58203125 79.91796875 477.5 67.5 477.5 c 0
 30.24609375 477.5 0 447.25390625 0 410 c 2
 0 67.5 l 2
 0 30.24609375 30.24609375 0 67.5 0 c 2
 112.5 0 l 2
 124.91796875 0 135 10.08203125 135 22.5 c 0
 135 34.91796875 124.91796875 45 112.5 45 c 2
 67.5 45 l 2
 55.08203125 45 45 55.08203125 45 67.5 c 2
 45 410 l 2
 45 422.41796875 55.08203125 432.5 67.5 432.5 c 0
 104.75390625 432.5 135 462.74609375 135 500 c 2
 135 632.5 l 2
 135 669.75390625 104.75390625 700 67.5 700 c 2
 22.5 700 l 2
EndSplineSet
EndChar

StartChar: three
Encoding: 51 51 19
Width: 180
VWidth: 824
Flags: H
LayerCount: 2
Fore
SplineSet
22.5 700 m 2
 10.08203125 700 0 689.91796875 0 677.5 c 0
 0 665.08203125 10.08203125 655 22.5 655 c 2
 67.5 655 l 2
 79.91796875 655 90 644.91796875 90 632.5 c 2
 90 500 l 2
 90 487.58203125 79.91796875 477.5 67.5 477.5 c 2
 22.5 477.5 l 2
 10.08203125 477.5 0 467.41796875 0 455 c 0
 0 442.58203125 10.08203125 432.5 22.5 432.5 c 2
 67.5 432.5 l 2
 79.91796875 432.5 90 422.41796875 90 410 c 2
 90 67.5 l 2
 90 55.08203125 79.91796875 45 67.5 45 c 2
 22.5 45 l 2
 10.08203125 45 0 34.91796875 0 22.5 c 0
 0 10.08203125 10.08203125 0 22.5 0 c 2
 67.5 0 l 2
 104.75390625 0 135 30.24609375 135 67.5 c 2
 135 632.5 l 2
 135 669.75390625 104.75390625 700 67.5 700 c 2
 22.5 700 l 2
EndSplineSet
EndChar

StartChar: four
Encoding: 52 52 20
Width: 180
VWidth: 824
Flags: H
LayerCount: 2
Fore
SplineSet
22.5 700 m 0
 10.08203125 700 0 689.91796875 0 677.5 c 2
 0 500 l 2
 0 462.74609375 30.24609375 432.5 67.5 432.5 c 0
 79.91796875 432.5 90 422.41796875 90 410 c 2
 90 22.5 l 2
 90 10.08203125 100.08203125 0 112.5 0 c 0
 124.91796875 0 135 10.08203125 135 22.5 c 2
 135 677.5 l 2
 135 689.91796875 124.91796875 700 112.5 700 c 0
 100.08203125 700 90 689.91796875 90 677.5 c 2
 90 500 l 2
 90 487.58203125 79.91796875 477.5 67.5 477.5 c 0
 55.08203125 477.5 45 487.58203125 45 500 c 2
 45 677.5 l 2
 45 689.91796875 34.91796875 700 22.5 700 c 0
EndSplineSet
EndChar

StartChar: five
Encoding: 53 53 21
Width: 180
VWidth: 824
Flags: H
LayerCount: 2
Fore
SplineSet
67.5 700 m 2
 30.24609375 700 0 669.75390625 0 632.5 c 2
 0 500 l 2
 0 462.74609375 30.24609375 432.5 67.5 432.5 c 0
 79.91796875 432.5 90 422.41796875 90 410 c 2
 90 67.5 l 2
 90 55.08203125 79.91796875 45 67.5 45 c 0
 55.08203125 45 45 55.08203125 45 67.5 c 2
 45 112.5 l 2
 45 124.91796875 34.91796875 135 22.5 135 c 0
 10.08203125 135 0 124.91796875 0 112.5 c 2
 0 67.5 l 2
 0 30.24609375 30.24609375 0 67.5 0 c 0
 104.75390625 0 135 30.24609375 135 67.5 c 2
 135 410 l 2
 135 447.25390625 104.75390625 477.5 67.5 477.5 c 0
 55.08203125 477.5 45 487.58203125 45 500 c 2
 45 632.5 l 2
 45 644.91796875 55.08203125 655 67.5 655 c 2
 112.5 655 l 2
 124.91796875 655 135 665.08203125 135 677.5 c 0
 135 689.91796875 124.91796875 700 112.5 700 c 2
 67.5 700 l 2
EndSplineSet
EndChar

StartChar: six
Encoding: 54 54 22
Width: 180
VWidth: 824
Flags: H
LayerCount: 2
Fore
SplineSet
67.5 700 m 0
 30.24609375 700 0 669.75390625 0 632.5 c 2
 0 67.5 l 2
 0 30.24609375 30.24609375 0 67.5 0 c 0
 104.75390625 0 135 30.24609375 135 67.5 c 2
 135 410 l 2
 135 447.25390625 104.75390625 477.5 67.5 477.5 c 0
 55.08203125 477.5 45 487.58203125 45 500 c 2
 45 632.5 l 2
 45 644.91796875 55.08203125 655 67.5 655 c 0
 79.91796875 655 90 644.91796875 90 632.5 c 2
 90 587.5 l 2
 90 575.08203125 100.08203125 565 112.5 565 c 0
 124.91796875 565 135 575.08203125 135 587.5 c 2
 135 632.5 l 2
 135 669.75390625 104.75390625 700 67.5 700 c 0
67.5 432.5 m 0
 79.91796875 432.5 90 422.41796875 90 410 c 2
 90 67.5 l 2
 90 55.08203125 79.91796875 45 67.5 45 c 0
 55.08203125 45 45 55.08203125 45 67.5 c 2
 45 410 l 2
 45 422.41796875 55.08203125 432.5 67.5 432.5 c 0
EndSplineSet
EndChar

StartChar: seven
Encoding: 55 55 23
Width: 180
VWidth: 824
Flags: H
LayerCount: 2
Fore
SplineSet
22.5 700 m 2
 10.08203125 700 0 689.91796875 0 677.5 c 0
 0 665.08203125 10.08203125 655 22.5 655 c 2
 67.5 655 l 2
 79.91796875 655 90 644.91796875 90 632.5 c 2
 90 22.5 l 2
 90 10.08203125 100.08203125 0 112.5 0 c 0
 124.91796875 0 135 10.08203125 135 22.5 c 2
 135 632.5 l 2
 135 669.75390625 104.75390625 700 67.5 700 c 2
 22.5 700 l 2
EndSplineSet
EndChar

StartChar: eight
Encoding: 56 56 24
Width: 180
VWidth: 824
Flags: H
LayerCount: 2
Fore
SplineSet
67.5 700 m 0
 30.24609375 700 0 669.75390625 0 632.5 c 2
 0 67.5 l 2
 0 30.24609375 30.24609375 0 67.5 0 c 0
 104.75390625 0 135 30.24609375 135 67.5 c 2
 135 632.5 l 2
 135 669.75390625 104.75390625 700 67.5 700 c 0
67.5 655 m 0
 79.91796875 655 90 644.91796875 90 632.5 c 2
 90 500 l 2
 90 487.58203125 79.91796875 477.5 67.5 477.5 c 0
 55.08203125 477.5 45 487.58203125 45 500 c 2
 45 632.5 l 2
 45 644.91796875 55.08203125 655 67.5 655 c 0
67.5 432.5 m 0
 79.91796875 432.5 90 422.41796875 90 410 c 2
 90 67.5 l 2
 90 55.08203125 79.91796875 45 67.5 45 c 0
 55.08203125 45 45 55.08203125 45 67.5 c 2
 45 410 l 2
 45 422.41796875 55.08203125 432.5 67.5 432.5 c 0
EndSplineSet
EndChar

StartChar: nine
Encoding: 57 57 25
Width: 180
VWidth: 824
Flags: H
LayerCount: 2
Fore
SplineSet
67.5 700 m 0
 30.24609375 700 0 669.75390625 0 632.5 c 2
 0 500 l 2
 0 462.74609375 30.24609375 432.5 67.5 432.5 c 0
 79.91796875 432.5 90 422.41796875 90 410 c 2
 90 67.5 l 2
 90 55.08203125 79.91796875 45 67.5 45 c 0
 55.08203125 45 45 55.08203125 45 67.5 c 2
 45 112.5 l 2
 45 124.91796875 34.91796875 135 22.5 135 c 0
 10.08203125 135 0 124.91796875 0 112.5 c 2
 0 67.5 l 2
 0 30.24609375 30.24609375 0 67.5 0 c 0
 104.75390625 0 135 30.24609375 135 67.5 c 2
 135 632.5 l 2
 135 669.75390625 104.75390625 700 67.5 700 c 0
67.5 655 m 0
 79.91796875 655 90 644.91796875 90 632.5 c 2
 90 500 l 2
 90 487.58203125 79.91796875 477.5 67.5 477.5 c 0
 55.08203125 477.5 45 487.58203125 45 500 c 2
 45 632.5 l 2
 45 644.91796875 55.08203125 655 67.5 655 c 0
EndSplineSet
EndChar

StartChar: colon
Encoding: 58 58 26
Width: 90
VWidth: 824
Flags: HW
LayerCount: 2
Fore
SplineSet
22.5 272.5 m 0
 10.08203125 272.5 0 262.41796875 0 250 c 0
 0 237.58203125 10.08203125 227.5 22.5 227.5 c 0
 34.91796875 227.5 45 237.58203125 45 250 c 0
 45 262.41796875 34.91796875 272.5 22.5 272.5 c 0
22.5 45 m 0
 10.08203125 45 0 34.91796875 0 22.5 c 0
 0 10.08203125 10.08203125 0 22.5 0 c 0
 34.91796875 0 45 10.08203125 45 22.5 c 0
 45 34.91796875 34.91796875 45 22.5 45 c 0
EndSplineSet
EndChar

StartChar: semicolon
Encoding: 59 59 27
Width: 90
VWidth: 824
Flags: HW
LayerCount: 2
Fore
SplineSet
22.5 272.500976562 m 0
 10.08203125 272.500976562 0 262.418945312 0 250.000976562 c 0
 0 237.583007812 10.08203125 227.500976562 22.5 227.500976562 c 0
 34.91796875 227.500976562 45 237.583007812 45 250.000976562 c 0
 45 262.418945312 34.91796875 272.500976562 22.5 272.500976562 c 0
22.5 99.9990234375 m 1
 10.0830078125 99.9990234375 0.0009765625 89.916015625 0 77.4990234375 c 1
 0 77.5009765625 0 -77.5009765625 0 -77.5009765625 c 2
 0 -89.9189453125 10.08203125 -100.000976562 22.5 -100.000976562 c 0
 34.91796875 -100.000976562 45 -89.9169921875 45 -77.4990234375 c 1
 45 -77.5009765625 45 77.5009765625 45 77.5009765625 c 2
 44.9990234375 89.91796875 34.9169921875 99.9990234375 22.5 99.9990234375 c 1
 22.5 99.9990234375 l 1
EndSplineSet
EndChar

StartChar: less_than
Encoding: 60 60 28
Width: 180
VWidth: 824
Flags: H
LayerCount: 2
Fore
SplineSet
67.5 317.5 m 2
 30.24609375 317.5 0 287.25390625 0 250 c 2
 0 160 l 2
 0 122.74609375 30.24609375 92.5 67.5 92.5 c 2
 112.5 92.5 l 2
 124.91796875 92.5 135 102.58203125 135 115 c 0
 135 127.41796875 124.91796875 137.5 112.5 137.5 c 2
 67.5 137.5 l 2
 55.08203125 137.5 45 147.58203125 45 160 c 2
 45 250 l 2
 45 262.41796875 55.08203125 272.5 67.5 272.5 c 2
 112.5 272.5 l 2
 124.91796875 272.5 135 282.58203125 135 295 c 0
 135 307.41796875 124.91796875 317.5 112.5 317.5 c 2
 67.5 317.5 l 2
EndSplineSet
EndChar

StartChar: equal
Encoding: 61 61 29
Width: 225
VWidth: 824
Flags: HW
LayerCount: 2
Fore
SplineSet
22.5 317.5 m 2
 10.08203125 317.5 0 307.41796875 0 295 c 0
 0 282.58203125 10.08203125 272.5 22.5 272.5 c 2
 155.625 272.5 l 1
 155.625 272.634765625 l 1
 156.247070312 272.563476562 156.864257812 272.51953125 157.5 272.5 c 0
 169.91796875 272.5 180 282.58203125 180 295 c 0
 180 307.41796875 169.91796875 317.5 157.5 317.5 c 0
 156.864257812 317.48046875 156.247070312 317.436523438 155.625 317.365234375 c 0
 155.61328125 317.364257812 155.625 317.5 155.625 317.5 c 1
 22.5 317.5 l 2
22.5 227.5 m 2
 10.08203125 227.5 0 217.41796875 0 205 c 0
 0 192.58203125 10.08203125 182.5 22.5 182.5 c 2
 157.5 182.5 l 2
 169.91796875 182.5 180 192.58203125 180 205 c 0
 180 217.41796875 169.91796875 227.5 157.5 227.5 c 2
 22.5 227.5 l 2
EndSplineSet
EndChar

StartChar: greater_than
Encoding: 62 62 30
Width: 180
VWidth: 824
Flags: H
LayerCount: 2
Fore
SplineSet
22.5 317.5 m 2
 10.08203125 317.5 0 307.41796875 0 295 c 0
 0 282.58203125 10.08203125 272.5 22.5 272.5 c 2
 67.5 272.5 l 2
 79.91796875 272.5 90 262.41796875 90 250 c 2
 90 160 l 2
 90 147.58203125 79.91796875 137.5 67.5 137.5 c 2
 22.5 137.5 l 2
 10.08203125 137.5 0 127.41796875 0 115 c 0
 0 102.58203125 10.08203125 92.5 22.5 92.5 c 2
 67.5 92.5 l 2
 104.75390625 92.5 135 122.74609375 135 160 c 2
 135 250 l 2
 135 287.25390625 104.75390625 317.5 67.5 317.5 c 2
 22.5 317.5 l 2
EndSplineSet
EndChar

StartChar: question
Encoding: 63 63 31
Width: 180
VWidth: 824
Flags: H
LayerCount: 2
Fore
SplineSet
67.5 700 m 0
 30.24609375 700 0 669.75390625 0 632.5 c 2
 0 587.5 l 2
 0 575.08203125 10.08203125 565 22.5 565 c 0
 34.91796875 565 45 575.08203125 45 587.5 c 2
 45 632.5 l 2
 45 644.91796875 55.08203125 655 67.5 655 c 0
 79.91796875 655 90 644.91796875 90 632.5 c 2
 90 500 l 2
 90 487.58203125 79.91796875 477.5 67.5 477.5 c 0
 30.24609375 477.5 0 447.25390625 0 410 c 2
 0 157.5 l 2
 0 120.24609375 30.24609375 90 67.5 90 c 0
 104.75390625 90 135 120.24609375 135 157.5 c 2
 135 202.5 l 2
 135 214.91796875 124.91796875 225 112.5 225 c 0
 100.08203125 225 90 214.91796875 90 202.5 c 2
 90 157.5 l 2
 90 145.08203125 79.91796875 135 67.5 135 c 0
 55.08203125 135 45 145.08203125 45 157.5 c 2
 45 410 l 2
 45 422.41796875 55.08203125 432.5 67.5 432.5 c 0
 104.75390625 432.5 135 462.74609375 135 500 c 2
 135 632.5 l 2
 135 669.75390625 104.75390625 700 67.5 700 c 0
67.5 45 m 0
 55.08203125 45 45 34.91796875 45 22.5 c 0
 45 10.08203125 55.08203125 0 67.5 0 c 0
 79.91796875 0 90 10.08203125 90 22.5 c 0
 90 34.91796875 79.91796875 45 67.5 45 c 0
EndSplineSet
EndChar

StartChar: at
Encoding: 64 64 32
Width: 405
VWidth: 824
Flags: HW
LayerCount: 2
Fore
SplineSet
67.5 500 m 2
 30.24609375 500 0 469.75390625 0 432.5 c 2
 0 67.5 l 2
 0 30.24609375 30.24609375 0 67.5 0 c 2
 292.5 0 l 2
 329.75390625 0 360 30.24609375 360 67.5 c 0
 360 79.91796875 349.91796875 90 337.5 90 c 0
 325.08203125 90 315 79.91796875 315 67.5 c 0
 315 55.08203125 304.91796875 45 292.5 45 c 2
 67.5 45 l 2
 55.08203125 45 45 55.08203125 45 67.5 c 2
 45 432.5 l 2
 45 444.91796875 55.08203125 455 67.5 455 c 2
 247.5 455 l 2
 259.91796875 455 270 444.91796875 270 432.5 c 2
 270 181.25 l 2
 270 168.83203125 259.91796875 158.75 247.5 158.75 c 0
 235.08203125 158.75 225 168.83203125 225 181.25 c 2
 225 318.75 l 2
 225 356.00390625 194.75390625 386.25 157.5 386.25 c 0
 120.24609375 386.25 90 356.00390625 90 318.75 c 2
 90 181.25 l 2
 90 143.99609375 120.24609375 113.75 157.5 113.75 c 2
 247.5 113.75 l 2
 284.75390625 113.75 315 143.99609375 315 181.25 c 2
 315 432.5 l 2
 315 469.75390625 284.75390625 500 247.5 500 c 2
 67.5 500 l 2
157.5 341.25 m 0
 169.91796875 341.25 180 331.16796875 180 318.75 c 2
 180 181.25 l 2
 180 168.83203125 169.91796875 158.75 157.5 158.75 c 0
 145.08203125 158.75 135 168.83203125 135 181.25 c 2
 135 318.75 l 2
 135 331.16796875 145.08203125 341.25 157.5 341.25 c 0
EndSplineSet
EndChar

StartChar: A
Encoding: 65 65 33
Width: 180
VWidth: 824
Flags: H
LayerCount: 2
Fore
SplineSet
67.5 700 m 0
 30.24609375 700 0 669.75390625 0 632.5 c 2
 0 22.5 l 2
 0 10.08203125 10.08203125 0 22.5 0 c 0
 34.91796875 0 45 10.08203125 45 22.5 c 2
 45 410 l 2
 45 422.41796875 55.08203125 432.5 67.5 432.5 c 0
 79.91796875 432.5 90 422.41796875 90 410 c 2
 90 22.5 l 2
 90 10.08203125 100.08203125 0 112.5 0 c 0
 124.91796875 0 135 10.08203125 135 22.5 c 2
 135 632.5 l 2
 135 669.75390625 104.75390625 700 67.5 700 c 0
67.5 655 m 0
 79.91796875 655 90 644.91796875 90 632.5 c 2
 90 500 l 2
 90 487.58203125 79.91796875 477.5 67.5 477.5 c 0
 55.08203125 477.5 45 487.58203125 45 500 c 2
 45 632.5 l 2
 45 644.91796875 55.08203125 655 67.5 655 c 0
EndSplineSet
EndChar

StartChar: B
Encoding: 66 66 34
Width: 180
VWidth: 824
Flags: H
LayerCount: 2
Fore
SplineSet
67.5 700 m 0
 30.24609375 700 0 669.75390625 0 632.5 c 2
 0 67.5 l 2
 0 30.24609375 30.24609375 0 67.5 0 c 0
 104.75390625 0 135 30.24609375 135 67.5 c 2
 135 632.5 l 2
 135 669.75390625 104.75390625 700 67.5 700 c 0
67.5 655 m 0
 79.91796875 655 90 644.91796875 90 632.5 c 2
 90 500 l 2
 90 487.58203125 79.91796875 477.5 67.5 477.5 c 0
 55.08203125 477.5 45 487.58203125 45 500 c 2
 45 632.5 l 2
 45 644.91796875 55.08203125 655 67.5 655 c 0
67.5 432.5 m 0
 79.91796875 432.5 90 422.41796875 90 410 c 2
 90 67.5 l 2
 90 55.08203125 79.91796875 45 67.5 45 c 0
 55.08203125 45 45 55.08203125 45 67.5 c 2
 45 410 l 2
 45 422.41796875 55.08203125 432.5 67.5 432.5 c 0
EndSplineSet
EndChar

StartChar: C
Encoding: 67 67 35
Width: 180
VWidth: 824
Flags: H
LayerCount: 2
Fore
SplineSet
67.5 700 m 0
 30.24609375 700 0 669.75390625 0 632.5 c 2
 0 67.5 l 2
 0 30.24609375 30.24609375 0 67.5 0 c 0
 104.75390625 0 135 30.24609375 135 67.5 c 2
 135 112.5 l 2
 135 124.91796875 124.91796875 135 112.5 135 c 0
 100.08203125 135 90 124.91796875 90 112.5 c 2
 90 67.5 l 2
 90 55.08203125 79.91796875 45 67.5 45 c 0
 55.08203125 45 45 55.08203125 45 67.5 c 2
 45 632.5 l 2
 45 644.91796875 55.08203125 655 67.5 655 c 0
 79.91796875 655 90 644.91796875 90 632.5 c 2
 90 587.5 l 2
 90 575.08203125 100.08203125 565 112.5 565 c 0
 124.91796875 565 135 575.08203125 135 587.5 c 2
 135 632.5 l 2
 135 669.75390625 104.75390625 700 67.5 700 c 0
EndSplineSet
EndChar

StartChar: D
Encoding: 68 68 36
Width: 180
VWidth: 824
Flags: H
LayerCount: 2
Fore
SplineSet
67.5 700 m 0
 30.24609375 700 0 669.75390625 0 632.5 c 2
 0 67.5 l 2
 0 30.24609375 30.24609375 0 67.5 0 c 0
 104.75390625 0 135 30.24609375 135 67.5 c 2
 135 632.5 l 2
 135 669.75390625 104.75390625 700 67.5 700 c 0
67.5 655 m 0
 79.91796875 655 90 644.91796875 90 632.5 c 2
 90 67.5 l 2
 90 55.08203125 79.91796875 45 67.5 45 c 0
 55.08203125 45 45 55.08203125 45 67.5 c 2
 45 632.5 l 2
 45 644.91796875 55.08203125 655 67.5 655 c 0
EndSplineSet
EndChar

StartChar: E
Encoding: 69 69 37
Width: 180
VWidth: 824
Flags: H
LayerCount: 2
Fore
SplineSet
67.5 700.001953125 m 1
 67.5 700 l 1
 30.24609375 700 0.0009765625 669.752929688 0 632.5 c 1
 -0 632.501953125 0 67.501953125 0 67.501953125 c 1
 45 67.501953125 l 1
 45 410 l 2
 45 422.41796875 55.08203125 432.5 67.5 432.5 c 1
 67.5 432.501953125 l 1
 90 432.501953125 l 2
 102.41796875 432.501953125 112.5 442.583984375 112.5 455.001953125 c 0
 112.5 467.419921875 102.41796875 477.501953125 90 477.501953125 c 1
 67.5 477.501953125 l 1
 67.5 477.5 l 1
 55.08203125 477.5 45 487.58203125 45 500 c 2
 45 632.5 l 1
 45 632.501953125 l 2
 45.0009765625 644.918945312 55.0830078125 655 67.5 655 c 1
 67.5 655.001953125 l 1
 112.5 655.001953125 l 2
 124.91796875 655.001953125 135 665.083984375 135 677.501953125 c 0
 135 689.919921875 124.91796875 700.001953125 112.5 700.001953125 c 2
 67.5 700.001953125 l 1
0 67.5 m 1
 0 30.24609375 30.24609375 0 67.5 0 c 0
 112.5 0 l 2
 124.91796875 0 135 10.08203125 135 22.5 c 0
 135 34.91796875 124.91796875 45 112.5 45 c 2
 67.5 45 l 2
 55.08203125 45 45 55.08203125 45 67.5 c 1
 0 67.5 l 1
EndSplineSet
EndChar

StartChar: F
Encoding: 70 70 38
Width: 180
VWidth: 824
Flags: H
LayerCount: 2
Fore
SplineSet
67.5 700 m 2
 30.24609375 700 0 669.75390625 0 632.5 c 2
 0 22.5 l 2
 0 10.08203125 10.08203125 0 22.5 0 c 0
 34.91796875 0 45 10.08203125 45 22.5 c 2
 45 410 l 2
 45 422.41796875 55.08203125 432.5 67.5 432.5 c 2
 112.5 432.5 l 2
 124.91796875 432.5 135 442.58203125 135 455 c 0
 135 467.41796875 124.91796875 477.5 112.5 477.5 c 2
 67.5 477.5 l 2
 55.08203125 477.5 45 487.58203125 45 500 c 2
 45 632.5 l 2
 45 644.91796875 55.08203125 655 67.5 655 c 2
 112.5 655 l 2
 124.91796875 655 135 665.08203125 135 677.5 c 0
 135 689.91796875 124.91796875 700 112.5 700 c 2
 67.5 700 l 2
EndSplineSet
EndChar

StartChar: G
Encoding: 71 71 39
Width: 180
VWidth: 824
Flags: H
LayerCount: 2
Fore
SplineSet
67.5 700 m 0
 30.24609375 700 0 669.75390625 0 632.5 c 2
 0 67.5 l 2
 0 30.24609375 30.24609375 0 67.5 0 c 0
 104.75390625 0 135 30.24609375 135 67.5 c 2
 135 410 l 2
 135 447.25390625 104.75390625 477.5 67.5 477.5 c 0
 55.08203125 477.5 45 487.58203125 45 500 c 2
 45 632.5 l 2
 45 644.91796875 55.08203125 655 67.5 655 c 0
 79.91796875 655 90 644.91796875 90 632.5 c 2
 90 587.5 l 2
 90 575.08203125 100.08203125 565 112.5 565 c 0
 124.91796875 565 135 575.08203125 135 587.5 c 2
 135 632.5 l 2
 135 669.75390625 104.75390625 700 67.5 700 c 0
67.5 432.5 m 0
 79.91796875 432.5 90 422.41796875 90 410 c 2
 90 67.5 l 2
 90 55.08203125 79.91796875 45 67.5 45 c 0
 55.08203125 45 45 55.08203125 45 67.5 c 2
 45 410 l 2
 45 422.41796875 55.08203125 432.5 67.5 432.5 c 0
EndSplineSet
EndChar

StartChar: H
Encoding: 72 72 40
Width: 180
VWidth: 824
Flags: H
LayerCount: 2
Fore
SplineSet
22.5 700 m 0
 10.08203125 700 0 689.91796875 0 677.5 c 2
 0 22.5 l 2
 0 10.08203125 10.08203125 0 22.5 0 c 0
 34.91796875 0 45 10.08203125 45 22.5 c 2
 45 410 l 2
 45 422.41796875 55.08203125 432.5 67.5 432.5 c 0
 79.91796875 432.5 90 422.41796875 90 410 c 2
 90 22.5 l 2
 90 10.08203125 100.08203125 0 112.5 0 c 0
 124.91796875 0 135 10.08203125 135 22.5 c 2
 135 677.5 l 2
 135 689.91796875 124.91796875 700 112.5 700 c 0
 100.08203125 700 90 689.91796875 90 677.5 c 2
 90 500 l 2
 90 487.58203125 79.91796875 477.5 67.5 477.5 c 0
 55.08203125 477.5 45 487.58203125 45 500 c 2
 45 677.5 l 2
 45 689.91796875 34.91796875 700 22.5 700 c 0
EndSplineSet
EndChar

StartChar: I
Encoding: 73 73 41
Width: 90
VWidth: 824
Flags: HW
LayerCount: 2
Fore
SplineSet
22.5 700 m 0
 10.08203125 700 0 689.91796875 0 677.5 c 2
 0 22.5 l 2
 0 10.08203125 10.08203125 0 22.5 0 c 0
 34.91796875 0 45 10.08203125 45 22.5 c 2
 45 677.5 l 2
 45 689.91796875 34.91796875 700 22.5 700 c 0
EndSplineSet
EndChar

StartChar: J
Encoding: 74 74 42
Width: 180
VWidth: 824
Flags: H
LayerCount: 2
Fore
SplineSet
112.5 700 m 0
 100.08203125 700 90 689.91796875 90 677.5 c 2
 90 67.5 l 2
 90 55.08203125 79.91796875 45 67.5 45 c 0
 55.08203125 45 45 55.08203125 45 67.5 c 2
 45 112.5 l 2
 45 124.91796875 34.91796875 135 22.5 135 c 0
 10.08203125 135 0 124.91796875 0 112.5 c 2
 0 67.5 l 2
 0 30.24609375 30.24609375 0 67.5 0 c 0
 104.75390625 0 135 30.24609375 135 67.5 c 2
 135 677.5 l 2
 135 689.91796875 124.91796875 700 112.5 700 c 0
EndSplineSet
EndChar

StartChar: K
Encoding: 75 75 43
Width: 180
VWidth: 824
Flags: H
LayerCount: 2
Fore
SplineSet
22.5 700 m 0
 10.08203125 700 0 689.91796875 0 677.5 c 2
 0 22.5 l 2
 0 10.08203125 10.08203125 0 22.5 0 c 0
 34.91796875 0 45 10.08203125 45 22.5 c 2
 45 320 l 2
 45 332.41796875 55.08203125 342.5 67.5 342.5 c 0
 79.91796875 342.5 90 332.41796875 90 320 c 2
 90 22.5 l 2
 90 10.08203125 100.08203125 0 112.5 0 c 0
 124.91796875 0 135 10.08203125 135 22.5 c 2
 135 320 l 2
 135 357.25390625 104.75390625 387.5 67.5 387.5 c 0
 55.08203125 387.5 45 397.58203125 45 410 c 0
 45 422.41796875 55.08203125 432.5 67.5 432.5 c 0
 104.75390625 432.5 135 462.74609375 135 500 c 2
 135 677.5 l 2
 135 689.91796875 124.91796875 700 112.5 700 c 0
 100.08203125 700 90 689.91796875 90 677.5 c 2
 90 500 l 2
 90 487.58203125 79.91796875 477.5 67.5 477.5 c 0
 55.08203125 477.5 45 487.58203125 45 500 c 2
 45 677.5 l 2
 45 689.91796875 34.91796875 700 22.5 700 c 0
EndSplineSet
EndChar

StartChar: L
Encoding: 76 76 44
Width: 180
VWidth: 824
Flags: H
LayerCount: 2
Fore
SplineSet
22.5 700 m 0
 10.08203125 700 0 689.91796875 0 677.5 c 2
 0 67.5 l 2
 0 30.24609375 30.24609375 0 67.5 0 c 2
 112.5 0 l 2
 124.91796875 0 135 10.08203125 135 22.5 c 0
 135 34.91796875 124.91796875 45 112.5 45 c 2
 67.5 45 l 2
 55.08203125 45 45 55.08203125 45 67.5 c 2
 45 677.5 l 2
 45 689.91796875 34.91796875 700 22.5 700 c 0
EndSplineSet
EndChar

StartChar: M
Encoding: 77 77 45
Width: 360
VWidth: 824
Flags: HW
LayerCount: 2
Fore
SplineSet
67.5 700 m 0
 30.24609375 700 0 669.75390625 0 632.5 c 2
 0 22.5 l 2
 0 10.08203125 10.08203125 0 22.5 0 c 0
 34.91796875 0 45 10.08203125 45 22.5 c 2
 45 632.5 l 2
 45 644.91796875 55.08203125 655 67.5 655 c 0
 79.91796875 655 90 644.91796875 90 632.5 c 2
 90 222.5 l 2
 90 185.24609375 120.24609375 155 157.5 155 c 0
 194.75390625 155 225 185.24609375 225 222.5 c 2
 225 632.5 l 2
 225 644.91796875 235.08203125 655 247.5 655 c 0
 259.91796875 655 270 644.91796875 270 632.5 c 2
 270 22.5 l 2
 270 10.08203125 280.08203125 0 292.5 0 c 0
 304.91796875 0 315 10.08203125 315 22.5 c 2
 315 632.5 l 2
 315 669.75390625 284.75390625 700 247.5 700 c 0
 210.24609375 700 180 669.75390625 180 632.5 c 2
 180 222.5 l 2
 180 210.08203125 169.91796875 200 157.5 200 c 0
 145.08203125 200 135 210.08203125 135 222.5 c 2
 135 632.5 l 2
 135 669.75390625 104.75390625 700 67.5 700 c 0
EndSplineSet
EndChar

StartChar: N
Encoding: 78 78 46
Width: 270
VWidth: 824
Flags: HW
LayerCount: 2
Fore
SplineSet
67.5 700 m 0
 30.24609375 700 0 669.75390625 0 632.5 c 1
 0 22.5 l 2
 0 10.08203125 10.08203125 0 22.5 0 c 0
 34.91796875 0 45 10.08203125 45 22.5 c 1
 45 632.5 l 2
 45 644.91796875 55.08203125 655 67.5 655 c 0
 79.91796875 655 90 644.91796875 90 632.5 c 2
 90 67.5 l 2
 90 30.24609375 120.24609375 0 157.5 0 c 0
 194.75390625 0 225 30.24609375 225 67.5 c 2
 225 677.5 l 2
 225 689.91796875 214.91796875 700 202.5 700 c 0
 190.08203125 700 180 689.91796875 180 677.5 c 2
 180 67.5 l 2
 180 55.08203125 169.91796875 45 157.5 45 c 0
 145.08203125 45 135 55.08203125 135 67.5 c 2
 135 632.5 l 2
 135 669.75390625 104.75390625 700 67.5 700 c 0
EndSplineSet
EndChar

StartChar: O
Encoding: 79 79 47
Width: 180
VWidth: 824
Flags: H
LayerCount: 2
Fore
SplineSet
67.5 700 m 0
 30.24609375 700 0 669.75390625 0 632.5 c 2
 0 67.5 l 2
 0 30.24609375 30.24609375 0 67.5 0 c 0
 104.75390625 0 135 30.24609375 135 67.5 c 2
 135 632.5 l 2
 135 669.75390625 104.75390625 700 67.5 700 c 0
67.5 655 m 0
 79.91796875 655 90 644.91796875 90 632.5 c 1
 90 67.5 l 2
 90 55.08203125 79.91796875 45 67.5 45 c 0
 55.08203125 45 45 55.08203125 45 67.5 c 2
 45 632.5 l 2
 45 644.91796875 55.08203125 655 67.5 655 c 0
EndSplineSet
EndChar

StartChar: P
Encoding: 80 80 48
Width: 180
VWidth: 824
Flags: H
LayerCount: 2
Fore
SplineSet
67.5 700 m 0
 30.24609375 700 0 669.75390625 0 632.5 c 2
 0 22.5 l 2
 0 10.08203125 10.08203125 0 22.5 0 c 0
 34.91796875 0 45 10.08203125 45 22.5 c 2
 45 410 l 2
 45 422.41796875 55.08203125 432.5 67.5 432.5 c 0
 104.75390625 432.5 135 462.74609375 135 500 c 2
 135 632.5 l 2
 135 669.75390625 104.75390625 700 67.5 700 c 0
67.5 655 m 0
 79.91796875 655 90 644.91796875 90 632.5 c 1
 90 500 l 2
 90 487.58203125 79.91796875 477.5 67.5 477.5 c 0
 55.08203125 477.5 45 487.58203125 45 500 c 2
 45 632.5 l 2
 45 644.91796875 55.08203125 655 67.5 655 c 0
EndSplineSet
EndChar

StartChar: Q
Encoding: 81 81 49
Width: 180
VWidth: 824
Flags: H
LayerCount: 2
Fore
SplineSet
67.5 700 m 0
 30.24609375 700 0 669.75390625 0 632.5 c 2
 0 67.5 l 2
 0 30.24609375 30.24609375 0 67.5 0 c 0
 104.75390625 0 135 30.24609375 135 67.5 c 2
 135 632.5 l 2
 135 669.75390625 104.75390625 700 67.5 700 c 0
67.5 655 m 0
 79.91796875 655 90 644.91796875 90 632.5 c 1
 90 67.5 l 2
 90 55.08203125 79.91796875 45 67.5 45 c 0
 55.08203125 45 45 55.08203125 45 67.5 c 2
 45 632.5 l 2
 45 644.91796875 55.08203125 655 67.5 655 c 0
112.5 0 m 0
 100.08203125 0 90 -10.08203125 90 -22.5 c 0
 90 -34.91796875 100.08203125 -45 112.5 -45 c 0
 124.91796875 -45 135 -34.91796875 135 -22.5 c 0
 135 -10.08203125 124.91796875 0 112.5 0 c 0
EndSplineSet
EndChar

StartChar: R
Encoding: 82 82 50
Width: 180
VWidth: 824
Flags: H
LayerCount: 2
Fore
SplineSet
67.5 699.998046875 m 0
 30.24609375 699.998046875 0.0009765625 669.750976562 0 632.498046875 c 1
 -0 632.5 0 22.5 0 22.5 c 2
 0 10.08203125 10.08203125 0 22.5 0 c 0
 34.91796875 0 45 10.08203125 45 22.5 c 2
 45 319.998046875 l 2
 45 332.416015625 55.08203125 342.498046875 67.5 342.498046875 c 0
 79.91796875 342.498046875 90 332.416015625 90 319.998046875 c 2
 90 22.5 l 2
 90 10.08203125 100.08203125 0 112.5 0 c 0
 124.91796875 0 135 10.08203125 135 22.5 c 2
 135 319.998046875 l 2
 135 357.251953125 104.75390625 387.498046875 67.5 387.498046875 c 0
 55.08203125 387.498046875 45 397.580078125 45 409.998046875 c 0
 45 422.416015625 55.08203125 432.498046875 67.5 432.498046875 c 0
 104.75390625 432.498046875 135 462.744140625 135 499.998046875 c 1
 90 499.998046875 l 1
 90 487.580078125 79.91796875 477.498046875 67.5 477.498046875 c 0
 55.08203125 477.498046875 45 487.580078125 45 499.998046875 c 1
 45 632.498046875 l 1
 45 632.5 l 2
 45.0009765625 644.916992188 55.0830078125 654.998046875 67.5 654.998046875 c 0
 79.91796875 654.998046875 90 644.916015625 90 632.498046875 c 2
 90 500 l 1
 135 500 l 1
 135 632.5 l 2
 134.999023438 669.752929688 104.75390625 699.998046875 67.5 699.998046875 c 0
EndSplineSet
EndChar

StartChar: S
Encoding: 83 83 51
Width: 180
VWidth: 824
Flags: H
LayerCount: 2
Fore
SplineSet
67.5 700 m 0
 30.24609375 700 0 669.75390625 0 632.5 c 1
 0 500 l 2
 0 462.74609375 30.24609375 432.5 67.5 432.5 c 0
 79.91796875 432.5 90 422.41796875 90 410 c 2
 90 67.5 l 2
 90 55.08203125 79.91796875 45 67.5 45 c 0
 55.08203125 45 45 55.08203125 45 67.5 c 2
 45 112.5 l 2
 45 124.91796875 34.91796875 135 22.5 135 c 0
 10.08203125 135 0 124.91796875 0 112.5 c 1
 0 67.5 l 2
 0 30.24609375 30.24609375 0 67.5 0 c 0
 104.75390625 0 135 30.24609375 135 67.5 c 1
 135 410 l 2
 135 447.25390625 104.75390625 477.5 67.5 477.5 c 0
 55.08203125 477.5 45 487.58203125 45 500 c 2
 45 632.5 l 2
 45 644.91796875 55.08203125 655 67.5 655 c 0
 79.91796875 655 90 644.91796875 90 632.5 c 2
 90 587.5 l 2
 90 575.08203125 100.08203125 565 112.5 565 c 0
 124.91796875 565 135 575.08203125 135 587.5 c 2
 135 632.5 l 2
 135 669.75390625 104.75390625 700 67.5 700 c 0
EndSplineSet
EndChar

StartChar: T
Encoding: 84 84 52
Width: 180
VWidth: 824
Flags: H
LayerCount: 2
Fore
SplineSet
22.5 700 m 2
 10.08203125 700 0 689.91796875 0 677.5 c 0
 0 665.08203125 10.08203125 655 22.5 655 c 0
 34.91796875 655 45 644.91796875 45 632.5 c 2
 45 22.5 l 2
 45 10.08203125 55.08203125 0 67.5 0 c 0
 79.91796875 0 90 10.08203125 90 22.5 c 2
 90 632.5 l 2
 90 644.91796875 100.08203125 655 112.5 655 c 0
 124.91796875 655 135 665.08203125 135 677.5 c 0
 135 689.91796875 124.91796875 700 112.5 700 c 2
 22.5 700 l 2
EndSplineSet
EndChar

StartChar: U
Encoding: 85 85 53
Width: 180
VWidth: 824
Flags: H
LayerCount: 2
Fore
SplineSet
22.5 700 m 0
 10.08203125 700 0 689.91796875 0 677.5 c 2
 0 67.5 l 2
 0 30.24609375 30.24609375 0 67.5 0 c 0
 104.75390625 0 135 30.24609375 135 67.5 c 2
 135 677.5 l 2
 135 689.91796875 124.91796875 700 112.5 700 c 0
 100.08203125 700 90 689.91796875 90 677.5 c 1
 90 67.5 l 2
 90 55.08203125 79.91796875 45 67.5 45 c 0
 55.08203125 45 45 55.08203125 45 67.5 c 2
 45 677.5 l 2
 45 689.91796875 34.91796875 700 22.5 700 c 0
EndSplineSet
EndChar

StartChar: V
Encoding: 86 86 54
Width: 180
VWidth: 824
Flags: H
LayerCount: 2
Fore
SplineSet
22.5 700 m 0
 10.08203125 700 0 689.91796875 0 677.5 c 2
 0 67.5 l 2
 0 30.24609375 30.24609375 0 67.5 0 c 0
 104.75390625 0 135 30.24609375 135 67.5 c 2
 135 677.5 l 2
 135 689.91796875 124.91796875 700 112.5 700 c 0
 100.08203125 700 90 689.91796875 90 677.5 c 1
 90 67.5 l 2
 90 55.08203125 79.91796875 45 67.5 45 c 0
 55.08203125 45 45 55.08203125 45 67.5 c 2
 45 677.5 l 2
 45 689.91796875 34.91796875 700 22.5 700 c 0
EndSplineSet
EndChar

StartChar: W
Encoding: 87 87 55
Width: 360
VWidth: 824
Flags: HW
LayerCount: 2
Fore
SplineSet
22.5 700 m 0
 10.08203125 700 0 689.91796875 0 677.5 c 2
 0 67.5 l 2
 0 30.24609375 30.24609375 0 67.5 0 c 0
 104.75390625 0 135 30.24609375 135 67.5 c 2
 135 477.5 l 2
 135 489.91796875 145.08203125 500 157.5 500 c 0
 169.91796875 500 180 489.91796875 180 477.5 c 2
 180 67.5 l 2
 180 30.24609375 210.24609375 0 247.5 0 c 0
 284.75390625 0 315 30.24609375 315 67.5 c 2
 315 677.5 l 2
 315 689.91796875 304.91796875 700 292.5 700 c 0
 280.08203125 700 270 689.91796875 270 677.5 c 2
 270 67.5 l 2
 270 55.08203125 259.91796875 45 247.5 45 c 0
 235.08203125 45 225 55.08203125 225 67.5 c 2
 225 477.5 l 2
 225 514.75390625 194.75390625 545 157.5 545 c 0
 120.24609375 545 90 514.75390625 90 477.5 c 2
 90 67.5 l 2
 90 55.08203125 79.91796875 45 67.5 45 c 0
 55.08203125 45 45 55.08203125 45 67.5 c 2
 45 677.5 l 2
 45 689.91796875 34.91796875 700 22.5 700 c 0
EndSplineSet
EndChar

StartChar: X
Encoding: 88 88 56
Width: 180
VWidth: 824
Flags: H
LayerCount: 2
Fore
SplineSet
22.5 700 m 0
 10.08203125 700 0 689.91796875 0 677.5 c 2
 0 500 l 2
 0 462.74609375 30.24609375 432.5 67.5 432.5 c 0
 104.75390625 432.5 135 462.74609375 135 500 c 2
 135 677.5 l 2
 135 689.91796875 124.91796875 700 112.5 700 c 0
 100.08203125 700 90 689.91796875 90 677.5 c 2
 90 500 l 2
 90 487.58203125 79.91796875 477.5 67.5 477.5 c 0
 55.08203125 477.5 45 487.58203125 45 500 c 2
 45 677.5 l 2
 45 689.91796875 34.91796875 700 22.5 700 c 0
67.5 387.5 m 0
 30.24609375 387.5 0 357.25390625 0 320 c 2
 0 22.5 l 2
 0 10.08203125 10.08203125 0 22.5 0 c 0
 34.91796875 0 45 10.08203125 45 22.5 c 2
 45 320 l 2
 45 332.41796875 55.08203125 342.5 67.5 342.5 c 0
 79.91796875 342.5 90 332.41796875 90 320 c 2
 90 22.5 l 2
 90 10.08203125 100.08203125 0 112.5 0 c 0
 124.91796875 0 135 10.08203125 135 22.5 c 2
 135 320 l 2
 135 357.25390625 104.75390625 387.5 67.5 387.5 c 0
EndSplineSet
EndChar

StartChar: Y
Encoding: 89 89 57
Width: 180
VWidth: 824
Flags: H
LayerCount: 2
Fore
SplineSet
22.5 700 m 0
 10.08203125 700 0 689.91796875 0 677.5 c 2
 0 22.5 l 2
 0 10.08203125 10.08203125 0 22.5 0 c 0
 34.91796875 0 45 10.08203125 45 22.5 c 2
 45 410.021484375 l 2
 45.01171875 422.428710938 55.087890625 432.499023438 67.498046875 432.5 c 0
 104.751953125 432.5 134.998046875 462.74609375 134.998046875 500 c 1
 135 500 l 1
 135 677.5 l 2
 135 689.91796875 124.91796875 700 112.5 700 c 0
 100.08203125 700 90 689.91796875 90 677.5 c 2
 90 500 l 1
 89.998046875 500 l 1
 89.998046875 487.58203125 79.916015625 477.5 67.498046875 477.5 c 0
 55.087890625 477.500976562 45.01171875 487.571289062 45 499.978515625 c 1
 45 677.5 l 2
 45 689.91796875 34.91796875 700 22.5 700 c 0
EndSplineSet
EndChar

StartChar: Z
Encoding: 90 90 58
Width: 180
VWidth: 824
Flags: H
LayerCount: 2
Fore
SplineSet
22.5 700 m 2
 10.08203125 700 0 689.91796875 0 677.5 c 0
 0 665.08203125 10.08203125 655 22.5 655 c 0
 67.5 655 l 2
 79.91796875 655 90 644.91796875 90 632.5 c 2
 90 500 l 2
 90 487.58203125 79.91796875 477.5 67.5 477.5 c 0
 30.24609375 477.5 0 447.25390625 0 410 c 1
 0 67.5 l 2
 0 30.24609375 30.24609375 0 67.5 0 c 0
 112.5 0 l 2
 124.91796875 0 135 10.08203125 135 22.5 c 0
 135 34.91796875 124.91796875 45 112.5 45 c 2
 67.5 45 l 2
 55.08203125 45 45 55.08203125 45 67.5 c 2
 45 410 l 2
 45 422.41796875 55.08203125 432.5 67.5 432.5 c 0
 104.75390625 432.5 135 462.74609375 135 500 c 1
 135 632.5 l 2
 135 669.75390625 104.75390625 700 67.5 700 c 1
 22.5 700 l 2
EndSplineSet
EndChar

StartChar: bracket_open
Encoding: 91 91 59
Width: 180
VWidth: 824
Flags: H
LayerCount: 2
Fore
SplineSet
67.5 745 m 2
 30.24609375 745 0 714.75390625 0 677.5 c 2
 0 22.5 l 2
 0 -14.75390625 30.24609375 -45 67.5 -45 c 2
 112.5 -45 l 2
 124.91796875 -45 135 -34.91796875 135 -22.5 c 0
 135 -10.08203125 124.91796875 0 112.5 0 c 2
 67.5 0 l 2
 55.08203125 0 45 10.08203125 45 22.5 c 2
 45 677.5 l 2
 45 689.91796875 55.08203125 700 67.5 700 c 2
 112.5 700 l 2
 124.91796875 700 135 710.08203125 135 722.5 c 0
 135 734.91796875 124.91796875 745 112.5 745 c 2
 67.5 745 l 2
EndSplineSet
EndChar

StartChar: backslash
Encoding: 92 92 60
Width: 180
VWidth: 824
Flags: H
LayerCount: 2
Fore
SplineSet
22.5 700 m 0
 10.08203125 700 0 689.91796875 0 677.5 c 2
 0 500 l 2
 0 462.74609375 30.24609375 432.5 67.5 432.5 c 0
 79.91796875 432.5 90 422.41796875 90 410 c 2
 90 22.5 l 2
 90 10.08203125 100.08203125 0 112.5 0 c 0
 124.91796875 0 135 10.08203125 135 22.5 c 2
 135 410 l 2
 135 447.25390625 104.75390625 477.5 67.5 477.5 c 0
 55.08203125 477.5 45 487.58203125 45 500 c 2
 45 677.5 l 2
 45 689.91796875 34.91796875 700 22.5 700 c 0
EndSplineSet
EndChar

StartChar: bracket_close
Encoding: 93 93 61
Width: 180
VWidth: 824
Flags: H
LayerCount: 2
Fore
SplineSet
22.5 745 m 2
 10.08203125 745 0 734.91796875 0 722.5 c 0
 0 710.08203125 10.08203125 700 22.5 700 c 2
 67.5 700 l 2
 79.91796875 700 90 689.91796875 90 677.5 c 2
 90 22.5 l 2
 90 10.08203125 79.91796875 0 67.5 0 c 2
 22.5 0 l 2
 10.08203125 0 0 -10.08203125 0 -22.5 c 0
 0 -34.91796875 10.08203125 -45 22.5 -45 c 2
 67.5 -45 l 2
 104.75390625 -45 135 -14.75390625 135 22.5 c 2
 135 677.5 l 2
 135 714.75390625 104.75390625 745 67.5 745 c 2
 22.5 745 l 2
EndSplineSet
EndChar

StartChar: power
Encoding: 94 94 62
Width: 180
VWidth: 824
Flags: H
LayerCount: 2
Fore
SplineSet
67.5 700 m 0
 30.24609375 700 0 669.75390625 0 632.5 c 2
 0 587.5 l 2
 0 575.08203125 10.08203125 565 22.5 565 c 0
 34.91796875 565 45 575.08203125 45 587.5 c 2
 45 632.5 l 2
 45 644.91796875 55.08203125 655 67.5 655 c 0
 79.91796875 655 90 644.91796875 90 632.5 c 2
 90 587.5 l 2
 90 575.08203125 100.08203125 565 112.5 565 c 0
 124.91796875 565 135 575.08203125 135 587.5 c 2
 135 632.5 l 2
 135 669.75390625 104.75390625 700 67.5 700 c 0
EndSplineSet
EndChar

StartChar: underscore
Encoding: 95 95 63
Width: 225
VWidth: 824
Flags: HW
LayerCount: 2
Fore
SplineSet
22.5 0 m 2
 10.08203125 0 0 -10.08203125 0 -22.5 c 0
 0 -34.91796875 10.08203125 -45 22.5 -45 c 2
 154 -45 l 1
 154 -44.70703125 l 1
 155.146484375 -44.8935546875 156.302734375 -44.9931640625 157.5 -45 c 0
 169.91796875 -45 180 -34.91796875 180 -22.5 c 0
 180 -10.08203125 169.91796875 0 157.5 0 c 0
 156.302734375 -0.0068359375 155.146484375 -0.1064453125 154 -0.29296875 c 0
 153.98046875 -0.2939453125 154 0 154 0 c 1
 22.5 0 l 2
EndSplineSet
EndChar

StartChar: accent
Encoding: 96 96 64
Width: 90
VWidth: 824
Flags: HW
LayerCount: 2
Fore
SplineSet
22.5 700 m 0
 10.08203125 700 0 689.91796875 0 677.5 c 2
 0 587.5 l 2
 0 575.08203125 10.08203125 565 22.5 565 c 0
 34.91796875 565 45 575.08203125 45 587.5 c 2
 45 677.5 l 2
 45 689.91796875 34.91796875 700 22.5 700 c 0
EndSplineSet
EndChar

StartChar: a
Encoding: 97 97 65
Width: 180
VWidth: 824
Flags: H
LayerCount: 2
Fore
SplineSet
67.5 500 m 0
 30.24609375 500 0 469.75390625 0 432.5 c 2
 0 340 l 2
 0 327.58203125 10.08203125 317.5 22.5 317.5 c 0
 34.91796875 317.5 45 327.58203125 45 340 c 2
 45 432.5 l 2
 45 444.91796875 55.08203125 455 67.5 455 c 0
 79.91796875 455 90 444.91796875 90 432.5 c 2
 90 295 l 2
 90 282.58203125 79.91796875 272.5 67.5 272.5 c 0
 30.24609375 272.5 0 242.25390625 0 205 c 2
 0 67.5 l 2
 0 30.24609375 30.24609375 0 67.5 0 c 0
 104.75390625 0 135 30.24609375 135 67.5 c 2
 135 432.5 l 2
 135 469.75390625 104.75390625 500 67.5 500 c 0
67.5 227.5 m 0
 79.91796875 227.5 90 217.41796875 90 205 c 2
 90 67.5 l 2
 90 55.08203125 79.91796875 45 67.5 45 c 0
 55.08203125 45 45 55.08203125 45 67.5 c 2
 45 205 l 2
 45 217.41796875 55.08203125 227.5 67.5 227.5 c 0
EndSplineSet
EndChar

StartChar: b
Encoding: 98 98 66
Width: 180
VWidth: 824
Flags: H
LayerCount: 2
Fore
SplineSet
22.5 700 m 0
 10.08203125 700 0 689.91796875 0 677.5 c 2
 0 67.5 l 2
 0 30.24609375 30.24609375 0 67.5 0 c 0
 104.75390625 0 135 30.24609375 135 67.5 c 2
 135 432.5 l 2
 135 469.75390625 104.75390625 500 67.5 500 c 0
 55.08203125 500 45 510.08203125 45 522.5 c 2
 45 677.5 l 2
 45 689.91796875 34.91796875 700 22.5 700 c 0
67.5 455 m 0
 79.91796875 455 90 444.91796875 90 432.5 c 2
 90 67.5 l 2
 90 55.08203125 79.91796875 45 67.5 45 c 0
 55.08203125 45 45 55.08203125 45 67.5 c 2
 45 432.5 l 2
 45 444.91796875 55.08203125 455 67.5 455 c 0
EndSplineSet
EndChar

StartChar: c
Encoding: 99 99 67
Width: 180
VWidth: 824
Flags: H
LayerCount: 2
Fore
SplineSet
67.5 500 m 0
 30.24609375 500 0 469.75390625 0 432.5 c 2
 0 67.5 l 2
 0 30.24609375 30.24609375 0 67.5 0 c 0
 104.75390625 0 135 30.24609375 135 67.5 c 2
 135 112.5 l 2
 135 124.91796875 124.91796875 135 112.5 135 c 0
 100.08203125 135 90 124.91796875 90 112.5 c 2
 90 67.5 l 2
 90 55.08203125 79.91796875 45 67.5 45 c 0
 55.08203125 45 45 55.08203125 45 67.5 c 2
 45 432.5 l 2
 45 444.91796875 55.08203125 455 67.5 455 c 0
 79.91796875 455 90 444.91796875 90 432.5 c 2
 90 387.5 l 2
 90 375.08203125 100.08203125 365 112.5 365 c 0
 124.91796875 365 135 375.08203125 135 387.5 c 2
 135 432.5 l 2
 135 469.75390625 104.75390625 500 67.5 500 c 0
EndSplineSet
EndChar

StartChar: d
Encoding: 100 100 68
Width: 180
VWidth: 824
Flags: H
LayerCount: 2
Fore
SplineSet
112.5 700 m 0
 100.08203125 700 90 689.91796875 90 677.5 c 1
 90 522.5 l 2
 90 510.08203125 79.91796875 500 67.5 500 c 0
 30.24609375 500 0 469.75390625 0 432.5 c 1
 0 67.5 l 2
 0 30.24609375 30.24609375 0 67.5 0 c 0
 104.75390625 0 135 30.24609375 135 67.5 c 1
 135 677.5 l 2
 135 689.91796875 124.91796875 700 112.5 700 c 0
67.5 455 m 0
 79.91796875 455 90 444.91796875 90 432.5 c 2
 90 67.5 l 2
 90 55.08203125 79.91796875 45 67.5 45 c 0
 55.08203125 45 45 55.08203125 45 67.5 c 1
 45 432.5 l 2
 45 444.91796875 55.08203125 455 67.5 455 c 0
EndSplineSet
EndChar

StartChar: e
Encoding: 101 101 69
Width: 180
VWidth: 824
Flags: H
LayerCount: 2
Fore
SplineSet
67.5 500 m 0
 30.24609375 500 0 469.75390625 0 432.5 c 2
 0 67.5 l 2
 0 30.24609375 30.24609375 0 67.5 0 c 0
 104.75390625 0 135 30.24609375 135 67.5 c 2
 135 160 l 2
 135 172.41796875 124.91796875 182.5 112.5 182.5 c 0
 100.08203125 182.5 90 172.41796875 90 160 c 2
 90 67.5 l 2
 90 55.08203125 79.91796875 45 67.5 45 c 0
 55.08203125 45 45 55.08203125 45 67.5 c 2
 45 205 l 2
 45 217.41796875 55.08203125 227.5 67.5 227.5 c 0
 104.75390625 227.5 135 257.74609375 135 295 c 2
 135 432.5 l 2
 135 469.75390625 104.75390625 500 67.5 500 c 0
67.5 455 m 0
 79.91796875 455 90 444.91796875 90 432.5 c 2
 90 295 l 2
 90 282.58203125 79.91796875 272.5 67.5 272.5 c 0
 55.08203125 272.5 45 282.58203125 45 295 c 2
 45 432.5 l 2
 45 444.91796875 55.08203125 455 67.5 455 c 0
EndSplineSet
EndChar

StartChar: f
Encoding: 102 102 70
Width: 90
VWidth: 824
Flags: HW
LayerCount: 2
Fore
SplineSet
67.5 700 m 0
 30.24609375 700 0 669.75390625 0 632.5 c 2
 0 567.5 l 2
 0 555.08203125 -10.08203125 545 -22.5 545 c 0
 -34.91796875 545 -45 534.91796875 -45 522.5 c 0
 -45 510.08203125 -34.91796875 500 -22.5 500 c 0
 -10.08203125 500 0 489.91796875 0 477.5 c 2
 0 22.5 l 2
 0 10.08203125 10.08203125 0 22.5 0 c 0
 34.91796875 0 45 10.08203125 45 22.5 c 2
 45 477.5 l 2
 45 489.91796875 55.08203125 500 67.5 500 c 2
 90 500 l 2
 102.41796875 500 112.5 510.08203125 112.5 522.5 c 0
 112.5 534.91796875 102.41796875 545 90 545 c 2
 67.5 545 l 2
 55.08203125 545 45 555.08203125 45 567.5 c 2
 45 632.5 l 2
 45 644.91796875 55.08203125 655 67.5 655 c 0
 79.91796875 655 90 644.91796875 90 632.5 c 2
 90 610 l 2
 90 597.58203125 100.08203125 587.5 112.5 587.5 c 0
 124.91796875 587.5 135 597.58203125 135 610 c 2
 135 632.5 l 2
 135 669.75390625 104.75390625 700 67.5 700 c 0
EndSplineSet
EndChar

StartChar: g
Encoding: 103 103 71
Width: 180
VWidth: 824
Flags: H
LayerCount: 2
Fore
SplineSet
67.5 500 m 0
 30.24609375 500 0 469.75390625 0 432.5 c 2
 0 67.5 l 2
 0 30.24609375 30.24609375 0 67.5 0 c 0
 79.91796875 0 90 -10.08203125 90 -22.5 c 2
 90 -132.5 l 2
 90 -144.91796875 79.91796875 -155 67.5 -155 c 0
 55.08203125 -155 45 -144.91796875 45 -132.5 c 2
 45 -87.5 l 2
 45 -75.08203125 34.91796875 -65 22.5 -65 c 0
 10.08203125 -65 0 -75.08203125 0 -87.5 c 2
 0 -132.5 l 2
 0 -169.75390625 30.24609375 -200 67.5 -200 c 0
 104.75390625 -200 135 -169.75390625 135 -132.5 c 2
 135 432.5 l 2
 135 469.75390625 104.75390625 500 67.5 500 c 0
67.5 455 m 0
 79.91796875 455 90 444.91796875 90 432.5 c 2
 90 67.5 l 2
 90 55.08203125 79.91796875 45 67.5 45 c 0
 55.08203125 45 45 55.08203125 45 67.5 c 2
 45 432.5 l 2
 45 444.91796875 55.08203125 455 67.5 455 c 0
EndSplineSet
EndChar

StartChar: h
Encoding: 104 104 72
Width: 180
VWidth: 824
Flags: H
LayerCount: 2
Fore
SplineSet
22.5 700 m 0
 10.08203125 700 0 689.91796875 0 677.5 c 2
 0 22.5 l 2
 0 10.08203125 10.08203125 0 22.5 0 c 0
 34.91796875 0 45 10.08203125 45 22.5 c 2
 45 432.5 l 2
 45 444.91796875 55.08203125 455 67.5 455 c 0
 79.91796875 455 90 444.91796875 90 432.5 c 2
 90 22.5 l 2
 90 10.08203125 100.08203125 0 112.5 0 c 0
 124.91796875 0 135 10.08203125 135 22.5 c 2
 135 432.5 l 2
 135 469.75390625 104.75390625 500 67.5 500 c 0
 55.08203125 500 45 510.08203125 45 522.5 c 2
 45 677.5 l 2
 45 689.91796875 34.91796875 700 22.5 700 c 0
EndSplineSet
EndChar

StartChar: i
Encoding: 105 105 73
Width: 90
VWidth: 824
Flags: HW
LayerCount: 2
Fore
SplineSet
22.5 590 m 0
 10.08203125 590 0 579.91796875 0 567.5 c 0
 0 555.08203125 10.08203125 545 22.5 545 c 0
 34.91796875 545 45 555.08203125 45 567.5 c 0
 45 579.91796875 34.91796875 590 22.5 590 c 0
22.5 500 m 0
 10.08203125 500 0 489.91796875 0 477.5 c 2
 0 22.5 l 2
 0 10.08203125 10.08203125 0 22.5 0 c 0
 34.91796875 0 45 10.08203125 45 22.5 c 1
 45 477.5 l 2
 45 489.91796875 34.91796875 500 22.5 500 c 0
EndSplineSet
EndChar

StartChar: j
Encoding: 106 106 74
Width: 90
VWidth: 824
Flags: HW
LayerCount: 2
Fore
SplineSet
22.5 590 m 0
 10.08203125 590 0 579.91796875 0 567.5 c 0
 0 555.08203125 10.08203125 545 22.5 545 c 0
 34.91796875 545 45 555.08203125 45 567.5 c 0
 45 579.91796875 34.91796875 590 22.5 590 c 0
22.5 500 m 0
 10.08203125 500 0 489.91796875 0 477.5 c 2
 0 -132.5 l 2
 0 -144.91796875 -10.08203125 -155 -22.5 -155 c 0
 -34.91796875 -155 -45 -144.91796875 -45 -132.5 c 2
 -45 -87.5 l 2
 -45 -75.08203125 -55.08203125 -65 -67.5 -65 c 0
 -79.91796875 -65 -90 -75.08203125 -90 -87.5 c 2
 -90 -132.5 l 2
 -90 -169.75390625 -59.75390625 -200 -22.5 -200 c 0
 14.75390625 -200 45 -169.75390625 45 -132.5 c 2
 45 477.5 l 2
 45 489.91796875 34.91796875 500 22.5 500 c 0
EndSplineSet
EndChar

StartChar: k
Encoding: 107 107 75
Width: 180
VWidth: 824
Flags: H
LayerCount: 2
Fore
SplineSet
22.5 700 m 0
 10.08203125 700 0 689.91796875 0 677.5 c 2
 0 22.5 l 2
 0 10.08203125 10.08203125 0 22.5 0 c 0
 34.91796875 0 45 10.08203125 45 22.5 c 2
 45 205 l 2
 45 217.41796875 55.08203125 227.5 67.5 227.5 c 0
 79.91796875 227.5 90 217.41796875 90 205 c 2
 90 22.5 l 2
 90 10.08203125 100.08203125 0 112.5 0 c 0
 124.91796875 0 135 10.08203125 135 22.5 c 2
 135 205 l 2
 135 242.25390625 104.75390625 272.5 67.5 272.5 c 0
 55.08203125 272.5 45 282.58203125 45 295 c 0
 45 307.41796875 55.08203125 317.5 67.5 317.5 c 0
 104.75390625 317.5 135 347.74609375 135 385 c 2
 135 477.5 l 2
 135 489.91796875 124.91796875 500 112.5 500 c 0
 100.08203125 500 90 489.91796875 90 477.5 c 2
 90 385 l 2
 90 372.58203125 79.91796875 362.5 67.5 362.5 c 0
 55.08203125 362.5 45 372.58203125 45 385 c 2
 45 677.5 l 2
 45 689.91796875 34.91796875 700 22.5 700 c 0
EndSplineSet
EndChar

StartChar: l
Encoding: 108 108 76
Width: 90
VWidth: 824
Flags: HW
LayerCount: 2
Fore
SplineSet
22.5 700 m 0
 10.08203125 700 0 689.91796875 0 677.5 c 2
 0 22.5 l 2
 0 10.08203125 10.08203125 0 22.5 0 c 0
 34.91796875 0 45 10.08203125 45 22.5 c 2
 45 677.5 l 2
 45 689.91796875 34.91796875 700 22.5 700 c 0
EndSplineSet
EndChar

StartChar: m
Encoding: 109 109 77
Width: 270
VWidth: 824
Flags: HW
LayerCount: 2
Fore
SplineSet
67.5 500 m 2
 30.24609375 500 0 469.75390625 0 432.5 c 2
 0 22.5 l 2
 0 10.08203125 10.08203125 0 22.5 0 c 0
 34.91796875 0 45 10.08203125 45 22.5 c 2
 45 432.5 l 2
 45 444.91796875 55.08203125 455 67.5 455 c 0
 79.91796875 455 90 444.91796875 90 432.5 c 2
 90 22.5 l 2
 90 10.08203125 100.08203125 0 112.5 0 c 0
 124.91796875 0 135 10.08203125 135 22.5 c 2
 135 432.5 l 2
 135 444.91796875 145.08203125 455 157.5 455 c 0
 169.91796875 455 180 444.91796875 180 432.5 c 2
 180 22.5 l 2
 180 10.08203125 190.08203125 0 202.5 0 c 0
 214.91796875 0 225 10.08203125 225 22.5 c 2
 225 432.5 l 2
 225 469.75390625 194.75390625 500 157.5 500 c 2
 67.5 500 l 2
EndSplineSet
EndChar

StartChar: n
Encoding: 110 110 78
Width: 180
VWidth: 824
Flags: H
LayerCount: 2
Fore
SplineSet
67.5 500 m 0
 30.24609375 500 0 469.75390625 0 432.5 c 2
 0 22.5 l 2
 0 10.08203125 10.08203125 0 22.5 0 c 0
 34.91796875 0 45 10.08203125 45 22.5 c 2
 45 432.5 l 2
 45 444.91796875 55.08203125 455 67.5 455 c 0
 79.91796875 455 90 444.91796875 90 432.5 c 2
 90 22.5 l 2
 90 10.08203125 100.08203125 0 112.5 0 c 0
 124.91796875 0 135 10.08203125 135 22.5 c 2
 135 432.5 l 2
 135 469.75390625 104.75390625 500 67.5 500 c 0
EndSplineSet
EndChar

StartChar: o
Encoding: 111 111 79
Width: 180
VWidth: 824
Flags: H
LayerCount: 2
Fore
SplineSet
67.5 500 m 0
 30.24609375 500 0 469.75390625 0 432.5 c 2
 0 67.5 l 2
 0 30.24609375 30.24609375 -0 67.5 -0 c 0
 104.75390625 -0 135 30.24609375 135 67.5 c 2
 135 432.5 l 2
 135 469.75390625 104.75390625 500 67.5 500 c 0
67.5 455 m 0
 79.91796875 455 90 444.91796875 90 432.5 c 2
 90 67.5 l 2
 90 55.08203125 79.91796875 45 67.5 45 c 0
 55.08203125 45 45 55.08203125 45 67.5 c 2
 45 432.5 l 2
 45 444.91796875 55.08203125 455 67.5 455 c 0
EndSplineSet
EndChar

StartChar: p
Encoding: 112 112 80
Width: 180
VWidth: 824
Flags: H
LayerCount: 2
Fore
SplineSet
67.5 500 m 0
 30.24609375 500 0 469.75390625 0 432.5 c 2
 0 -177.5 l 2
 0 -189.91796875 10.08203125 -200 22.5 -200 c 0
 34.91796875 -200 45 -189.91796875 45 -177.5 c 2
 45 -22.5 l 2
 45 -10.08203125 55.08203125 -0 67.5 -0 c 0
 104.75390625 -0 135 30.24609375 135 67.5 c 2
 135 432.5 l 2
 135 469.75390625 104.75390625 500 67.5 500 c 0
67.5 455 m 0
 79.91796875 455 90 444.91796875 90 432.5 c 2
 90 67.5 l 2
 90 55.08203125 79.91796875 45 67.5 45 c 0
 55.08203125 45 45 55.08203125 45 67.5 c 2
 45 432.5 l 2
 45 444.91796875 55.08203125 455 67.5 455 c 0
EndSplineSet
EndChar

StartChar: q
Encoding: 113 113 81
Width: 180
VWidth: 824
Flags: H
LayerCount: 2
Fore
SplineSet
67.5 500 m 0
 30.24609375 500 0 469.75390625 0 432.5 c 2
 0 67.5 l 2
 0 30.24609375 30.24609375 -0 67.5 -0 c 0
 79.91796875 -0 90 -10.08203125 90 -22.5 c 2
 90 -177.5 l 2
 90 -189.91796875 100.08203125 -200 112.5 -200 c 0
 124.91796875 -200 135 -189.91796875 135 -177.5 c 2
 135 432.5 l 2
 135 469.75390625 104.75390625 500 67.5 500 c 0
67.5 455 m 0
 79.91796875 455 90 444.91796875 90 432.5 c 2
 90 67.5 l 2
 90 55.08203125 79.91796875 45 67.5 45 c 0
 55.08203125 45 45 55.08203125 45 67.5 c 2
 45 432.5 l 2
 45 444.91796875 55.08203125 455 67.5 455 c 0
EndSplineSet
EndChar

StartChar: r
Encoding: 114 114 82
Width: 135
VWidth: 824
Flags: HW
LayerCount: 2
Fore
SplineSet
67.5 500 m 0
 30.24609375 500 0 469.75390625 0 432.5 c 2
 0 22.5 l 2
 0 10.08203125 10.08203125 0 22.5 0 c 0
 34.91796875 0 45 10.08203125 45 22.5 c 2
 45 432.5 l 2
 45 444.91796875 55.08203125 455 67.5 455 c 0
 79.91796875 455 90 465.08203125 90 477.5 c 0
 90 489.91796875 79.91796875 500 67.5 500 c 0
EndSplineSet
EndChar

StartChar: s
Encoding: 115 115 83
Width: 180
VWidth: 824
Flags: H
LayerCount: 2
Fore
SplineSet
67.5 500 m 0
 30.24609375 500 0 469.75390625 0 432.5 c 2
 0 342.5 l 2
 0 305.24609375 30.24609375 275 67.5 275 c 0
 79.91796875 275 90 264.91796875 90 252.5 c 2
 90 67.5 l 2
 90 55.08203125 79.91796875 45 67.5 45 c 0
 55.08203125 45 45 55.08203125 45 67.5 c 2
 45 207.5 l 2
 45 219.91796875 34.91796875 230 22.5 230 c 0
 10.08203125 230 0 219.91796875 0 207.5 c 2
 0 67.5 l 2
 0 30.24609375 30.24609375 0 67.5 0 c 0
 104.75390625 0 135 30.24609375 135 67.5 c 2
 135 252.5 l 2
 135 289.75390625 104.75390625 320 67.5 320 c 0
 55.08203125 320 45 330.08203125 45 342.5 c 2
 45 432.5 l 2
 45 444.91796875 55.08203125 455 67.5 455 c 0
 79.91796875 455 90 444.91796875 90 432.5 c 2
 90 387.5 l 2
 90 375.08203125 100.08203125 365 112.5 365 c 0
 124.91796875 365 135 375.08203125 135 387.5 c 2
 135 432.5 l 2
 135 469.75390625 104.75390625 500 67.5 500 c 0
EndSplineSet
EndChar

StartChar: t
Encoding: 116 116 84
Width: 90
VWidth: 824
Flags: HW
LayerCount: 2
Fore
SplineSet
22.5 700 m 0
 10.08203125 700 0 689.91796875 0 677.5 c 2
 0 567.5 l 2
 0 555.08203125 -10.08203125 545 -22.5 545 c 0
 -34.91796875 545 -45 534.91796875 -45 522.5 c 0
 -45 510.08203125 -34.91796875 500 -22.5 500 c 0
 -10.08203125 500 0 489.91796875 0 477.5 c 2
 0 22.5 l 2
 0 10.08203125 10.08203125 0 22.5 0 c 0
 34.91796875 0 45 10.08203125 45 22.5 c 2
 45 477.5 l 2
 45 489.91796875 55.08203125 500 67.5 500 c 0
 79.91796875 500 90 510.08203125 90 522.5 c 0
 90 534.91796875 79.91796875 545 67.5 545 c 0
 55.08203125 545 45 555.08203125 45 567.5 c 2
 45 677.5 l 2
 45 689.91796875 34.91796875 700 22.5 700 c 0
EndSplineSet
EndChar

StartChar: u
Encoding: 117 117 85
Width: 180
VWidth: 824
Flags: H
LayerCount: 2
Fore
SplineSet
22.5 500 m 0
 10.08203125 500 0 489.91796875 0 477.5 c 2
 0 67.5 l 2
 0 30.24609375 30.24609375 -0 67.5 -0 c 0
 104.75390625 -0 135 30.24609375 135 67.5 c 2
 135 477.5 l 2
 135 489.91796875 124.91796875 500 112.5 500 c 0
 100.08203125 500 90 489.91796875 90 477.5 c 1
 90 67.5 l 2
 90 55.08203125 79.91796875 45 67.5 45 c 0
 55.08203125 45 45 55.08203125 45 67.5 c 2
 45 477.5 l 2
 45 489.91796875 34.91796875 500 22.5 500 c 0
EndSplineSet
EndChar

StartChar: v
Encoding: 118 118 86
Width: 180
VWidth: 824
Flags: H
LayerCount: 2
Fore
SplineSet
22.5 500 m 0
 10.08203125 500 0 489.91796875 0 477.5 c 2
 0 67.5 l 2
 0 30.24609375 30.24609375 -0 67.5 -0 c 0
 104.75390625 -0 135 30.24609375 135 67.5 c 2
 135 477.5 l 2
 135 489.91796875 124.91796875 500 112.5 500 c 0
 100.08203125 500 90 489.91796875 90 477.5 c 1
 90 67.5 l 2
 90 55.08203125 79.91796875 45 67.5 45 c 0
 55.08203125 45 45 55.08203125 45 67.5 c 2
 45 477.5 l 2
 45 489.91796875 34.91796875 500 22.5 500 c 0
EndSplineSet
EndChar

StartChar: w
Encoding: 119 119 87
Width: 270
VWidth: 824
Flags: HW
LayerCount: 2
Fore
SplineSet
22.5 500 m 0
 10.08203125 500 0 489.91796875 0 477.5 c 2
 0 67.5 l 2
 0 30.24609375 30.24609375 0 67.5 0 c 2
 157.5 0 l 2
 194.75390625 0 225 30.24609375 225 67.5 c 2
 225 477.5 l 2
 225 489.91796875 214.91796875 500 202.5 500 c 0
 190.08203125 500 180 489.91796875 180 477.5 c 2
 180 67.5 l 2
 180 55.08203125 169.91796875 45 157.5 45 c 0
 145.08203125 45 135 55.08203125 135 67.5 c 2
 135 477.5 l 2
 135 489.91796875 124.91796875 500 112.5 500 c 0
 100.08203125 500 90 489.91796875 90 477.5 c 2
 90 67.5 l 2
 90 55.08203125 79.91796875 45 67.5 45 c 0
 55.08203125 45 45 55.08203125 45 67.5 c 2
 45 477.5 l 2
 45 489.91796875 34.91796875 500 22.5 500 c 0
EndSplineSet
EndChar

StartChar: x
Encoding: 120 120 88
Width: 180
VWidth: 824
Flags: H
LayerCount: 2
Fore
SplineSet
22.5 500 m 0
 10.08203125 500 0 489.91796875 0 477.5 c 2
 0 340 l 2
 0 302.74609375 30.24609375 272.5 67.5 272.5 c 0
 104.75390625 272.5 135 302.74609375 135 340 c 2
 135 477.5 l 2
 135 489.91796875 124.91796875 500 112.5 500 c 0
 100.08203125 500 90 489.91796875 90 477.5 c 2
 90 340 l 2
 90 327.58203125 79.91796875 317.5 67.5 317.5 c 0
 55.08203125 317.5 45 327.58203125 45 340 c 2
 45 477.5 l 2
 45 489.91796875 34.91796875 500 22.5 500 c 0
67.5 227.5 m 0
 30.24609375 227.5 0 197.25390625 0 160 c 2
 0 22.5 l 2
 0 10.08203125 10.08203125 0 22.5 0 c 0
 34.91796875 0 45 10.08203125 45 22.5 c 2
 45 160 l 2
 45 172.41796875 55.08203125 182.5 67.5 182.5 c 0
 79.91796875 182.5 90 172.41796875 90 160 c 2
 90 22.5 l 2
 90 10.08203125 100.08203125 0 112.5 0 c 0
 124.91796875 0 135 10.08203125 135 22.5 c 2
 135 160 l 2
 135 197.25390625 104.75390625 227.5 67.5 227.5 c 0
EndSplineSet
EndChar

StartChar: y
Encoding: 121 121 89
Width: 180
VWidth: 824
Flags: H
LayerCount: 2
Fore
SplineSet
22.5 500 m 0
 10.08203125 500 0 489.91796875 0 477.5 c 1
 0 67.5 l 2
 0 30.24609375 30.24609375 0 67.5 0 c 0
 79.91796875 0 90 -10.08203125 90 -22.5 c 2
 90 -177.5 l 2
 90 -189.91796875 100.08203125 -200 112.5 -200 c 0
 124.91796875 -200 135 -189.91796875 135 -177.5 c 2
 135 477.5 l 2
 135 489.91796875 124.91796875 500 112.5 500 c 0
 100.08203125 500 90 489.91796875 90 477.5 c 1
 90 67.5 l 2
 90 55.08203125 79.91796875 45 67.5 45 c 0
 55.08203125 45 45 55.08203125 45 67.5 c 2
 45 477.5 l 2
 45 489.91796875 34.91796875 500 22.5 500 c 0
EndSplineSet
EndChar

StartChar: z
Encoding: 122 122 90
Width: 180
VWidth: 824
Flags: H
LayerCount: 2
Fore
SplineSet
22.5 500 m 2
 10.08203125 500 0 489.91796875 0 477.5 c 0
 0 465.08203125 10.08203125 455 22.5 455 c 2
 67.5 455 l 2
 79.91796875 455 90 444.91796875 90 432.5 c 2
 90 342.5 l 2
 90 330.08203125 79.91796875 320 67.5 320 c 0
 30.24609375 320 0 289.75390625 0 252.5 c 1
 0 67.5 l 2
 0 30.24609375 30.24609375 0 67.5 0 c 0
 112.5 0 l 2
 124.91796875 0 135 10.08203125 135 22.5 c 0
 135 34.91796875 124.91796875 45 112.5 45 c 2
 67.5 45 l 2
 55.08203125 45 45 55.08203125 45 67.5 c 1
 45 252.5 l 2
 45 264.91796875 55.08203125 275 67.5 275 c 0
 104.75390625 275 135 305.24609375 135 342.5 c 1
 135 432.5 l 2
 135 469.75390625 104.75390625 500 67.5 500 c 1
 22.5 500 l 2
EndSplineSet
EndChar

StartChar: braces_open
Encoding: 123 123 91
Width: 225
VWidth: 824
Flags: HW
LayerCount: 2
Fore
SplineSet
112.5 745 m 1
 112.5 744.998046875 l 1
 75.24609375 744.998046875 45.0009765625 714.750976562 45 677.498046875 c 1
 45 677.5 45 394.998046875 45 394.998046875 c 2
 45 382.580078125 34.91796875 372.498046875 22.5 372.498046875 c 0
 10.08203125 372.498046875 0 362.416015625 0 349.998046875 c 0
 0 337.580078125 10.08203125 327.498046875 22.5 327.498046875 c 0
 34.91796875 327.498046875 45 317.416015625 45 304.998046875 c 1
 45 22.5 l 1
 90 22.5 l 1
 90 677.498046875 l 1
 90 677.5 l 2
 90.0009765625 689.916992188 100.083007812 699.998046875 112.5 699.998046875 c 0
 112.5 700 l 1
 157.5 700 l 2
 169.91796875 700 180 710.08203125 180 722.5 c 0
 180 734.91796875 169.91796875 745 157.5 745 c 2
 112.5 745 l 1
45 22.498046875 m 1
 45 -14.755859375 75.24609375 -45.001953125 112.5 -45.001953125 c 0
 112.5 -45 l 1
 157.5 -45 l 2
 169.91796875 -45 180 -34.91796875 180 -22.5 c 0
 180 -10.08203125 169.91796875 0 157.5 0 c 2
 112.5 0 l 1
 112.5 -0.001953125 l 1
 100.08203125 -0.001953125 90 10.080078125 90 22.498046875 c 1
 45 22.498046875 l 1
EndSplineSet
EndChar

StartChar: or
Encoding: 124 124 92
Width: 90
VWidth: 824
Flags: HW
LayerCount: 2
Fore
SplineSet
22.5 790 m 0
 10.08203125 790 0 779.91796875 0 767.5 c 2
 0 -67.5 l 2
 0 -79.91796875 10.08203125 -90 22.5 -90 c 0
 34.91796875 -90 45 -79.91796875 45 -67.5 c 2
 45 767.5 l 2
 45 779.91796875 34.91796875 790 22.5 790 c 0
EndSplineSet
EndChar

StartChar: braces_close
Encoding: 125 125 93
Width: 225
VWidth: 824
Flags: HW
LayerCount: 2
Fore
SplineSet
22.5 745 m 2
 10.08203125 745 0 734.91796875 0 722.5 c 0
 0 710.08203125 10.08203125 700 22.5 700 c 2
 67.5 700 l 2
 79.91796875 700 90 689.91796875 90 677.5 c 2
 90 22.5 l 2
 90 10.08203125 79.91796875 0 67.5 0 c 2
 22.5 0 l 2
 10.08203125 0 0 -10.08203125 0 -22.5 c 0
 0 -34.91796875 10.08203125 -45 22.5 -45 c 2
 67.5 -45 l 2
 104.75390625 -45 135 -14.75390625 135 22.5 c 2
 135 305 l 2
 135 317.41796875 145.08203125 327.5 157.5 327.5 c 0
 169.91796875 327.5 180 337.58203125 180 350 c 0
 180 362.41796875 169.91796875 372.5 157.5 372.5 c 0
 145.08203125 372.5 135 382.58203125 135 395 c 2
 135 677.5 l 2
 135 714.75390625 104.75390625 745 67.5 745 c 2
 22.5 745 l 2
EndSplineSet
EndChar

StartChar: snake
Encoding: 126 126 94
Width: 270
VWidth: 824
Flags: HW
LayerCount: 2
Fore
SplineSet
67.5 317.5 m 0
 30.24609375 317.5 0 287.25390625 0 250 c 2
 0 227.5 l 2
 0 215.08203125 10.08203125 205 22.5 205 c 0
 34.91796875 205 45 215.08203125 45 227.5 c 2
 45 250 l 2
 45 262.41796875 55.08203125 272.5 67.5 272.5 c 0
 79.91796875 272.5 90 262.41796875 90 250 c 0
 90 212.74609375 120.24609375 182.5 157.5 182.5 c 0
 194.75390625 182.5 225 212.74609375 225 250 c 2
 225 272.5 l 2
 225 284.91796875 214.91796875 295 202.5 295 c 0
 190.08203125 295 180 284.91796875 180 272.5 c 2
 180 250 l 2
 180 237.58203125 169.91796875 227.5 157.5 227.5 c 0
 145.08203125 227.5 135 237.58203125 135 250 c 0
 135 287.25390625 104.75390625 317.5 67.5 317.5 c 0
EndSplineSet
EndChar

StartChar: degree
Encoding: 176 176 95
Width: 180
VWidth: 824
Flags: H
LayerCount: 2
Fore
SplineSet
67.5 700 m 0
 30.24609375 700 0 669.75390625 0 632.5 c 0
 0 595.24609375 30.24609375 565 67.5 565 c 0
 104.75390625 565 135 595.24609375 135 632.5 c 0
 135 669.75390625 104.75390625 700 67.5 700 c 0
67.5 655 m 0
 79.91796875 655 90 644.91796875 90 632.5 c 0
 90 620.08203125 79.91796875 610 67.5 610 c 0
 55.08203125 610 45 620.08203125 45 632.5 c 0
 45 644.91796875 55.08203125 655 67.5 655 c 0
EndSplineSet
EndChar

StartChar: "+AOQA"
Encoding: 228 228 96
Width: 180
VWidth: 824
Flags: H
LayerCount: 2
Fore
SplineSet
22.5 590 m 0
 10.08203125 590 0 579.91796875 0 567.5 c 0
 0 555.08203125 10.08203125 545 22.5 545 c 0
 34.91796875 545 45 555.08203125 45 567.5 c 0
 45 579.91796875 34.91796875 590 22.5 590 c 0
112.5 590 m 0
 100.08203125 590 90 579.91796875 90 567.5 c 0
 90 555.08203125 100.08203125 545 112.5 545 c 0
 124.91796875 545 135 555.08203125 135 567.5 c 0
 135 579.91796875 124.91796875 590 112.5 590 c 0
67.5 500 m 0
 30.24609375 500 0 469.75390625 0 432.5 c 2
 0 387.5 l 2
 0 375.08203125 10.08203125 365 22.5 365 c 0
 34.91796875 365 45 375.08203125 45 387.5 c 2
 45 432.5 l 2
 45 444.91796875 55.08203125 455 67.5 455 c 0
 79.91796875 455 90 444.91796875 90 432.5 c 2
 90 295 l 2
 90 282.58203125 79.91796875 272.5 67.5 272.5 c 0
 30.24609375 272.5 0 242.25390625 0 205 c 2
 0 67.5 l 2
 0 30.24609375 30.24609375 0 67.5 0 c 0
 104.75390625 0 135 30.24609375 135 67.5 c 2
 135 432.5 l 2
 135 469.75390625 104.75390625 500 67.5 500 c 0
67.5 227.5 m 0
 79.91796875 227.5 90 217.41796875 90 205 c 2
 90 67.5 l 2
 90 55.08203125 79.91796875 45 67.5 45 c 0
 55.08203125 45 45 55.08203125 45 67.5 c 2
 45 205 l 2
 45 217.41796875 55.08203125 227.5 67.5 227.5 c 0
EndSplineSet
EndChar

StartChar: "+APYA"
Encoding: 246 246 97
Width: 180
VWidth: 824
Flags: H
LayerCount: 2
Fore
SplineSet
22.5 590 m 0
 10.08203125 590 0 579.91796875 0 567.5 c 0
 0 555.08203125 10.08203125 545 22.5 545 c 0
 34.91796875 545 45 555.08203125 45 567.5 c 0
 45 579.91796875 34.91796875 590 22.5 590 c 0
112.5 590 m 0
 100.08203125 590 90 579.91796875 90 567.5 c 0
 90 555.08203125 100.08203125 545 112.5 545 c 0
 124.91796875 545 135 555.08203125 135 567.5 c 0
 135 579.91796875 124.91796875 590 112.5 590 c 0
67.5 500 m 0
 30.24609375 500 0 469.75390625 0 432.5 c 2
 0 67.5 l 2
 0 30.24609375 30.24609375 0 67.5 0 c 0
 104.75390625 0 135 30.24609375 135 67.5 c 2
 135 432.5 l 2
 135 469.75390625 104.75390625 500 67.5 500 c 0
67.5 455 m 0
 79.91796875 455 90 444.91796875 90 432.5 c 2
 90 67.5 l 2
 90 55.08203125 79.91796875 45 67.5 45 c 0
 55.08203125 45 45 55.08203125 45 67.5 c 2
 45 432.5 l 2
 45 444.91796875 55.08203125 455 67.5 455 c 0
EndSplineSet
EndChar

StartChar: "+APwA"
Encoding: 252 252 98
Width: 180
VWidth: 824
Flags: H
LayerCount: 2
Fore
SplineSet
22.501953125 590 m 0
 10.083984375 590 0.001953125 579.91796875 0.001953125 567.5 c 0
 0.001953125 555.08203125 10.083984375 545 22.501953125 545 c 0
 34.919921875 545 45.001953125 555.08203125 45.001953125 567.5 c 0
 45.001953125 579.91796875 34.919921875 590 22.501953125 590 c 0
112.501953125 590 m 0
 100.083984375 590 90.001953125 579.91796875 90.001953125 567.5 c 0
 90.001953125 555.08203125 100.083984375 545 112.501953125 545 c 0
 124.919921875 545 135.001953125 555.08203125 135.001953125 567.5 c 0
 135.001953125 579.91796875 124.919921875 590 112.501953125 590 c 0
22.5 500 m 0
 10.08203125 500 0 489.91796875 0 477.5 c 2
 0 67.5 l 2
 0 30.24609375 30.24609375 0 67.5 0 c 0
 104.75390625 0 135 30.24609375 135 67.5 c 1
 135 477.5 l 2
 135 489.91796875 124.91796875 500 112.5 500 c 0
 100.08203125 500 90 489.91796875 90 477.5 c 1
 90 67.5 l 2
 90 55.08203125 79.91796875 45 67.5 45 c 0
 55.08203125 45 45 55.08203125 45 67.5 c 1
 45 477.5 l 2
 45 489.91796875 34.91796875 500 22.5 500 c 0
EndSplineSet
EndChar

StartChar: "+AMQA"
Encoding: 196 196 99
Width: 180
VWidth: 824
Flags: H
LayerCount: 2
Fore
SplineSet
22.5 790 m 0
 10.08203125 790 0 779.91796875 0 767.5 c 0
 0 755.08203125 10.08203125 745 22.5 745 c 0
 34.91796875 745 45 755.08203125 45 767.5 c 0
 45 779.91796875 34.91796875 790 22.5 790 c 0
112.5 790 m 0
 100.08203125 790 90 779.91796875 90 767.5 c 0
 90 755.08203125 100.08203125 745 112.5 745 c 0
 124.91796875 745 135 755.08203125 135 767.5 c 0
 135 779.91796875 124.91796875 790 112.5 790 c 0
67.5 700 m 0
 30.24609375 700 0 669.75390625 0 632.5 c 1
 0 22.5 l 2
 0 10.08203125 10.08203125 0 22.5 0 c 0
 34.91796875 0 45 10.08203125 45 22.5 c 2
 45 410 l 2
 45 422.41796875 55.08203125 432.5 67.5 432.5 c 0
 79.91796875 432.5 90 422.41796875 90 410 c 2
 90 22.5 l 2
 90 10.08203125 100.08203125 0 112.5 0 c 0
 124.91796875 0 135 10.08203125 135 22.5 c 2
 135 632.5 l 2
 135 669.75390625 104.75390625 700 67.5 700 c 0
67.5 655 m 0
 79.91796875 655 90 644.91796875 90 632.5 c 2
 90 500 l 2
 90 487.58203125 79.91796875 477.5 67.5 477.5 c 0
 55.08203125 477.5 45 487.58203125 45 500 c 1
 45 632.5 l 2
 45 644.91796875 55.08203125 655 67.5 655 c 0
EndSplineSet
EndChar

StartChar: "+ANYA"
Encoding: 214 214 100
Width: 180
VWidth: 824
Flags: H
LayerCount: 2
Fore
SplineSet
22.5 790 m 0
 10.08203125 790 0 779.91796875 0 767.5 c 0
 0 755.08203125 10.08203125 745 22.5 745 c 0
 34.91796875 745 45 755.08203125 45 767.5 c 0
 45 779.91796875 34.91796875 790 22.5 790 c 0
112.5 790 m 0
 100.08203125 790 90 779.91796875 90 767.5 c 0
 90 755.08203125 100.08203125 745 112.5 745 c 0
 124.91796875 745 135 755.08203125 135 767.5 c 0
 135 779.91796875 124.91796875 790 112.5 790 c 0
67.5 700 m 0
 30.24609375 700 0 669.75390625 0 632.5 c 2
 0 67.5 l 2
 0 30.24609375 30.24609375 0 67.5 0 c 0
 104.75390625 0 135 30.24609375 135 67.5 c 2
 135 632.5 l 2
 135 669.75390625 104.75390625 700 67.5 700 c 0
67.5 655 m 0
 79.91796875 655 90 644.91796875 90 632.5 c 2
 90 67.5 l 2
 90 55.08203125 79.91796875 45 67.5 45 c 0
 55.08203125 45 45 55.08203125 45 67.5 c 2
 45 632.5 l 2
 45 644.91796875 55.08203125 655 67.5 655 c 0
EndSplineSet
EndChar

StartChar: "+ANwA"
Encoding: 220 220 101
Width: 180
VWidth: 824
Flags: H
LayerCount: 2
Fore
SplineSet
22.5078125 790 m 0
 10.08984375 790 0.0078125 779.91796875 0.0078125 767.5 c 0
 0.0078125 755.08203125 10.08984375 745 22.5078125 745 c 0
 34.92578125 745 45.0078125 755.08203125 45.0078125 767.5 c 0
 45.0078125 779.91796875 34.92578125 790 22.5078125 790 c 0
112.5078125 790 m 0
 100.08984375 790 90.0078125 779.91796875 90.0078125 767.5 c 0
 90.0078125 755.08203125 100.08984375 745 112.5078125 745 c 0
 124.92578125 745 135.0078125 755.08203125 135.0078125 767.5 c 0
 135.0078125 779.91796875 124.92578125 790 112.5078125 790 c 0
22.5 700 m 0
 10.08203125 700 0 689.91796875 0 677.5 c 2
 0 67.5 l 2
 0 30.24609375 30.24609375 0 67.5 0 c 0
 104.75390625 0 135 30.24609375 135 67.5 c 2
 135 677.5 l 2
 135 689.91796875 124.91796875 700 112.5 700 c 0
 100.08203125 700 90 689.91796875 90 677.5 c 2
 90 67.5 l 2
 90 55.08203125 79.91796875 45 67.5 45 c 0
 55.08203125 45 45 55.08203125 45 67.5 c 2
 45 677.5 l 2
 45 689.91796875 34.91796875 700 22.5 700 c 0
EndSplineSet
EndChar

StartChar: euro
Encoding: 8364 8364 103
Width: 225
VWidth: 824
Flags: HW
LayerCount: 2
Fore
SplineSet
112.5 700 m 2
 75.24609375 700 45 669.75390625 45 632.5 c 1
 45 500 l 2
 45 487.58203125 34.91796875 477.5 22.5 477.5 c 0
 10.08203125 477.5 0 467.41796875 0 455 c 0
 0 442.58203125 10.08203125 432.5 22.5 432.5 c 0
 34.91796875 432.5 45 422.41796875 45 410 c 0
 45 397.58203125 34.91796875 387.5 22.5 387.5 c 0
 10.08203125 387.5 0 377.41796875 0 365 c 0
 0 352.58203125 10.08203125 342.5 22.5 342.5 c 0
 34.91796875 342.5 45 332.41796875 45 320 c 2
 45 67.5 l 2
 45 30.24609375 75.24609375 0 112.5 0 c 0
 157.5 0 l 2
 169.91796875 0 180 10.08203125 180 22.5 c 0
 180 34.91796875 169.91796875 45 157.5 45 c 2
 112.5 45 l 2
 100.08203125 45 90 55.08203125 90 67.5 c 1
 90 320 l 2
 90 332.41796875 100.08203125 342.5 112.5 342.5 c 0
 135 342.5 l 2
 147.41796875 342.5 157.5 352.58203125 157.5 365 c 0
 157.5 377.41796875 147.41796875 387.5 135 387.5 c 2
 112.5 387.5 l 2
 100.08203125 387.5 90 397.58203125 90 410 c 0
 90 422.41796875 100.08203125 432.5 112.5 432.5 c 0
 135 432.5 l 2
 147.41796875 432.5 157.5 442.58203125 157.5 455 c 0
 157.5 467.41796875 147.41796875 477.5 135 477.5 c 2
 112.5 477.5 l 2
 100.08203125 477.5 90 487.58203125 90 500 c 1
 90 632.5 l 2
 90 644.91796875 100.08203125 655 112.5 655 c 0
 157.5 655 l 2
 169.91796875 655 180 665.08203125 180 677.5 c 0
 180 689.91796875 169.91796875 700 157.5 700 c 2
 112.5 700 l 2
EndSplineSet
EndChar

StartChar: sad_face
Encoding: 180 180 104
Width: 315
VWidth: 824
Flags: HW
LayerCount: 2
Fore
SplineSet
90 680 m 0
 77.58203125 680 67.5 669.91796875 67.5 657.5 c 2
 67.5 567.5 l 2
 67.5 555.08203125 77.58203125 545 90 545 c 0
 102.41796875 545 112.5 555.08203125 112.5 567.5 c 2
 112.5 657.5 l 2
 112.5 669.91796875 102.41796875 680 90 680 c 0
180 680 m 0
 167.58203125 680 157.5 669.91796875 157.5 657.5 c 2
 157.5 567.5 l 2
 157.5 555.08203125 167.58203125 545 180 545 c 0
 192.41796875 545 202.5 555.08203125 202.5 567.5 c 2
 202.5 657.5 l 2
 202.5 669.91796875 192.41796875 680 180 680 c 0
67.5 500 m 2
 30.24609375 500 0 469.75390625 0 432.5 c 0
 0 420.08203125 10.08203125 410 22.5 410 c 0
 34.91796875 410 45 420.08203125 45 432.5 c 0
 45 444.91796875 55.08203125 455 67.5 455 c 2
 202.5 455 l 2
 214.91796875 455 225 444.91796875 225 432.5 c 0
 225 420.08203125 235.08203125 410 247.5 410 c 0
 259.91796875 410 270 420.08203125 270 432.5 c 0
 270 469.75390625 239.75390625 500 202.5 500 c 2
 67.5 500 l 2
EndSplineSet
EndChar

StartChar: happy_face
Encoding: 167 167 105
Width: 315
VWidth: 824
Flags: HW
LayerCount: 2
Fore
SplineSet
90 680 m 0
 77.58203125 680 67.5 669.91796875 67.5 657.5 c 2
 67.5 567.5 l 2
 67.5 555.08203125 77.58203125 545 90 545 c 0
 102.41796875 545 112.5 555.08203125 112.5 567.5 c 1
 112.5 657.5 l 2
 112.5 669.91796875 102.41796875 680 90 680 c 0
180 680 m 0
 167.58203125 680 157.5 669.91796875 157.5 657.5 c 2
 157.5 567.5 l 2
 157.5 555.08203125 167.58203125 545 180 545 c 0
 192.41796875 545 202.5 555.08203125 202.5 567.5 c 2
 202.5 657.5 l 2
 202.5 669.91796875 192.41796875 680 180 680 c 0
22.5 522.5 m 0
 10.08203125 522.5 0 512.41796875 0 500 c 0
 0 462.74609375 30.24609375 432.5 67.5 432.5 c 1
 202.5 432.5 l 2
 239.75390625 432.5 270 462.74609375 270 500 c 0
 270 512.41796875 259.91796875 522.5 247.5 522.5 c 0
 235.08203125 522.5 225 512.41796875 225 500 c 0
 225 487.58203125 214.91796875 477.5 202.5 477.5 c 2
 67.5 477.5 l 2
 55.08203125 477.5 45 487.58203125 45 500 c 0
 45 512.41796875 34.91796875 522.5 22.5 522.5 c 0
EndSplineSet
EndChar

StartChar: g_j
Encoding: 65536 -1 106
Width: 270
VWidth: 824
Flags: HW
LayerCount: 2
Fore
SplineSet
202.5 590 m 0
 190.08203125 590 180 579.91796875 180 567.5 c 0
 180 555.08203125 190.08203125 545 202.5 545 c 0
 214.91796875 545 225 555.08203125 225 567.5 c 0
 225 579.91796875 214.91796875 590 202.5 590 c 0
67.5 500 m 0
 30.24609375 500 0 469.75390625 0 432.5 c 1
 0 67.5 l 2
 0 30.24609375 30.24609375 0 67.5 0 c 0
 79.91796875 0 90 -10.08203125 90 -22.5 c 2
 90 -132.5 l 2
 90 -144.91796875 79.91796875 -155 67.5 -155 c 0
 55.08203125 -155 45 -144.91796875 45 -132.5 c 1
 45 -87.5 l 2
 45 -75.08203125 34.91796875 -65 22.5 -65 c 0
 10.08203125 -65 0 -75.08203125 0 -87.5 c 2
 0 -132.5 l 2
 0 -169.75390625 30.24609375 -200 67.5 -200 c 0
 157.5 -200 l 2
 194.75390625 -200 225 -169.75390625 225 -132.5 c 1
 225 477.5 l 2
 225 489.91796875 214.91796875 500 202.5 500 c 0
 190.08203125 500 180 489.91796875 180 477.5 c 2
 180 -132.5 l 2
 180 -144.91796875 169.91796875 -155 157.5 -155 c 0
 145.08203125 -155 135 -144.91796875 135 -132.5 c 2
 135 432.5 l 2
 135 469.75390625 104.75390625 500 67.5 500 c 0
67.5 455 m 0
 79.91796875 455 90 444.91796875 90 432.5 c 2
 90 67.5 l 2
 90 55.08203125 79.91796875 45 67.5 45 c 0
 55.08203125 45 45 55.08203125 45 67.5 c 1
 45 432.5 l 2
 45 444.91796875 55.08203125 455 67.5 455 c 0
EndSplineSet
Ligature2: "'liga' Standard Ligatures in Latin lookup 0 subtable" g j
EndChar

StartChar: j_j
Encoding: 65537 -1 107
Width: 180
VWidth: 824
Flags: HW
LayerCount: 2
Fore
SplineSet
22.5 590 m 0
 10.08203125 590 0 579.91796875 0 567.5 c 0
 0 555.08203125 10.08203125 545 22.5 545 c 0
 34.91796875 545 45 555.08203125 45 567.5 c 0
 45 579.91796875 34.91796875 590 22.5 590 c 0
112.5 590 m 0
 100.08203125 590 90 579.91796875 90 567.5 c 0
 90 555.08203125 100.08203125 545 112.5 545 c 0
 124.91796875 545 135 555.08203125 135 567.5 c 0
 135 579.91796875 124.91796875 590 112.5 590 c 0
22.5 500 m 0
 10.08203125 500 0 489.91796875 0 477.5 c 2
 0 -87.5 l 1
 0 -132.5 l 2
 0 -144.91796875 -10.08203125 -155 -22.5 -155 c 0
 -34.91796875 -155 -45 -144.91796875 -45 -132.5 c 2
 -45 -87.5 l 2
 -45 -75.08203125 -55.08203125 -65 -67.5 -65 c 0
 -79.91796875 -65 -90 -75.08203125 -90 -87.5 c 2
 -90 -132.5 l 2
 -90 -169.75390625 -59.75390625 -200 -22.5 -200 c 2
 67.5 -200 l 2
 104.75390625 -200 135 -169.75390625 135 -132.5 c 2
 135 477.5 l 2
 135 489.91796875 124.91796875 500 112.5 500 c 0
 100.08203125 500 90 489.91796875 90 477.5 c 2
 90 -132.5 l 2
 90 -144.91796875 79.91796875 -155 67.5 -155 c 0
 55.08203125 -155 45 -144.91796875 45 -132.5 c 2
 45 -87.5 l 1
 45 477.5 l 2
 45 489.91796875 34.91796875 500 22.5 500 c 0
EndSplineSet
Ligature2: "'liga' Standard Ligatures in Latin lookup 0 subtable" j j
EndChar

StartChar: q_j
Encoding: 65538 -1 108
Width: 270
VWidth: 824
Flags: HW
LayerCount: 2
Fore
SplineSet
202.5 590 m 0
 190.08203125 590 180 579.91796875 180 567.5 c 0
 180 555.08203125 190.08203125 545 202.5 545 c 0
 214.91796875 545 225 555.08203125 225 567.5 c 0
 225 579.91796875 214.91796875 590 202.5 590 c 0
67.5 500 m 0
 30.24609375 500 0 469.75390625 0 432.5 c 2
 0 67.5 l 2
 0 30.24609375 30.24609375 0 67.5 0 c 0
 79.91796875 0 90 -10.08203125 90 -22.5 c 2
 90 -132.5 l 2
 90 -169.75390625 120.24609375 -200 157.5 -200 c 0
 194.75390625 -200 225 -169.75390625 225 -132.5 c 2
 225 477.5 l 2
 225 489.91796875 214.91796875 500 202.5 500 c 0
 190.08203125 500 180 489.91796875 180 477.5 c 2
 180 -132.5 l 2
 180 -144.91796875 169.91796875 -155 157.5 -155 c 0
 145.08203125 -155 135 -144.91796875 135 -132.5 c 2
 135 432.5 l 2
 135 469.75390625 104.75390625 500 67.5 500 c 0
67.5 455 m 0
 79.91796875 455 90 444.91796875 90 432.5 c 2
 90 67.5 l 2
 90 55.08203125 79.91796875 45 67.5 45 c 0
 55.08203125 45 45 55.08203125 45 67.5 c 2
 45 432.5 l 2
 45 444.91796875 55.08203125 455 67.5 455 c 0
EndSplineSet
Ligature2: "'liga' Standard Ligatures in Latin lookup 0 subtable" q j
EndChar

StartChar: y_j
Encoding: 65539 -1 109
Width: 270
VWidth: 824
Flags: HW
LayerCount: 2
Fore
SplineSet
202.5 590 m 0
 190.08203125 590 180 579.91796875 180 567.5 c 0
 180 555.08203125 190.08203125 545 202.5 545 c 0
 214.91796875 545 225 555.08203125 225 567.5 c 0
 225 579.91796875 214.91796875 590 202.5 590 c 0
22.5 500 m 0
 10.08203125 500 0 489.91796875 0 477.5 c 2
 0 67.5 l 2
 0 30.24609375 30.24609375 0 67.5 0 c 0
 79.91796875 0 90 -10.08203125 90 -22.5 c 2
 90 -132.5 l 2
 90 -169.75390625 120.24609375 -200 157.5 -200 c 0
 194.75390625 -200 225 -169.75390625 225 -132.5 c 2
 225 477.5 l 2
 225 489.91796875 214.91796875 500 202.5 500 c 0
 190.08203125 500 180 489.91796875 180 477.5 c 2
 180 -132.5 l 2
 180 -144.91796875 169.91796875 -155 157.5 -155 c 0
 145.08203125 -155 135 -144.91796875 135 -132.5 c 2
 135 477.5 l 2
 135 489.91796875 124.91796875 500 112.5 500 c 0
 100.08203125 500 90 489.91796875 90 477.5 c 2
 90 67.5 l 2
 90 55.08203125 79.91796875 45 67.5 45 c 0
 55.08203125 45 45 55.08203125 45 67.5 c 2
 45 477.5 l 2
 45 489.91796875 34.91796875 500 22.5 500 c 0
EndSplineSet
Ligature2: "'liga' Standard Ligatures in Latin lookup 0 subtable" y j
EndChar

StartChar: parentheses_j
Encoding: 65540 -1 110
Width: 270
VWidth: 824
Flags: HW
LayerCount: 2
Fore
SplineSet
67.5 834.96875 m 1
 30.24609375 834.96875 0 804.72265625 0 767.46875 c 1
 0 -42.5 l 2
 -0 -79.75390625 30.24609375 -110 67.5 -110 c 0
 79.91796875 -110 90 -120.08203125 90 -132.5 c 0
 90 -169.75390625 120.24609375 -200 157.5 -200 c 0
 194.75390625 -200 225 -169.75390625 225 -132.5 c 2
 225 477.5 l 2
 225 489.91796875 214.91796875 500 202.5 500 c 0
 190.08203125 500 180 489.91796875 180 477.5 c 2
 180 -132.5 l 2
 180 -144.91796875 169.91796875 -155 157.5 -155 c 0
 145.08203125 -155 135 -144.91796875 135 -132.5 c 0
 135 -95.24609375 104.75390625 -65 67.5 -65 c 0
 55.08203125 -65 45 -54.91796875 45 -42.5 c 1
 45 767.46875 l 2
 45 779.88671875 55.08203125 789.96875 67.5 789.96875 c 0
 79.91796875 789.96875 90 779.88671875 90 767.46875 c 1
 90.001953125 767.46875 l 1
 90.01953125 755.06640625 100.09375 745.000976562 112.5 745 c 0
 124.90625 745.000976562 134.98046875 755.06640625 134.998046875 767.46875 c 1
 134.998046875 767.467773438 135 767.46875 135 767.46875 c 1
 134.999023438 767.473632812 134.999023438 767.479492188 134.998046875 767.484375 c 0
 134.999023438 767.489257812 134.999023438 767.495117188 135 767.5 c 0
 134.997070312 768.474609375 134.93359375 769.413085938 134.810546875 770.35546875 c 0
 133.276367188 806.209960938 103.712890625 834.900390625 67.5 834.96875 c 1
 67.5029296875 834.924804688 67.5 834.96875 67.5 834.96875 c 1
202.5 590 m 0
 190.08203125 590 180 579.91796875 180 567.5 c 0
 180 555.08203125 190.08203125 545 202.5 545 c 0
 214.91796875 545 225 555.08203125 225 567.5 c 0
 225 579.91796875 214.91796875 590 202.5 590 c 0
EndSplineSet
Ligature2: "'liga' Standard Ligatures lookup 0 subtable" parentheses_open j
EndChar

StartChar: f_b
Encoding: 65541 -1 111
Width: 270
VWidth: 824
Flags: HW
LayerCount: 2
Fore
SplineSet
67.5 700 m 0
 30.24609375 700 0 669.75390625 0 632.5 c 1
 0 567.5 l 2
 0 555.08203125 -10.08203125 545 -22.5 545 c 0
 -34.91796875 545 -45 534.91796875 -45 522.5 c 0
 -45 510.08203125 -34.91796875 500 -22.5 500 c 0
 -10.08203125 500 0 489.91796875 0 477.5 c 2
 0 22.5 l 2
 0 10.08203125 10.08203125 0 22.5 0 c 0
 34.91796875 0 45 10.08203125 45 22.5 c 2
 45 477.5 l 2
 45 489.91796875 55.08203125 500 67.5 500 c 0
 79.91796875 500 90 489.91796875 90 477.5 c 2
 90 67.5 l 2
 90 30.24609375 120.24609375 0 157.5 0 c 0
 194.75390625 0 225 30.24609375 225 67.5 c 2
 225 432.5 l 2
 225 469.75390625 194.75390625 500 157.5 500 c 0
 145.08203125 500 135 510.08203125 135 522.5 c 2
 135 632.5 l 2
 135 669.75390625 104.75390625 700 67.5 700 c 0
67.5 655 m 0
 79.91796875 655 90 644.91796875 90 632.5 c 2
 90 567.5 l 2
 90 555.08203125 79.91796875 545 67.5 545 c 0
 55.08203125 545 45 555.08203125 45 567.5 c 2
 45 632.5 l 2
 45 644.91796875 55.08203125 655 67.5 655 c 0
157.5 455 m 0
 169.91796875 455 180 444.91796875 180 432.5 c 2
 180 67.5 l 2
 180 55.08203125 169.91796875 45 157.5 45 c 0
 145.08203125 45 135 55.08203125 135 67.5 c 2
 135 432.5 l 2
 135 444.91796875 145.08203125 455 157.5 455 c 0
EndSplineSet
Ligature2: "'liga' Standard Ligatures in Latin lookup 0 subtable" f b
EndChar

StartChar: f_f
Encoding: 64256 64256 112
Width: 180
VWidth: 824
Flags: HW
LayerCount: 2
Fore
SplineSet
67.5 700 m 2
 30.24609375 700 0 669.75390625 0 632.5 c 2
 0 567.5 l 2
 0 555.08203125 -10.08203125 545 -22.5 545 c 0
 -34.91796875 545 -45 534.91796875 -45 522.5 c 0
 -45 510.08203125 -34.91796875 500 -22.5 500 c 0
 -10.08203125 500 0 489.91796875 0 477.5 c 2
 0 22.5 l 2
 0 10.08203125 10.08203125 0 22.5 0 c 0
 34.91796875 0 45 10.08203125 45 22.5 c 2
 45 477.5 l 2
 45 489.91796875 55.08203125 500 67.5 500 c 0
 79.91796875 500 90 489.91796875 90 477.5 c 2
 90 22.5 l 2
 90 10.08203125 100.08203125 0 112.5 0 c 0
 124.91796875 0 135 10.08203125 135 22.5 c 2
 135 477.5 l 2
 135 489.91796875 145.08203125 500 157.5 500 c 2
 180 500 l 2
 192.41796875 500 202.5 510.08203125 202.5 522.5 c 0
 202.5 534.91796875 192.41796875 545 180 545 c 2
 157.5 545 l 2
 145.08203125 545 135 555.08203125 135 567.5 c 2
 135 610 l 1
 135 632.5 l 2
 135 644.91796875 145.08203125 655 157.5 655 c 0
 169.91796875 655 180 644.91796875 180 632.5 c 2
 180 610 l 2
 180 597.58203125 190.08203125 587.5 202.5 587.5 c 0
 214.91796875 587.5 225 597.58203125 225 610 c 2
 225 632.5 l 2
 225 669.75390625 194.75390625 700 157.5 700 c 2
 67.5 700 l 2
67.5 655 m 0
 79.91796875 655 90 644.91796875 90 632.5 c 2
 90 610 l 1
 90 567.5 l 2
 90 555.08203125 79.91796875 545 67.5 545 c 0
 55.08203125 545 45 555.08203125 45 567.5 c 2
 45 632.5 l 2
 45 644.91796875 55.08203125 655 67.5 655 c 0
EndSplineSet
Ligature2: "'liga' Standard Ligatures in Latin lookup 0 subtable" f f
EndChar

StartChar: f_h
Encoding: 65542 -1 113
Width: 270
VWidth: 824
Flags: HW
LayerCount: 2
Fore
SplineSet
67.5 700 m 0
 30.24609375 700 0 669.75390625 0 632.5 c 1
 0 567.5 l 2
 0 555.08203125 -10.08203125 545 -22.5 545 c 0
 -34.91796875 545 -45 534.91796875 -45 522.5 c 0
 -45 510.08203125 -34.91796875 500 -22.5 500 c 0
 -10.08203125 500 0 489.91796875 0 477.5 c 2
 0 22.5 l 2
 0 10.08203125 10.08203125 0 22.5 0 c 0
 34.91796875 0 45 10.08203125 45 22.5 c 2
 45 477.5 l 2
 45 489.91796875 55.08203125 500 67.5 500 c 0
 79.91796875 500 90 489.91796875 90 477.5 c 2
 90 22.5 l 2
 90 10.08203125 100.08203125 0 112.5 0 c 0
 124.91796875 0 135 10.08203125 135 22.5 c 2
 135 432.5 l 2
 135 444.91796875 145.08203125 455 157.5 455 c 0
 169.91796875 455 180 444.91796875 180 432.5 c 2
 180 22.5 l 2
 180 10.08203125 190.08203125 0 202.5 0 c 0
 214.91796875 0 225 10.08203125 225 22.5 c 2
 225 432.5 l 2
 225 469.75390625 194.75390625 500 157.5 500 c 0
 145.08203125 500 135 510.08203125 135 522.5 c 2
 135 632.5 l 2
 135 669.75390625 104.75390625 700 67.5 700 c 0
67.5 655 m 0
 79.91796875 655 90 644.91796875 90 632.5 c 2
 90 567.5 l 2
 90 555.08203125 79.91796875 545 67.5 545 c 0
 55.08203125 545 45 555.08203125 45 567.5 c 1
 45 632.5 l 2
 45 644.91796875 55.08203125 655 67.5 655 c 0
EndSplineSet
Ligature2: "'liga' Standard Ligatures in Latin lookup 0 subtable" f h
EndChar

StartChar: f_k
Encoding: 65543 -1 114
Width: 270
VWidth: 824
Flags: HW
LayerCount: 2
Fore
SplineSet
67.5 700 m 0
 30.24609375 700 0 669.75390625 0 632.5 c 2
 0 567.5 l 2
 0 555.08203125 -10.08203125 545 -22.5 545 c 0
 -34.91796875 545 -45 534.91796875 -45 522.5 c 0
 -45 510.08203125 -34.91796875 500 -22.5 500 c 0
 -10.08203125 500 0 489.91796875 0 477.5 c 2
 0 22.5 l 2
 0 10.08203125 10.08203125 0 22.5 0 c 0
 34.91796875 0 45 10.08203125 45 22.5 c 2
 45 477.5 l 2
 45 489.91796875 55.08203125 500 67.5 500 c 0
 79.91796875 500 90 489.91796875 90 477.5 c 2
 90 22.5 l 2
 90 10.08203125 100.08203125 0 112.5 0 c 0
 124.91796875 0 135 10.08203125 135 22.5 c 2
 135 205 l 2
 135 217.41796875 145.08203125 227.5 157.5 227.5 c 0
 169.91796875 227.5 180 217.41796875 180 205 c 2
 180 22.5 l 2
 180 10.08203125 190.08203125 0 202.5 0 c 0
 214.91796875 0 225 10.08203125 225 22.5 c 2
 225 205 l 2
 225 242.25390625 194.75390625 272.5 157.5 272.5 c 0
 145.08203125 272.5 135 282.58203125 135 295 c 0
 135 307.41796875 145.08203125 317.5 157.5 317.5 c 0
 194.75390625 317.5 225 347.74609375 225 385 c 2
 225 477.5 l 2
 225 489.91796875 214.91796875 500 202.5 500 c 0
 190.08203125 500 180 489.91796875 180 477.5 c 2
 180 385 l 2
 180 372.58203125 169.91796875 362.5 157.5 362.5 c 0
 145.08203125 362.5 135 372.58203125 135 385 c 2
 135 632.5 l 2
 135 669.75390625 104.75390625 700 67.5 700 c 0
67.5 655 m 0
 79.91796875 655 90 644.91796875 90 632.5 c 2
 90 567.5 l 2
 90 555.08203125 79.91796875 545 67.5 545 c 0
 55.08203125 545 45 555.08203125 45 567.5 c 2
 45 632.5 l 2
 45 644.91796875 55.08203125 655 67.5 655 c 0
EndSplineSet
Ligature2: "'liga' Standard Ligatures in Latin lookup 0 subtable" f k
EndChar

StartChar: f_l
Encoding: 64258 64258 115
Width: 180
VWidth: 824
Flags: HW
LayerCount: 2
Fore
SplineSet
67.5 700 m 0
 30.24609375 700 0 669.75390625 0 632.5 c 2
 0 567.5 l 2
 0 555.08203125 -10.08203125 545 -22.5 545 c 0
 -34.91796875 545 -45 534.91796875 -45 522.5 c 0
 -45 510.08203125 -34.91796875 500 -22.5 500 c 0
 -10.08203125 500 0 489.91796875 0 477.5 c 1
 0 22.5 l 2
 0 10.08203125 10.08203125 0 22.5 0 c 0
 34.91796875 0 45 10.08203125 45 22.5 c 2
 45 477.5 l 2
 45 489.91796875 55.08203125 500 67.5 500 c 0
 79.91796875 500 90 489.91796875 90 477.5 c 2
 90 22.5 l 2
 90 10.08203125 100.08203125 0 112.5 0 c 0
 124.91796875 0 135 10.08203125 135 22.5 c 2
 135 632.5 l 2
 135 669.75390625 104.75390625 700 67.5 700 c 0
67.5 655 m 0
 79.91796875 655 90 644.91796875 90 632.5 c 2
 90 567.5 l 2
 90 555.08203125 79.91796875 545 67.5 545 c 0
 55.08203125 545 45 555.08203125 45 567.5 c 2
 45 632.5 l 2
 45 644.91796875 55.08203125 655 67.5 655 c 0
EndSplineSet
Ligature2: "'liga' Standard Ligatures in Latin lookup 0 subtable" f l
EndChar

StartChar: d_f
Encoding: 65544 -1 116
Width: 270
VWidth: 824
Flags: HW
LayerCount: 2
Fore
SplineSet
112.5 700 m 0
 100.08203125 700 90 689.91796875 90 677.5 c 2
 90 522.5 l 2
 90 510.08203125 79.91796875 500 67.5 500 c 0
 30.24609375 500 0 469.75390625 0 432.5 c 2
 0 67.5 l 2
 0 30.24609375 30.24609375 0 67.5 0 c 0
 104.75390625 0 135 30.24609375 135 67.5 c 2
 135 477.5 l 2
 135 489.91796875 145.08203125 500 157.5 500 c 0
 169.91796875 500 180 489.91796875 180 477.5 c 2
 180 22.5 l 2
 180 10.08203125 190.08203125 0 202.5 0 c 0
 214.91796875 0 225 10.08203125 225 22.5 c 2
 225 477.5 l 2
 225 489.91796875 235.08203125 500 247.5 500 c 2
 270 500 l 2
 282.41796875 500 292.5 510.08203125 292.5 522.5 c 0
 292.5 534.91796875 282.41796875 545 270 545 c 2
 247.5 545 l 2
 235.08203125 545 225 555.08203125 225 567.5 c 2
 225 632.5 l 2
 225 644.91796875 235.08203125 655 247.5 655 c 0
 259.91796875 655 270 644.91796875 270 632.5 c 2
 270 610 l 2
 270 597.58203125 280.08203125 587.5 292.5 587.5 c 0
 304.91796875 587.5 315 597.58203125 315 610 c 2
 315 632.5 l 2
 315 669.75390625 284.75390625 700 247.5 700 c 0
 210.24609375 700 180 669.75390625 180 632.5 c 2
 180 567.5 l 2
 180 555.08203125 169.91796875 545 157.5 545 c 0
 145.08203125 545 135 555.08203125 135 567.5 c 2
 135 677.5 l 2
 135 689.91796875 124.91796875 700 112.5 700 c 0
67.5 455 m 0
 79.91796875 455 90 444.91796875 90 432.5 c 2
 90 67.5 l 2
 90 55.08203125 79.91796875 45 67.5 45 c 0
 55.08203125 45 45 55.08203125 45 67.5 c 2
 45 432.5 l 2
 45 444.91796875 55.08203125 455 67.5 455 c 0
EndSplineSet
Ligature2: "'liga' Standard Ligatures in Latin lookup 0 subtable" d f
EndChar

StartChar: d_f_b
Encoding: 65545 -1 117
Width: 450
VWidth: 824
Flags: HW
LayerCount: 2
Fore
SplineSet
112.5 700 m 0
 100.08203125 700 90 689.91796875 90 677.5 c 1
 90 522.5 l 2
 90 510.08203125 79.91796875 500 67.5 500 c 0
 30.24609375 500 0 469.75390625 0 432.5 c 1
 0 67.5 l 2
 0 30.24609375 30.24609375 0 67.5 0 c 0
 104.75390625 0 135 30.24609375 135 67.5 c 1
 135 477.5 l 2
 135 489.91796875 145.08203125 500 157.5 500 c 0
 169.91796875 500 180 489.91796875 180 477.5 c 2
 180 22.5 l 2
 180 10.08203125 190.08203125 0 202.5 0 c 0
 214.91796875 0 225 10.08203125 225 22.5 c 2
 225 477.5 l 2
 225 489.91796875 235.08203125 500 247.5 500 c 0
 259.91796875 500 270 489.91796875 270 477.5 c 2
 270 67.5 l 2
 270 30.24609375 300.24609375 0 337.5 0 c 0
 374.75390625 0 405 30.24609375 405 67.5 c 2
 405 432.5 l 2
 405 469.75390625 374.75390625 500 337.5 500 c 0
 325.08203125 500 315 510.08203125 315 522.5 c 2
 315 632.5 l 2
 315 669.75390625 284.75390625 700 247.5 700 c 0
 210.24609375 700 180 669.75390625 180 632.5 c 2
 180 567.5 l 2
 180 555.08203125 169.91796875 545 157.5 545 c 0
 145.08203125 545 135 555.08203125 135 567.5 c 2
 135 677.5 l 2
 135 689.91796875 124.91796875 700 112.5 700 c 0
247.5 655 m 0
 259.91796875 655 270 644.91796875 270 632.5 c 2
 270 567.5 l 2
 270 555.08203125 259.91796875 545 247.5 545 c 0
 235.08203125 545 225 555.08203125 225 567.5 c 2
 225 632.5 l 2
 225 644.91796875 235.08203125 655 247.5 655 c 0
67.5 455 m 0
 79.91796875 455 90 444.91796875 90 432.5 c 2
 90 67.5 l 2
 90 55.08203125 79.91796875 45 67.5 45 c 0
 55.08203125 45 45 55.08203125 45 67.5 c 2
 45 432.5 l 2
 45 444.91796875 55.08203125 455 67.5 455 c 0
337.5 455 m 0
 349.91796875 455 360 444.91796875 360 432.5 c 2
 360 67.5 l 2
 360 55.08203125 349.91796875 45 337.5 45 c 0
 325.08203125 45 315 55.08203125 315 67.5 c 2
 315 432.5 l 2
 315 444.91796875 325.08203125 455 337.5 455 c 0
EndSplineSet
Ligature2: "'liga' Standard Ligatures in Latin lookup 0 subtable" d f b
EndChar

StartChar: d_f_f
Encoding: 65546 -1 118
Width: 360
VWidth: 824
Flags: HW
LayerCount: 2
Fore
SplineSet
112.5 700 m 0
 100.08203125 700 90 689.91796875 90 677.5 c 1
 90 522.5 l 2
 90 510.08203125 79.91796875 500 67.5 500 c 0
 30.24609375 500 0 469.75390625 0 432.5 c 2
 0 67.5 l 2
 0 30.24609375 30.24609375 0 67.5 0 c 0
 104.75390625 0 135 30.24609375 135 67.5 c 2
 135 477.5 l 2
 135 489.91796875 145.08203125 500 157.5 500 c 0
 169.91796875 500 180 489.91796875 180 477.5 c 2
 180 22.5 l 2
 180 10.08203125 190.08203125 0 202.5 0 c 0
 214.91796875 0 225 10.08203125 225 22.5 c 2
 225 477.5 l 2
 225 489.91796875 235.08203125 500 247.5 500 c 0
 259.91796875 500 270 489.91796875 270 477.5 c 2
 270 22.5 l 2
 270 10.08203125 280.08203125 0 292.5 0 c 0
 304.91796875 0 315 10.08203125 315 22.5 c 2
 315 477.5 l 2
 315 489.91796875 325.08203125 500 337.5 500 c 2
 360 500 l 2
 372.41796875 500 382.5 510.08203125 382.5 522.5 c 0
 382.5 534.91796875 372.41796875 545 360 545 c 2
 337.5 545 l 2
 325.08203125 545 315 555.08203125 315 567.5 c 2
 315 610 l 1
 315 632.5 l 2
 315 644.91796875 325.08203125 655 337.5 655 c 0
 349.91796875 655 360 644.91796875 360 632.5 c 2
 360 610 l 2
 360 597.58203125 370.08203125 587.5 382.5 587.5 c 0
 394.91796875 587.5 405 597.58203125 405 610 c 2
 405 632.5 l 2
 405 669.75390625 374.75390625 700 337.5 700 c 2
 247.5 700 l 2
 210.24609375 700 180 669.75390625 180 632.5 c 2
 180 567.5 l 2
 180 555.08203125 169.91796875 545 157.5 545 c 0
 145.08203125 545 135 555.08203125 135 567.5 c 2
 135 677.5 l 2
 135 689.91796875 124.91796875 700 112.5 700 c 0
247.5 655 m 0
 259.91796875 655 270 644.91796875 270 632.5 c 2
 270 610 l 1
 270 567.5 l 2
 270 555.08203125 259.91796875 545 247.5 545 c 0
 235.08203125 545 225 555.08203125 225 567.5 c 2
 225 632.5 l 2
 225 644.91796875 235.08203125 655 247.5 655 c 0
67.5 455 m 0
 79.91796875 455 90 444.91796875 90 432.5 c 2
 90 67.5 l 2
 90 55.08203125 79.91796875 45 67.5 45 c 0
 55.08203125 45 45 55.08203125 45 67.5 c 2
 45 432.5 l 2
 45 444.91796875 55.08203125 455 67.5 455 c 0
EndSplineSet
Ligature2: "'liga' Standard Ligatures in Latin lookup 0 subtable" d f f
EndChar

StartChar: d_f_h
Encoding: 65547 -1 119
Width: 450
VWidth: 824
Flags: HW
LayerCount: 2
Fore
SplineSet
112.5 700 m 0
 100.08203125 700 90 689.91796875 90 677.5 c 1
 90 522.5 l 2
 90 510.08203125 79.91796875 500 67.5 500 c 0
 30.24609375 500 0 469.75390625 0 432.5 c 1
 0 67.5 l 2
 0 30.24609375 30.24609375 0 67.5 0 c 0
 104.75390625 0 135 30.24609375 135 67.5 c 1
 135 477.5 l 2
 135 489.91796875 145.08203125 500 157.5 500 c 0
 169.91796875 500 180 489.91796875 180 477.5 c 2
 180 22.5 l 2
 180 10.08203125 190.08203125 0 202.5 0 c 0
 214.91796875 0 225 10.08203125 225 22.5 c 2
 225 477.5 l 2
 225 489.91796875 235.08203125 500 247.5 500 c 0
 259.91796875 500 270 489.91796875 270 477.5 c 2
 270 22.5 l 2
 270 10.08203125 280.08203125 0 292.5 0 c 0
 304.91796875 0 315 10.08203125 315 22.5 c 2
 315 432.5 l 2
 315 444.91796875 325.08203125 455 337.5 455 c 0
 349.91796875 455 360 444.91796875 360 432.5 c 2
 360 22.5 l 2
 360 10.08203125 370.08203125 0 382.5 0 c 0
 394.91796875 0 405 10.08203125 405 22.5 c 2
 405 432.5 l 2
 405 469.75390625 374.75390625 500 337.5 500 c 0
 325.08203125 500 315 510.08203125 315 522.5 c 2
 315 632.5 l 2
 315 669.75390625 284.75390625 700 247.5 700 c 0
 210.24609375 700 180 669.75390625 180 632.5 c 2
 180 567.5 l 2
 180 555.08203125 169.91796875 545 157.5 545 c 0
 145.08203125 545 135 555.08203125 135 567.5 c 2
 135 677.5 l 2
 135 689.91796875 124.91796875 700 112.5 700 c 0
247.5 655 m 0
 259.91796875 655 270 644.91796875 270 632.5 c 2
 270 567.5 l 2
 270 555.08203125 259.91796875 545 247.5 545 c 0
 235.08203125 545 225 555.08203125 225 567.5 c 2
 225 632.5 l 2
 225 644.91796875 235.08203125 655 247.5 655 c 0
67.5 455 m 0
 79.91796875 455 90 444.91796875 90 432.5 c 2
 90 67.5 l 2
 90 55.08203125 79.91796875 45 67.5 45 c 0
 55.08203125 45 45 55.08203125 45 67.5 c 1
 45 432.5 l 2
 45 444.91796875 55.08203125 455 67.5 455 c 0
EndSplineSet
Ligature2: "'liga' Standard Ligatures in Latin lookup 0 subtable" d f h
EndChar

StartChar: d_f_k
Encoding: 65548 -1 120
Width: 450
VWidth: 824
Flags: HW
LayerCount: 2
Fore
SplineSet
112.5 700 m 0
 100.08203125 700 90 689.91796875 90 677.5 c 2
 90 522.5 l 2
 90 510.08203125 79.91796875 500 67.5 500 c 0
 30.24609375 500 0 469.75390625 0 432.5 c 2
 0 67.5 l 2
 0 30.24609375 30.24609375 0 67.5 0 c 0
 104.75390625 0 135 30.24609375 135 67.5 c 2
 135 477.5 l 2
 135 489.91796875 145.08203125 500 157.5 500 c 0
 169.91796875 500 180 489.91796875 180 477.5 c 2
 180 22.5 l 2
 180 10.08203125 190.08203125 0 202.5 0 c 0
 214.91796875 0 225 10.08203125 225 22.5 c 2
 225 477.5 l 2
 225 489.91796875 235.08203125 500 247.5 500 c 0
 259.91796875 500 270 489.91796875 270 477.5 c 2
 270 22.5 l 2
 270 10.08203125 280.08203125 0 292.5 0 c 0
 304.91796875 0 315 10.08203125 315 22.5 c 2
 315 205 l 2
 315 217.41796875 325.08203125 227.5 337.5 227.5 c 0
 349.91796875 227.5 360 217.41796875 360 205 c 2
 360 22.5 l 2
 360 10.08203125 370.08203125 0 382.5 0 c 0
 394.91796875 0 405 10.08203125 405 22.5 c 2
 405 205 l 2
 405 242.25390625 374.75390625 272.5 337.5 272.5 c 0
 325.08203125 272.5 315 282.58203125 315 295 c 0
 315 307.41796875 325.08203125 317.5 337.5 317.5 c 0
 374.75390625 317.5 405 347.74609375 405 385 c 2
 405 477.5 l 2
 405 489.91796875 394.91796875 500 382.5 500 c 0
 370.08203125 500 360 489.91796875 360 477.5 c 2
 360 385 l 2
 360 372.58203125 349.91796875 362.5 337.5 362.5 c 0
 325.08203125 362.5 315 372.58203125 315 385 c 2
 315 632.5 l 2
 315 669.75390625 284.75390625 700 247.5 700 c 0
 210.24609375 700 180 669.75390625 180 632.5 c 2
 180 567.5 l 2
 180 555.08203125 169.91796875 545 157.5 545 c 0
 145.08203125 545 135 555.08203125 135 567.5 c 2
 135 677.5 l 2
 135 689.91796875 124.91796875 700 112.5 700 c 0
247.5 655 m 0
 259.91796875 655 270 644.91796875 270 632.5 c 2
 270 567.5 l 2
 270 555.08203125 259.91796875 545 247.5 545 c 0
 235.08203125 545 225 555.08203125 225 567.5 c 2
 225 632.5 l 2
 225 644.91796875 235.08203125 655 247.5 655 c 0
67.5 455 m 0
 79.91796875 455 90 444.91796875 90 432.5 c 2
 90 67.5 l 2
 90 55.08203125 79.91796875 45 67.5 45 c 0
 55.08203125 45 45 55.08203125 45 67.5 c 2
 45 432.5 l 2
 45 444.91796875 55.08203125 455 67.5 455 c 0
EndSplineSet
Ligature2: "'liga' Standard Ligatures in Latin lookup 0 subtable" d f k
EndChar

StartChar: d_f_l
Encoding: 65549 -1 121
Width: 360
VWidth: 824
Flags: HW
LayerCount: 2
Fore
SplineSet
112.5 700 m 0
 100.08203125 700 90 689.91796875 90 677.5 c 2
 90 522.5 l 2
 90 510.08203125 79.91796875 500 67.5 500 c 0
 30.24609375 500 0 469.75390625 0 432.5 c 2
 0 67.5 l 2
 0 30.24609375 30.24609375 0 67.5 0 c 0
 104.75390625 0 135 30.24609375 135 67.5 c 2
 135 477.5 l 2
 135 489.91796875 145.08203125 500 157.5 500 c 0
 169.91796875 500 180 489.91796875 180 477.5 c 2
 180 22.5 l 2
 180 10.08203125 190.08203125 0 202.5 0 c 0
 214.91796875 0 225 10.08203125 225 22.5 c 2
 225 477.5 l 2
 225 489.91796875 235.08203125 500 247.5 500 c 0
 259.91796875 500 270 489.91796875 270 477.5 c 2
 270 22.6484375 l 1
 270.009765625 22.6484375 l 1
 270.006835938 22.5986328125 270.002929688 22.5498046875 270 22.5 c 0
 270 10.08203125 280.08203125 0 292.5 0 c 0
 304.91796875 0 315 10.08203125 315 22.5 c 0
 314.999023438 22.5498046875 314.997070312 22.5986328125 314.99609375 22.6484375 c 0
 314.99609375 22.650390625 315 22.6484375 315 22.6484375 c 1
 315 632.5 l 2
 315 669.75390625 284.75390625 700 247.5 700 c 0
 210.24609375 700 180 669.75390625 180 632.5 c 2
 180 567.5 l 2
 180 555.08203125 169.91796875 545 157.5 545 c 0
 145.08203125 545 135 555.08203125 135 567.5 c 2
 135 677.5 l 2
 135 689.91796875 124.91796875 700 112.5 700 c 0
247.5 655 m 0
 259.91796875 655 270 644.91796875 270 632.5 c 2
 270 567.5 l 2
 270 555.08203125 259.91796875 545 247.5 545 c 0
 235.08203125 545 225 555.08203125 225 567.5 c 2
 225 632.5 l 2
 225 644.91796875 235.08203125 655 247.5 655 c 0
67.5 455 m 0
 79.91796875 455 90 444.91796875 90 432.5 c 2
 90 67.5 l 2
 90 55.08203125 79.91796875 45 67.5 45 c 0
 55.08203125 45 45 55.08203125 45 67.5 c 2
 45 432.5 l 2
 45 444.91796875 55.08203125 455 67.5 455 c 0
EndSplineSet
Ligature2: "'liga' Standard Ligatures in Latin lookup 0 subtable" d f l
EndChar

StartChar: f_i
Encoding: 64257 64257 122
Width: 180
VWidth: 824
Flags: HW
LayerCount: 2
Fore
SplineSet
67.5 700 m 0
 30.24609375 700 -0 669.75390625 -0 632.5 c 1
 -0 567.5 l 2
 -0 555.08203125 -10.08203125 545 -22.5 545 c 0
 -34.91796875 545 -45 534.91796875 -45 522.5 c 0
 -45 510.08203125 -34.91796875 500 -22.5 500 c 0
 -10.08203125 500 -0 489.91796875 -0 477.5 c 1
 -0 22.5 l 2
 -0 10.08203125 10.08203125 0 22.5 0 c 0
 34.91796875 0 45 10.08203125 45 22.5 c 1
 45 477.5 l 2
 45 489.91796875 55.08203125 500 67.5 500 c 0
 79.91796875 500 90 510.08203125 90 522.5 c 0
 90 534.91796875 79.91796875 545 67.5 545 c 0
 55.08203125 545 45 555.08203125 45 567.5 c 2
 45 632.5 l 2
 45 644.91796875 55.08203125 655 67.5 655 c 0
 79.91796875 655 90 644.91796875 90 632.5 c 2
 90 587.5 l 2
 90 575.08203125 100.08203125 565 112.5 565 c 0
 124.91796875 565 135 575.08203125 135 587.5 c 2
 135 632.5 l 2
 135 669.75390625 104.75390625 700 67.5 700 c 0
112.5 500 m 0
 100.08203125 500 90 489.91796875 90 477.5 c 2
 90 22.5 l 2
 90 10.08203125 100.08203125 0 112.5 0 c 0
 124.91796875 0 135 10.08203125 135 22.5 c 2
 135 477.5 l 2
 135 489.91796875 124.91796875 500 112.5 500 c 0
EndSplineSet
Ligature2: "'liga' Standard Ligatures in Latin lookup 0 subtable" f i
EndChar

StartChar: f_j
Encoding: 65550 -1 123
Width: 180
VWidth: 824
Flags: HW
LayerCount: 2
Fore
SplineSet
67.5 700 m 0
 30.24609375 700 0 669.75390625 0 632.5 c 2
 0 567.5 l 2
 0 555.08203125 -10.08203125 545 -22.5 545 c 0
 -34.91796875 545 -45 534.91796875 -45 522.5 c 0
 -45 510.08203125 -34.91796875 500 -22.5 500 c 0
 -10.08203125 500 0 489.91796875 0 477.5 c 2
 0 22.5 l 2
 0 10.08203125 10.08203125 0 22.5 0 c 0
 34.91796875 0 45 10.08203125 45 22.5 c 2
 45 477.5 l 2
 45 489.91796875 55.08203125 500 67.5 500 c 0
 79.91796875 500 90 510.08203125 90 522.5 c 0
 90 534.91796875 79.91796875 545 67.5 545 c 0
 55.08203125 545 45 555.08203125 45 567.5 c 2
 45 632.5 l 2
 45 644.91796875 55.08203125 655 67.5 655 c 0
 79.91796875 655 90 644.91796875 90 632.5 c 1
 90 587.5 l 2
 90 575.08203125 100.08203125 565 112.5 565 c 0
 124.91796875 565 135 575.08203125 135 587.5 c 2
 135 632.5 l 2
 135 669.75390625 104.75390625 700 67.5 700 c 0
112.5 500 m 0
 100.08203125 500 90 489.91796875 90 477.5 c 1
 90 -132.5 l 2
 90 -144.91796875 79.91796875 -155 67.5 -155 c 0
 55.08203125 -155 45 -144.91796875 45 -132.5 c 2
 45 -87.5 l 2
 45 -75.08203125 34.91796875 -65 22.5 -65 c 0
 10.08203125 -65 0 -75.08203125 0 -87.5 c 2
 0 -132.5 l 2
 0 -169.75390625 30.24609375 -200 67.5 -200 c 0
 104.75390625 -200 135 -169.75390625 135 -132.5 c 2
 135 477.5 l 2
 135 489.91796875 124.91796875 500 112.5 500 c 0
EndSplineSet
Ligature2: "'liga' Standard Ligatures in Latin lookup 0 subtable" f j
EndChar

StartChar: d_f_i
Encoding: 65551 -1 124
Width: 360
VWidth: 824
Flags: HW
LayerCount: 2
Fore
SplineSet
112.5 700 m 0
 100.08203125 700 90 689.91796875 90 677.5 c 2
 90 522.5 l 2
 90 510.08203125 79.91796875 500 67.5 500 c 0
 30.24609375 500 0 469.75390625 0 432.5 c 2
 0 67.5 l 2
 0 30.24609375 30.24609375 0 67.5 0 c 0
 104.75390625 0 135 30.24609375 135 67.5 c 2
 135 477.5 l 2
 135 489.91796875 145.08203125 500 157.5 500 c 0
 169.91796875 500 180 489.91796875 180 477.5 c 2
 180 22.5 l 2
 180 10.08203125 190.08203125 0 202.5 0 c 0
 214.91796875 0 225 10.08203125 225 22.5 c 2
 225 477.5 l 2
 225 489.91796875 235.08203125 500 247.5 500 c 0
 259.91796875 500 270 510.08203125 270 522.5 c 0
 270 534.91796875 259.91796875 545 247.5 545 c 0
 235.08203125 545 225 555.08203125 225 567.5 c 2
 225 632.5 l 2
 225 644.91796875 235.08203125 655 247.5 655 c 0
 259.91796875 655 270 644.91796875 270 632.5 c 2
 270 587.5 l 2
 270 575.08203125 280.08203125 565 292.5 565 c 0
 304.91796875 565 315 575.08203125 315 587.5 c 2
 315 632.5 l 2
 315 669.75390625 284.75390625 700 247.5 700 c 0
 210.24609375 700 180 669.75390625 180 632.5 c 2
 180 567.5 l 2
 180 555.08203125 169.91796875 545 157.5 545 c 0
 145.08203125 545 135 555.08203125 135 567.5 c 2
 135 677.5 l 2
 135 689.91796875 124.91796875 700 112.5 700 c 0
292.5 500 m 0
 280.08203125 500 270 489.91796875 270 477.5 c 2
 270 22.5 l 2
 270 10.08203125 280.08203125 0 292.5 0 c 0
 304.91796875 0 315 10.08203125 315 22.5 c 2
 315 477.5 l 2
 315 489.91796875 304.91796875 500 292.5 500 c 0
67.5 455 m 0
 79.91796875 455 90 444.91796875 90 432.5 c 2
 90 67.5 l 2
 90 55.08203125 79.91796875 45 67.5 45 c 0
 55.08203125 45 45 55.08203125 45 67.5 c 2
 45 432.5 l 2
 45 444.91796875 55.08203125 455 67.5 455 c 0
EndSplineSet
Ligature2: "'liga' Standard Ligatures in Latin lookup 0 subtable" d f i
EndChar

StartChar: d_f_j
Encoding: 65552 -1 125
Width: 360
VWidth: 824
Flags: HW
LayerCount: 2
Fore
SplineSet
112.5 700 m 0
 100.08203125 700 90 689.91796875 90 677.5 c 2
 90 522.5 l 2
 90 510.08203125 79.91796875 500 67.5 500 c 0
 30.24609375 500 0 469.75390625 0 432.5 c 2
 0 67.5 l 2
 0 30.24609375 30.24609375 0 67.5 0 c 0
 104.75390625 0 135 30.24609375 135 67.5 c 2
 135 477.5 l 2
 135 489.91796875 145.08203125 500 157.5 500 c 0
 169.91796875 500 180 489.91796875 180 477.5 c 2
 180 22.5 l 2
 180 10.08203125 190.08203125 0 202.5 0 c 0
 214.91796875 0 225 10.08203125 225 22.5 c 2
 225 477.5 l 2
 225 489.91796875 235.08203125 500 247.5 500 c 0
 259.91796875 500 270 510.08203125 270 522.5 c 0
 270 534.91796875 259.91796875 545 247.5 545 c 0
 235.08203125 545 225 555.08203125 225 567.5 c 2
 225 632.5 l 2
 225 644.91796875 235.08203125 655 247.5 655 c 0
 259.91796875 655 270 644.91796875 270 632.5 c 2
 270 587.5 l 2
 270 575.08203125 280.08203125 565 292.5 565 c 0
 304.91796875 565 315 575.08203125 315 587.5 c 2
 315 632.5 l 2
 315 669.75390625 284.75390625 700 247.5 700 c 0
 210.24609375 700 180 669.75390625 180 632.5 c 2
 180 567.5 l 2
 180 555.08203125 169.91796875 545 157.5 545 c 0
 145.08203125 545 135 555.08203125 135 567.5 c 2
 135 677.5 l 2
 135 689.91796875 124.91796875 700 112.5 700 c 0
292.5 500 m 0
 280.08203125 500 270 489.91796875 270 477.5 c 2
 270 -132.5 l 2
 270 -144.91796875 259.91796875 -155 247.5 -155 c 0
 235.08203125 -155 225 -144.91796875 225 -132.5 c 2
 225 -87.5 l 2
 225 -75.08203125 214.91796875 -65 202.5 -65 c 0
 190.08203125 -65 180 -75.08203125 180 -87.5 c 2
 180 -132.5 l 2
 180 -169.75390625 210.24609375 -200 247.5 -200 c 0
 284.75390625 -200 315 -169.75390625 315 -132.5 c 2
 315 477.5 l 2
 315 489.91796875 304.91796875 500 292.5 500 c 0
67.5 455 m 0
 79.91796875 455 90 444.91796875 90 432.5 c 2
 90 67.5 l 2
 90 55.08203125 79.91796875 45 67.5 45 c 0
 55.08203125 45 45 55.08203125 45 67.5 c 2
 45 432.5 l 2
 45 444.91796875 55.08203125 455 67.5 455 c 0
EndSplineSet
Ligature2: "'liga' Standard Ligatures in Latin lookup 0 subtable" d f j
EndChar

StartChar: f_t
Encoding: 64261 64261 126
Width: 190
VWidth: 824
Flags: HW
LayerCount: 2
Fore
SplineSet
67.5 700 m 0
 30.24609375 700 0 669.75390625 0 632.5 c 2
 0 567.5 l 2
 0 555.08203125 -10.08203125 545 -22.5 545 c 0
 -34.91796875 545 -45 534.91796875 -45 522.5 c 0
 -45 510.08203125 -34.91796875 500 -22.5 500 c 0
 -10.08203125 500 0 489.91796875 0 477.5 c 2
 0 22.5 l 2
 0 10.08203125 10.08203125 0 22.5 0 c 0
 34.91796875 0 45 10.08203125 45 22.5 c 2
 45 477.5 l 2
 45 489.91796875 55.08203125 500 67.5 500 c 0
 79.91796875 500 90 489.91796875 90 477.5 c 2
 90 22.5 l 2
 90 10.08203125 100.08203125 0 112.5 0 c 0
 124.91796875 0 135 10.08203125 135 22.5 c 2
 135 477.5 l 2
 135 489.91796875 145.08203125 500 157.5 500 c 0
 169.91796875 500 180 510.08203125 180 522.5 c 0
 180 534.91796875 169.91796875 545 157.5 545 c 0
 145.08203125 545 135 555.08203125 135 567.5 c 2
 135 632.5 l 2
 135 669.75390625 104.75390625 700 67.5 700 c 0
67.5 655 m 0
 79.91796875 655 90 644.91796875 90 632.5 c 2
 90 567.5 l 2
 90 555.08203125 79.91796875 545 67.5 545 c 0
 55.08203125 545 45 555.08203125 45 567.5 c 2
 45 632.5 l 2
 45 644.91796875 55.08203125 655 67.5 655 c 0
EndSplineSet
Ligature2: "'liga' Standard Ligatures in Latin lookup 0 subtable" f t
EndChar

StartChar: d_f_t
Encoding: 65553 -1 127
Width: 360
VWidth: 824
Flags: HW
LayerCount: 2
Fore
SplineSet
112.5 700 m 0
 100.08203125 700 90 689.91796875 90 677.5 c 2
 90 522.5 l 2
 90 510.08203125 79.91796875 500 67.5 500 c 0
 30.24609375 500 0 469.75390625 0 432.5 c 2
 0 67.5 l 2
 0 30.24609375 30.24609375 0 67.5 0 c 0
 104.75390625 0 135 30.24609375 135 67.5 c 2
 135 477.5 l 2
 135 489.91796875 145.08203125 500 157.5 500 c 0
 169.91796875 500 180 489.91796875 180 477.5 c 2
 180 22.5 l 2
 180 10.08203125 190.08203125 0 202.5 0 c 0
 214.91796875 0 225 10.08203125 225 22.5 c 2
 225 477.5 l 2
 225 489.91796875 235.08203125 500 247.5 500 c 0
 259.91796875 500 270 489.91796875 270 477.5 c 2
 270 22.5 l 2
 270 10.08203125 280.08203125 0 292.5 0 c 0
 304.91796875 0 315 10.08203125 315 22.5 c 2
 315 477.5 l 2
 315 489.91796875 325.08203125 500 337.5 500 c 0
 349.91796875 500 360 510.08203125 360 522.5 c 0
 360 534.91796875 349.91796875 545 337.5 545 c 0
 325.08203125 545 315 555.08203125 315 567.5 c 2
 315 632.5 l 2
 315 669.75390625 284.75390625 700 247.5 700 c 0
 210.24609375 700 180 669.75390625 180 632.5 c 2
 180 567.5 l 2
 180 555.08203125 169.91796875 545 157.5 545 c 0
 145.08203125 545 135 555.08203125 135 567.5 c 2
 135 677.5 l 2
 135 689.91796875 124.91796875 700 112.5 700 c 0
247.5 655 m 0
 259.91796875 655 270 644.91796875 270 632.5 c 2
 270 567.5 l 2
 270 555.08203125 259.91796875 545 247.5 545 c 0
 235.08203125 545 225 555.08203125 225 567.5 c 2
 225 632.5 l 2
 225 644.91796875 235.08203125 655 247.5 655 c 0
67.5 455 m 0
 79.91796875 455 90 444.91796875 90 432.5 c 2
 90 67.5 l 2
 90 55.08203125 79.91796875 45 67.5 45 c 0
 55.08203125 45 45 55.08203125 45 67.5 c 2
 45 432.5 l 2
 45 444.91796875 55.08203125 455 67.5 455 c 0
EndSplineSet
Ligature2: "'liga' Standard Ligatures in Latin lookup 0 subtable" d f t
EndChar

StartChar: d_b
Encoding: 65554 -1 128
Width: 270
VWidth: 824
Flags: HW
LayerCount: 2
Fore
SplineSet
22.5 700 m 0
 10.08203125 700 0 689.91796875 0 677.5 c 2
 0 567.5 l 2
 0 555.08203125 -10.08203125 545 -22.5 545 c 0
 -34.91796875 545 -45 534.91796875 -45 522.5 c 0
 -45 510.08203125 -34.91796875 500 -22.5 500 c 0
 -10.08203125 500 0 489.91796875 0 477.5 c 1
 0 22.5 l 2
 0 10.08203125 10.08203125 0 22.5 0 c 0
 34.91796875 0 45 10.08203125 45 22.5 c 2
 45 477.5 l 2
 45 489.91796875 55.08203125 500 67.5 500 c 0
 79.91796875 500 90 489.91796875 90 477.5 c 2
 90 67.5 l 2
 90 30.24609375 120.24609375 0 157.5 0 c 0
 194.75390625 0 225 30.24609375 225 67.5 c 2
 225 432.5 l 2
 225 469.75390625 194.75390625 500 157.5 500 c 0
 145.08203125 500 135 510.08203125 135 522.5 c 2
 135 677.5 l 2
 135 689.91796875 124.91796875 700 112.5 700 c 0
 100.08203125 700 90 689.91796875 90 677.5 c 1
 90 567.5 l 2
 90 555.08203125 79.91796875 545 67.5 545 c 0
 55.08203125 545 45 555.08203125 45 567.5 c 1
 45 677.5 l 2
 45 689.91796875 34.91796875 700 22.5 700 c 0
157.5 455 m 0
 169.91796875 455 180 444.91796875 180 432.5 c 2
 180 67.5 l 2
 180 55.08203125 169.91796875 45 157.5 45 c 0
 145.08203125 45 135 55.08203125 135 67.5 c 2
 135 432.5 l 2
 135 444.91796875 145.08203125 455 157.5 455 c 0
EndSplineSet
Ligature2: "'liga' Standard Ligatures in Latin lookup 0 subtable" t b
EndChar

StartChar: t_h
Encoding: 65555 -1 129
Width: 270
VWidth: 824
Flags: HW
LayerCount: 2
Fore
SplineSet
22.5 700 m 0
 10.08203125 700 0 689.91796875 0 677.5 c 2
 0 567.5 l 2
 0 555.08203125 -10.08203125 545 -22.5 545 c 0
 -34.91796875 545 -45 534.91796875 -45 522.5 c 0
 -45 510.08203125 -34.91796875 500 -22.5 500 c 0
 -10.08203125 500 0 489.91796875 0 477.5 c 2
 0 22.5 l 2
 0 10.08203125 10.08203125 0 22.5 0 c 0
 34.91796875 0 45 10.08203125 45 22.5 c 2
 45 477.5 l 2
 45 489.91796875 55.08203125 500 67.5 500 c 0
 79.91796875 500 90 489.91796875 90 477.5 c 2
 90 22.5 l 2
 90 10.08203125 100.08203125 0 112.5 0 c 0
 124.91796875 0 135 10.08203125 135 22.5 c 2
 135 432.5 l 2
 135 444.91796875 145.08203125 455 157.5 455 c 0
 169.91796875 455 180 444.91796875 180 432.5 c 2
 180 22.5 l 2
 180 10.08203125 190.08203125 0 202.5 0 c 0
 214.91796875 0 225 10.08203125 225 22.5 c 2
 225 432.5 l 2
 225 469.75390625 194.75390625 500 157.5 500 c 0
 145.08203125 500 135 510.08203125 135 522.5 c 2
 135 677.5 l 2
 135 689.91796875 124.91796875 700 112.5 700 c 0
 100.08203125 700 90 689.91796875 90 677.5 c 2
 90 567.5 l 2
 90 555.08203125 79.91796875 545 67.5 545 c 0
 55.08203125 545 45 555.08203125 45 567.5 c 2
 45 677.5 l 2
 45 689.91796875 34.91796875 700 22.5 700 c 0
EndSplineSet
Ligature2: "'liga' Standard Ligatures in Latin lookup 0 subtable" t h
EndChar

StartChar: t_k
Encoding: 65556 -1 130
Width: 270
VWidth: 824
Flags: HW
LayerCount: 2
Fore
SplineSet
22.5 700 m 0
 10.08203125 700 0 689.91796875 0 677.5 c 2
 0 567.5 l 2
 0 555.08203125 -10.08203125 545 -22.5 545 c 0
 -34.91796875 545 -45 534.91796875 -45 522.5 c 0
 -45 510.08203125 -34.91796875 500 -22.5 500 c 0
 -10.08203125 500 0 489.91796875 0 477.5 c 2
 0 22.5 l 2
 0 10.08203125 10.08203125 0 22.5 0 c 0
 34.91796875 0 45 10.08203125 45 22.5 c 2
 45 477.5 l 2
 45 489.91796875 55.08203125 500 67.5 500 c 0
 79.91796875 500 90 489.91796875 90 477.5 c 2
 90 22.5 l 2
 90 10.08203125 100.08203125 0 112.5 0 c 0
 124.91796875 0 135 10.08203125 135 22.5 c 2
 135 205 l 2
 135 217.41796875 145.08203125 227.5 157.5 227.5 c 0
 169.91796875 227.5 180 217.41796875 180 205 c 2
 180 22.5 l 2
 180 10.08203125 190.08203125 0 202.5 0 c 0
 214.91796875 0 225 10.08203125 225 22.5 c 2
 225 205 l 2
 225 242.25390625 194.75390625 272.5 157.5 272.5 c 0
 145.08203125 272.5 135 282.58203125 135 295 c 0
 135 307.41796875 145.08203125 317.5 157.5 317.5 c 0
 194.75390625 317.5 225 347.74609375 225 385 c 2
 225 477.5 l 2
 225 489.91796875 214.91796875 500 202.5 500 c 0
 190.08203125 500 180 489.91796875 180 477.5 c 2
 180 385 l 2
 180 372.58203125 169.91796875 362.5 157.5 362.5 c 0
 145.08203125 362.5 135 372.58203125 135 385 c 2
 135 677.5 l 2
 135 689.91796875 124.91796875 700 112.5 700 c 0
 100.08203125 700 90 689.91796875 90 677.5 c 2
 90 567.5 l 2
 90 555.08203125 79.91796875 545 67.5 545 c 0
 55.08203125 545 45 555.08203125 45 567.5 c 2
 45 677.5 l 2
 45 689.91796875 34.91796875 700 22.5 700 c 0
EndSplineSet
Ligature2: "'liga' Standard Ligatures in Latin lookup 0 subtable" t k
EndChar

StartChar: t_l
Encoding: 65557 -1 131
Width: 180
VWidth: 824
Flags: HW
LayerCount: 2
Fore
SplineSet
22.5 700 m 0
 10.08203125 700 0 689.91796875 0 677.5 c 2
 0 567.5 l 2
 0 555.08203125 -10.08203125 545 -22.5 545 c 0
 -34.91796875 545 -45 534.91796875 -45 522.5 c 0
 -45 510.08203125 -34.91796875 500 -22.5 500 c 0
 -10.08203125 500 0 489.91796875 0 477.5 c 2
 0 22.5 l 2
 0 10.08203125 10.08203125 0 22.5 0 c 0
 34.91796875 0 45 10.08203125 45 22.5 c 2
 45 477.5 l 2
 45 489.91796875 55.08203125 500 67.5 500 c 0
 79.91796875 500 90 489.91796875 90 477.5 c 2
 90 22.5 l 2
 90 10.08203125 100.08203125 0 112.5 0 c 0
 124.91796875 0 135 10.08203125 135 22.5 c 2
 135 677.5 l 2
 135 689.91796875 124.91796875 700 112.5 700 c 0
 100.08203125 700 90 689.91796875 90 677.5 c 2
 90 567.5 l 2
 90 555.08203125 79.91796875 545 67.5 545 c 0
 55.08203125 545 45 555.08203125 45 567.5 c 2
 45 677.5 l 2
 45 689.91796875 34.91796875 700 22.5 700 c 0
EndSplineSet
Ligature2: "'liga' Standard Ligatures in Latin lookup 0 subtable" t l
EndChar

StartChar: d_t
Encoding: 65558 -1 132
Width: 270
VWidth: 824
Flags: HW
LayerCount: 2
Fore
SplineSet
112.5 700 m 0
 100.08203125 700 90 689.91796875 90 677.5 c 1
 90 522.5 l 2
 90 510.08203125 79.91796875 500 67.5 500 c 0
 30.24609375 500 0 469.75390625 0 432.5 c 2
 0 67.5 l 2
 0 30.24609375 30.24609375 0 67.5 0 c 0
 104.75390625 0 135 30.24609375 135 67.5 c 2
 135 477.5 l 2
 135 489.91796875 145.08203125 500 157.5 500 c 0
 169.91796875 500 180 489.91796875 180 477.5 c 2
 180 22.5 l 2
 180 10.08203125 190.08203125 0 202.5 0 c 0
 214.91796875 0 225 10.08203125 225 22.5 c 2
 225 477.5 l 2
 225 489.91796875 235.08203125 500 247.5 500 c 0
 259.91796875 500 270 510.08203125 270 522.5 c 0
 270 534.91796875 259.91796875 545 247.5 545 c 0
 235.08203125 545 225 555.08203125 225 567.5 c 2
 225 677.5 l 2
 225 689.91796875 214.91796875 700 202.5 700 c 0
 190.08203125 700 180 689.91796875 180 677.5 c 2
 180 567.5 l 2
 180 555.08203125 169.91796875 545 157.5 545 c 0
 145.08203125 545 135 555.08203125 135 567.5 c 2
 135 677.5 l 2
 135 689.91796875 124.91796875 700 112.5 700 c 0
67.5 455 m 0
 79.91796875 455 90 444.91796875 90 432.5 c 1
 90 67.5 l 2
 90 55.08203125 79.91796875 45 67.5 45 c 0
 55.08203125 45 45 55.08203125 45 67.5 c 2
 45 432.5 l 2
 45 444.91796875 55.08203125 455 67.5 455 c 0
EndSplineSet
Ligature2: "'liga' Standard Ligatures in Latin lookup 0 subtable" d t
EndChar

StartChar: d_t_b
Encoding: 65559 -1 133
Width: 450
VWidth: 824
Flags: HW
LayerCount: 2
Fore
SplineSet
112.5 700 m 0
 100.08203125 700 90 689.91796875 90 677.5 c 2
 90 522.5 l 2
 90 510.08203125 79.91796875 500 67.5 500 c 0
 30.24609375 500 0 469.75390625 0 432.5 c 2
 0 67.5 l 2
 0 30.24609375 30.24609375 0 67.5 0 c 0
 104.75390625 0 135 30.24609375 135 67.5 c 2
 135 477.5 l 2
 135 489.91796875 145.08203125 500 157.5 500 c 0
 169.91796875 500 180 489.91796875 180 477.5 c 2
 180 22.5 l 2
 180 10.08203125 190.08203125 0 202.5 0 c 0
 214.91796875 0 225 10.08203125 225 22.5 c 2
 225 477.5 l 2
 225 489.91796875 235.08203125 500 247.5 500 c 0
 259.91796875 500 270 489.91796875 270 477.5 c 2
 270 67.5 l 2
 270 30.24609375 300.24609375 0 337.5 0 c 0
 374.75390625 0 405 30.24609375 405 67.5 c 2
 405 432.5 l 2
 405 469.75390625 374.75390625 500 337.5 500 c 0
 325.08203125 500 315 510.08203125 315 522.5 c 2
 315 677.5 l 2
 315 689.91796875 304.91796875 700 292.5 700 c 0
 280.08203125 700 270 689.91796875 270 677.5 c 2
 270 567.5 l 2
 270 555.08203125 259.91796875 545 247.5 545 c 0
 235.08203125 545 225 555.08203125 225 567.5 c 2
 225 677.5 l 2
 225 689.91796875 214.91796875 700 202.5 700 c 0
 190.08203125 700 180 689.91796875 180 677.5 c 2
 180 567.5 l 2
 180 555.08203125 169.91796875 545 157.5 545 c 0
 145.08203125 545 135 555.08203125 135 567.5 c 2
 135 677.5 l 2
 135 689.91796875 124.91796875 700 112.5 700 c 0
67.5 455 m 0
 79.91796875 455 90 444.91796875 90 432.5 c 2
 90 67.5 l 2
 90 55.08203125 79.91796875 45 67.5 45 c 0
 55.08203125 45 45 55.08203125 45 67.5 c 2
 45 432.5 l 2
 45 444.91796875 55.08203125 455 67.5 455 c 0
337.5 455 m 0
 349.91796875 455 360 444.91796875 360 432.5 c 2
 360 67.5 l 2
 360 55.08203125 349.91796875 45 337.5 45 c 0
 325.08203125 45 315 55.08203125 315 67.5 c 2
 315 432.5 l 2
 315 444.91796875 325.08203125 455 337.5 455 c 0
EndSplineSet
Ligature2: "'liga' Standard Ligatures in Latin lookup 0 subtable" d t b
EndChar

StartChar: d_t_h
Encoding: 65560 -1 134
Width: 450
VWidth: 824
Flags: HW
LayerCount: 2
Fore
SplineSet
112.5 700 m 0
 100.08203125 700 90 689.91796875 90 677.5 c 2
 90 522.5 l 2
 90 510.08203125 79.91796875 500 67.5 500 c 0
 30.24609375 500 0 469.75390625 0 432.5 c 2
 0 67.5 l 2
 0 30.24609375 30.24609375 0 67.5 0 c 0
 104.75390625 0 135 30.24609375 135 67.5 c 2
 135 477.5 l 2
 135 489.91796875 145.08203125 500 157.5 500 c 0
 169.91796875 500 180 489.91796875 180 477.5 c 2
 180 22.5 l 2
 180 10.08203125 190.08203125 0 202.5 0 c 0
 214.91796875 0 225 10.08203125 225 22.5 c 2
 225 477.5 l 2
 225 489.91796875 235.08203125 500 247.5 500 c 0
 259.91796875 500 270 489.91796875 270 477.5 c 2
 270 22.5 l 2
 270 10.08203125 280.08203125 0 292.5 0 c 0
 304.91796875 0 315 10.08203125 315 22.5 c 2
 315 432.5 l 2
 315 444.91796875 325.08203125 455 337.5 455 c 0
 349.91796875 455 360 444.91796875 360 432.5 c 2
 360 22.5 l 2
 360 10.08203125 370.08203125 0 382.5 0 c 0
 394.91796875 0 405 10.08203125 405 22.5 c 2
 405 432.5 l 2
 405 469.75390625 374.75390625 500 337.5 500 c 0
 325.08203125 500 315 510.08203125 315 522.5 c 2
 315 677.5 l 2
 315 689.91796875 304.91796875 700 292.5 700 c 0
 280.08203125 700 270 689.91796875 270 677.5 c 2
 270 567.5 l 2
 270 555.08203125 259.91796875 545 247.5 545 c 0
 235.08203125 545 225 555.08203125 225 567.5 c 2
 225 677.5 l 2
 225 689.91796875 214.91796875 700 202.5 700 c 0
 190.08203125 700 180 689.91796875 180 677.5 c 2
 180 567.5 l 2
 180 555.08203125 169.91796875 545 157.5 545 c 0
 145.08203125 545 135 555.08203125 135 567.5 c 2
 135 677.5 l 2
 135 689.91796875 124.91796875 700 112.5 700 c 0
67.5 455 m 0
 79.91796875 455 90 444.91796875 90 432.5 c 2
 90 67.5 l 2
 90 55.08203125 79.91796875 45 67.5 45 c 0
 55.08203125 45 45 55.08203125 45 67.5 c 2
 45 432.5 l 2
 45 444.91796875 55.08203125 455 67.5 455 c 0
EndSplineSet
Ligature2: "'liga' Standard Ligatures in Latin lookup 0 subtable" d t h
EndChar

StartChar: d_t_k
Encoding: 65561 -1 135
Width: 450
VWidth: 824
Flags: HW
LayerCount: 2
Fore
SplineSet
112.5 700 m 0
 100.08203125 700 90 689.91796875 90 677.5 c 2
 90 522.5 l 2
 90 510.08203125 79.91796875 500 67.5 500 c 0
 30.24609375 500 0 469.75390625 0 432.5 c 2
 0 67.5 l 2
 0 30.24609375 30.24609375 0 67.5 0 c 0
 104.75390625 0 135 30.24609375 135 67.5 c 2
 135 477.5 l 2
 135 489.91796875 145.08203125 500 157.5 500 c 0
 169.91796875 500 180 489.91796875 180 477.5 c 2
 180 22.5 l 2
 180 10.08203125 190.08203125 0 202.5 0 c 0
 214.91796875 0 225 10.08203125 225 22.5 c 2
 225 477.5 l 2
 225 489.91796875 235.08203125 500 247.5 500 c 0
 259.91796875 500 270 489.91796875 270 477.5 c 2
 270 22.5 l 2
 270 10.08203125 280.08203125 0 292.5 0 c 0
 304.91796875 0 315 10.08203125 315 22.5 c 2
 315 205 l 2
 315 217.41796875 325.08203125 227.5 337.5 227.5 c 0
 349.91796875 227.5 360 217.41796875 360 205 c 2
 360 22.5 l 2
 360 10.08203125 370.08203125 0 382.5 0 c 0
 394.91796875 0 405 10.08203125 405 22.5 c 2
 405 205 l 2
 405 242.25390625 374.75390625 272.5 337.5 272.5 c 0
 325.08203125 272.5 315 282.58203125 315 295 c 0
 315 307.41796875 325.08203125 317.5 337.5 317.5 c 0
 374.75390625 317.5 405 347.74609375 405 385 c 2
 405 477.5 l 2
 405 489.91796875 394.91796875 500 382.5 500 c 0
 370.08203125 500 360 489.91796875 360 477.5 c 2
 360 385 l 2
 360 372.58203125 349.91796875 362.5 337.5 362.5 c 0
 325.08203125 362.5 315 372.58203125 315 385 c 2
 315 677.5 l 2
 315 689.91796875 304.91796875 700 292.5 700 c 0
 280.08203125 700 270 689.91796875 270 677.5 c 2
 270 567.5 l 2
 270 555.08203125 259.91796875 545 247.5 545 c 0
 235.08203125 545 225 555.08203125 225 567.5 c 2
 225 677.5 l 2
 225 689.91796875 214.91796875 700 202.5 700 c 0
 190.08203125 700 180 689.91796875 180 677.5 c 2
 180 567.5 l 2
 180 555.08203125 169.91796875 545 157.5 545 c 0
 145.08203125 545 135 555.08203125 135 567.5 c 2
 135 677.5 l 2
 135 689.91796875 124.91796875 700 112.5 700 c 0
67.5 455 m 0
 79.91796875 455 90 444.91796875 90 432.5 c 2
 90 67.5 l 2
 90 55.08203125 79.91796875 45 67.5 45 c 0
 55.08203125 45 45 55.08203125 45 67.5 c 2
 45 432.5 l 2
 45 444.91796875 55.08203125 455 67.5 455 c 0
EndSplineSet
Ligature2: "'liga' Standard Ligatures in Latin lookup 0 subtable" d t k
EndChar

StartChar: d_t_l
Encoding: 65562 -1 136
Width: 360
VWidth: 824
Flags: HW
LayerCount: 2
Fore
SplineSet
112.5 700 m 0
 100.08203125 700 90 689.91796875 90 677.5 c 2
 90 522.5 l 2
 90 510.08203125 79.91796875 500 67.5 500 c 0
 30.24609375 500 0 469.75390625 0 432.5 c 2
 0 67.5 l 2
 0 30.24609375 30.24609375 0 67.5 0 c 0
 104.75390625 0 135 30.24609375 135 67.5 c 2
 135 477.5 l 2
 135 489.91796875 145.08203125 500 157.5 500 c 0
 169.91796875 500 180 489.91796875 180 477.5 c 2
 180 22.5 l 2
 180 10.08203125 190.08203125 0 202.5 0 c 0
 214.91796875 0 225 10.08203125 225 22.5 c 2
 225 477.5 l 2
 225 489.91796875 235.08203125 500 247.5 500 c 0
 259.91796875 500 270 489.91796875 270 477.5 c 2
 270 22.5 l 2
 270 10.08203125 280.08203125 0 292.5 0 c 0
 304.91796875 0 315 10.08203125 315 22.5 c 2
 315 677.5 l 2
 315 689.91796875 304.91796875 700 292.5 700 c 0
 280.08203125 700 270 689.91796875 270 677.5 c 2
 270 567.5 l 2
 270 555.08203125 259.91796875 545 247.5 545 c 0
 235.08203125 545 225 555.08203125 225 567.5 c 2
 225 677.5 l 2
 225 689.91796875 214.91796875 700 202.5 700 c 0
 190.08203125 700 180 689.91796875 180 677.5 c 2
 180 567.5 l 2
 180 555.08203125 169.91796875 545 157.5 545 c 0
 145.08203125 545 135 555.08203125 135 567.5 c 2
 135 677.5 l 2
 135 689.91796875 124.91796875 700 112.5 700 c 0
67.5 455 m 0
 79.91796875 455 90 444.91796875 90 432.5 c 2
 90 67.5 l 2
 90 55.08203125 79.91796875 45 67.5 45 c 0
 55.08203125 45 45 55.08203125 45 67.5 c 2
 45 432.5 l 2
 45 444.91796875 55.08203125 455 67.5 455 c 0
EndSplineSet
Ligature2: "'liga' Standard Ligatures in Latin lookup 0 subtable" d t l
EndChar

StartChar: l_t
Encoding: 65563 -1 137
Width: 180
VWidth: 824
Flags: HW
LayerCount: 2
Fore
SplineSet
22.5 700 m 0
 10.08203125 700 0 689.91796875 0 677.5 c 2
 0 22.5 l 2
 0 10.08203125 10.08203125 0 22.5 0 c 0
 34.91796875 0 45 10.08203125 45 22.5 c 1
 45 477.5 l 2
 45 489.91796875 55.08203125 500 67.5 500 c 0
 79.91796875 500 90 489.91796875 90 477.5 c 2
 90 22.5 l 2
 90 10.08203125 100.08203125 0 112.5 0 c 0
 124.91796875 0 135 10.08203125 135 22.5 c 2
 135 477.5 l 2
 135 489.91796875 145.08203125 500 157.5 500 c 0
 169.91796875 500 180 510.08203125 180 522.5 c 0
 180 534.91796875 169.91796875 545 157.5 545 c 0
 145.08203125 545 135 555.08203125 135 567.5 c 2
 135 677.5 l 2
 135 689.91796875 124.91796875 700 112.5 700 c 0
 100.08203125 700 90 689.91796875 90 677.5 c 1
 90 567.5 l 2
 90 555.08203125 79.91796875 545 67.5 545 c 0
 55.08203125 545 45 555.08203125 45 567.5 c 2
 45 677.5 l 2
 45 689.91796875 34.91796875 700 22.5 700 c 0
EndSplineSet
Ligature2: "'liga' Standard Ligatures in Latin lookup 0 subtable" l t
EndChar

StartChar: l_f
Encoding: 65564 -1 138
Width: 180
VWidth: 824
Flags: HW
LayerCount: 2
Fore
SplineSet
22.5 700 m 0
 10.08203125 700 0 689.91796875 0 677.5 c 2
 0 22.5 l 2
 0 10.08203125 10.08203125 0 22.5 0 c 0
 34.91796875 0 45 10.08203125 45 22.5 c 2
 45 477.5 l 2
 45 489.91796875 55.08203125 500 67.5 500 c 0
 79.91796875 500 90 489.91796875 90 477.5 c 1
 90 22.5 l 2
 90 10.08203125 100.08203125 0 112.5 0 c 0
 124.91796875 0 135 10.08203125 135 22.5 c 2
 135 477.5 l 2
 135 489.91796875 145.08203125 500 157.5 500 c 2
 180 500 l 2
 192.41796875 500 202.5 510.08203125 202.5 522.5 c 0
 202.5 534.91796875 192.41796875 545 180 545 c 2
 157.5 545 l 2
 145.08203125 545 135 555.08203125 135 567.5 c 2
 135 632.5 l 2
 135 644.91796875 145.08203125 655 157.5 655 c 0
 169.91796875 655 180 644.91796875 180 632.5 c 2
 180 610 l 2
 180 597.58203125 190.08203125 587.5 202.5 587.5 c 0
 214.91796875 587.5 225 597.58203125 225 610 c 2
 225 632.5 l 2
 225 669.75390625 194.75390625 700 157.5 700 c 0
 120.24609375 700 90 669.75390625 90 632.5 c 1
 90 567.5 l 2
 90 555.08203125 79.91796875 545 67.5 545 c 0
 55.08203125 545 45 555.08203125 45 567.5 c 2
 45 677.5 l 2
 45 689.91796875 34.91796875 700 22.5 700 c 0
EndSplineSet
Ligature2: "'liga' Standard Ligatures in Latin lookup 0 subtable" l f
EndChar

StartChar: l_t_b
Encoding: 65565 -1 139
Width: 360
VWidth: 824
Flags: HW
LayerCount: 2
Fore
SplineSet
22.5 700 m 0
 10.08203125 700 0 689.91796875 0 677.5 c 1
 0 22.5 l 2
 0 10.08203125 10.08203125 0 22.5 0 c 0
 34.91796875 0 45 10.08203125 45 22.5 c 2
 45 477.5 l 2
 45 489.91796875 55.08203125 500 67.5 500 c 0
 79.91796875 500 90 489.91796875 90 477.5 c 2
 90 22.5 l 2
 90 10.08203125 100.08203125 0 112.5 0 c 0
 124.91796875 0 135 10.08203125 135 22.5 c 2
 135 477.5 l 2
 135 489.91796875 145.08203125 500 157.5 500 c 0
 169.91796875 500 180 489.91796875 180 477.5 c 2
 180 67.5 l 2
 180 30.24609375 210.24609375 0 247.5 0 c 0
 284.75390625 0 315 30.24609375 315 67.5 c 2
 315 432.5 l 2
 315 469.75390625 284.75390625 500 247.5 500 c 0
 235.08203125 500 225 510.08203125 225 522.5 c 2
 225 677.5 l 2
 225 689.91796875 214.91796875 700 202.5 700 c 0
 190.08203125 700 180 689.91796875 180 677.5 c 2
 180 567.5 l 2
 180 555.08203125 169.91796875 545 157.5 545 c 0
 145.08203125 545 135 555.08203125 135 567.5 c 2
 135 677.5 l 2
 135 689.91796875 124.91796875 700 112.5 700 c 0
 100.08203125 700 90 689.91796875 90 677.5 c 1
 90 567.5 l 2
 90 555.08203125 79.91796875 545 67.5 545 c 0
 55.08203125 545 45 555.08203125 45 567.5 c 2
 45 677.5 l 2
 45 689.91796875 34.91796875 700 22.5 700 c 0
247.5 455 m 0
 259.91796875 455 270 444.91796875 270 432.5 c 2
 270 67.5 l 2
 270 55.08203125 259.91796875 45 247.5 45 c 0
 235.08203125 45 225 55.08203125 225 67.5 c 2
 225 432.5 l 2
 225 444.91796875 235.08203125 455 247.5 455 c 0
EndSplineSet
Ligature2: "'liga' Standard Ligatures in Latin lookup 0 subtable" l t b
EndChar

StartChar: l_t_h
Encoding: 65566 -1 140
Width: 360
VWidth: 824
Flags: HW
LayerCount: 2
Fore
SplineSet
22.5 700 m 0
 10.08203125 700 0 689.91796875 0 677.5 c 2
 0 22.5 l 2
 0 10.08203125 10.08203125 0 22.5 0 c 0
 34.91796875 0 45 10.08203125 45 22.5 c 2
 45 477.5 l 2
 45 489.91796875 55.08203125 500 67.5 500 c 0
 79.91796875 500 90 489.91796875 90 477.5 c 1
 90 22.5 l 2
 90 10.08203125 100.08203125 0 112.5 0 c 0
 124.91796875 0 135 10.08203125 135 22.5 c 2
 135 477.5 l 2
 135 489.91796875 145.08203125 500 157.5 500 c 0
 169.91796875 500 180 489.91796875 180 477.5 c 2
 180 22.5 l 2
 180 10.08203125 190.08203125 0 202.5 0 c 0
 214.91796875 0 225 10.08203125 225 22.5 c 2
 225 432.5 l 2
 225 444.91796875 235.08203125 455 247.5 455 c 0
 259.91796875 455 270 444.91796875 270 432.5 c 2
 270 22.5 l 2
 270 10.08203125 280.08203125 0 292.5 0 c 0
 304.91796875 0 315 10.08203125 315 22.5 c 2
 315 432.5 l 2
 315 469.75390625 284.75390625 500 247.5 500 c 0
 235.08203125 500 225 510.08203125 225 522.5 c 2
 225 677.5 l 2
 225 689.91796875 214.91796875 700 202.5 700 c 0
 190.08203125 700 180 689.91796875 180 677.5 c 2
 180 567.5 l 2
 180 555.08203125 169.91796875 545 157.5 545 c 0
 145.08203125 545 135 555.08203125 135 567.5 c 2
 135 677.5 l 2
 135 689.91796875 124.91796875 700 112.5 700 c 0
 100.08203125 700 90 689.91796875 90 677.5 c 1
 90 567.5 l 2
 90 555.08203125 79.91796875 545 67.5 545 c 0
 55.08203125 545 45 555.08203125 45 567.5 c 2
 45 677.5 l 2
 45 689.91796875 34.91796875 700 22.5 700 c 0
EndSplineSet
Ligature2: "'liga' Standard Ligatures in Latin lookup 0 subtable" l t h
EndChar

StartChar: l_t_k
Encoding: 65567 -1 141
Width: 360
VWidth: 824
Flags: HW
LayerCount: 2
Fore
SplineSet
22.5 700 m 0
 10.08203125 700 0 689.91796875 0 677.5 c 2
 0 22.5 l 2
 0 10.08203125 10.08203125 0 22.5 0 c 0
 34.91796875 0 45 10.08203125 45 22.5 c 2
 45 477.5 l 2
 45 489.91796875 55.08203125 500 67.5 500 c 0
 79.91796875 500 90 489.91796875 90 477.5 c 2
 90 22.5 l 2
 90 10.08203125 100.08203125 0 112.5 0 c 0
 124.91796875 0 135 10.08203125 135 22.5 c 2
 135 477.5 l 2
 135 489.91796875 145.08203125 500 157.5 500 c 0
 169.91796875 500 180 489.91796875 180 477.5 c 2
 180 22.5 l 2
 180 10.08203125 190.08203125 0 202.5 0 c 0
 214.91796875 0 225 10.08203125 225 22.5 c 2
 225 205 l 2
 225 217.41796875 235.08203125 227.5 247.5 227.5 c 0
 259.91796875 227.5 270 217.41796875 270 205 c 2
 270 22.5 l 2
 270 10.08203125 280.08203125 0 292.5 0 c 0
 304.91796875 0 315 10.08203125 315 22.5 c 2
 315 205 l 2
 315 242.25390625 284.75390625 272.5 247.5 272.5 c 0
 235.08203125 272.5 225 282.58203125 225 295 c 0
 225 307.41796875 235.08203125 317.5 247.5 317.5 c 0
 284.75390625 317.5 315 347.74609375 315 385 c 2
 315 477.5 l 2
 315 489.91796875 304.91796875 500 292.5 500 c 0
 280.08203125 500 270 489.91796875 270 477.5 c 2
 270 385 l 2
 270 372.58203125 259.91796875 362.5 247.5 362.5 c 0
 235.08203125 362.5 225 372.58203125 225 385 c 2
 225 677.5 l 2
 225 689.91796875 214.91796875 700 202.5 700 c 0
 190.08203125 700 180 689.91796875 180 677.5 c 2
 180 567.5 l 2
 180 555.08203125 169.91796875 545 157.5 545 c 0
 145.08203125 545 135 555.08203125 135 567.5 c 2
 135 677.5 l 2
 135 689.91796875 124.91796875 700 112.5 700 c 0
 100.08203125 700 90 689.91796875 90 677.5 c 1
 90 567.5 l 2
 90 555.08203125 79.91796875 545 67.5 545 c 0
 55.08203125 545 45 555.08203125 45 567.5 c 1
 45 677.5 l 2
 45 689.91796875 34.91796875 700 22.5 700 c 0
EndSplineSet
Ligature2: "'liga' Standard Ligatures in Latin lookup 0 subtable" l t k
EndChar

StartChar: l_t_l
Encoding: 65568 -1 142
Width: 180
VWidth: 824
Flags: H
LayerCount: 2
Fore
SplineSet
22.5 700.001953125 m 0
 10.08203125 700.001953125 0 689.919921875 0 677.501953125 c 2
 0 22.5 l 2
 0 10.08203125 10.08203125 0 22.5 0 c 0
 34.91796875 0 45 10.083984375 45 22.501953125 c 1
 45 22.5 45 477.5 45 477.5 c 2
 45 489.91796875 55.08203125 500 67.5 500 c 0
 79.91796875 500 90 489.91796875 90 477.5 c 2
 90 22.5 l 2
 90 10.08203125 100.08203125 0 112.5 0 c 0
 124.91796875 0 135 10.08203125 135 22.5 c 2
 135 477.5 l 2
 135 489.91796875 145.08203125 500 157.5 500 c 0
 169.91796875 500 180 489.91796875 180 477.5 c 2
 180 22.5 l 2
 180 10.08203125 190.08203125 0 202.5 0 c 0
 214.91796875 0 225 10.083984375 225 22.501953125 c 1
 225 22.5 225 677.501953125 225 677.501953125 c 2
 225 689.919921875 214.91796875 700.001953125 202.5 700.001953125 c 0
 190.08203125 700.001953125 180 689.919921875 180 677.501953125 c 2
 180 567.5 l 2
 180 555.08203125 169.91796875 545 157.5 545 c 0
 145.08203125 545 135 555.08203125 135 567.5 c 2
 135 677.5 l 2
 135 689.91796875 124.91796875 700 112.5 700 c 0
 100.08203125 700 90 689.91796875 90 677.5 c 2
 90 567.5 l 2
 90 555.08203125 79.91796875 545 67.5 545 c 0
 55.08203125 545 45 555.08203125 45 567.5 c 2
 45 677.501953125 l 2
 45 689.919921875 34.91796875 700.001953125 22.5 700.001953125 c 0
EndSplineSet
Ligature2: "'liga' Standard Ligatures in Latin lookup 0 subtable" l t l
EndChar

StartChar: l_f_b
Encoding: 65569 -1 143
Width: 360
VWidth: 824
Flags: HW
LayerCount: 2
Fore
SplineSet
22.5 700 m 0
 10.08203125 700 0 689.91796875 0 677.5 c 2
 0 22.5 l 2
 0 10.08203125 10.08203125 0 22.5 0 c 0
 34.91796875 0 45 10.08203125 45 22.5 c 2
 45 477.5 l 2
 45 489.91796875 55.08203125 500 67.5 500 c 0
 79.91796875 500 90 489.91796875 90 477.5 c 2
 90 22.5 l 2
 90 10.08203125 100.08203125 0 112.5 0 c 0
 124.91796875 0 135 10.08203125 135 22.5 c 2
 135 477.5 l 2
 135 489.91796875 145.08203125 500 157.5 500 c 0
 169.91796875 500 180 489.91796875 180 477.5 c 2
 180 67.5 l 2
 180 30.24609375 210.24609375 0 247.5 0 c 0
 284.75390625 0 315 30.24609375 315 67.5 c 2
 315 432.5 l 2
 315 469.75390625 284.75390625 500 247.5 500 c 0
 235.08203125 500 225 510.08203125 225 522.5 c 2
 225 632.5 l 2
 225 669.75390625 194.75390625 700 157.5 700 c 0
 120.24609375 700 90 669.75390625 90 632.5 c 1
 90 567.5 l 2
 90 555.08203125 79.91796875 545 67.5 545 c 0
 55.08203125 545 45 555.08203125 45 567.5 c 1
 45 677.5 l 2
 45 689.91796875 34.91796875 700 22.5 700 c 0
157.5 655 m 0
 169.91796875 655 180 644.91796875 180 632.5 c 2
 180 567.5 l 2
 180 555.08203125 169.91796875 545 157.5 545 c 0
 145.08203125 545 135 555.08203125 135 567.5 c 2
 135 632.5 l 2
 135 644.91796875 145.08203125 655 157.5 655 c 0
247.5 455 m 0
 259.91796875 455 270 444.91796875 270 432.5 c 2
 270 67.5 l 2
 270 55.08203125 259.91796875 45 247.5 45 c 0
 235.08203125 45 225 55.08203125 225 67.5 c 2
 225 432.5 l 2
 225 444.91796875 235.08203125 455 247.5 455 c 0
EndSplineSet
Ligature2: "'liga' Standard Ligatures in Latin lookup 0 subtable" l f b
EndChar

StartChar: l_f_f
Encoding: 65570 -1 144
Width: 270
VWidth: 824
Flags: HW
LayerCount: 2
Fore
SplineSet
392.296875 1026.03710938 m 0
 379.87890625 1026.03710938 369.796875 1036.11914062 369.796875 1048.53710938 c 2
 369.796875 1703.53710938 l 2
 369.797851562 1715.95410156 379.879882812 1726.03515625 392.296875 1726.03515625 c 0
 404.71484375 1726.03515625 414.796875 1715.953125 414.796875 1703.53515625 c 2
 414.796875 1248.53710938 l 2
 414.796875 1236.11914062 424.87890625 1226.03710938 437.296875 1226.03710938 c 0
 449.71484375 1226.03710938 459.796875 1236.11914062 459.796875 1248.53710938 c 2
 459.796875 1703.53710938 l 2
 459.796875 1715.95507812 469.87890625 1726.03710938 482.296875 1726.03710938 c 0
 494.71484375 1726.03710938 504.796875 1715.95507812 504.796875 1703.53710938 c 2
 504.796875 1248.53710938 l 2
 504.796875 1236.11914062 514.87890625 1226.03710938 527.296875 1226.03710938 c 0
 539.71484375 1226.03710938 549.796875 1236.11914062 549.796875 1248.53710938 c 2
 549.796875 1703.53710938 l 2
 549.796875 1715.95507812 559.87890625 1726.03710938 572.296875 1726.03710938 c 0
 584.71484375 1726.03710938 594.796875 1715.95507812 594.796875 1703.53710938 c 2
 594.796875 1248.53710938 l 2
 594.796875 1236.11914062 604.87890625 1226.03710938 617.296875 1226.03710938 c 2
 639.796875 1226.03710938 l 2
 652.21484375 1226.03710938 662.296875 1215.95507812 662.296875 1203.53710938 c 0
 662.296875 1191.11914062 652.21484375 1181.03710938 639.796875 1181.03710938 c 2
 617.296875 1181.03710938 l 2
 604.87890625 1181.03710938 594.796875 1170.95507812 594.796875 1158.53710938 c 2
 594.796875 1116.03710938 l 1
 594.796875 1093.53710938 l 2
 594.796875 1081.11914062 604.87890625 1071.03710938 617.296875 1071.03710938 c 0
 629.71484375 1071.03710938 639.796875 1081.11914062 639.796875 1093.53710938 c 2
 639.796875 1116.03710938 l 2
 639.796875 1128.45507812 649.87890625 1138.53710938 662.296875 1138.53710938 c 0
 674.71484375 1138.53710938 684.796875 1128.45507812 684.796875 1116.03710938 c 2
 684.796875 1093.53710938 l 2
 684.796875 1056.28320312 654.55078125 1026.03710938 617.296875 1026.03710938 c 2
 527.296875 1026.03710938 l 2
 490.04296875 1026.03710938 459.796875 1056.28320312 459.796875 1093.53710938 c 2
 459.796875 1158.53710938 l 2
 459.796875 1170.95507812 449.71484375 1181.03710938 437.296875 1181.03710938 c 0
 424.87890625 1181.03710938 414.796875 1170.95507812 414.796875 1158.53710938 c 2
 414.796875 1048.53710938 l 2
 414.796875 1036.11914062 404.71484375 1026.03710938 392.296875 1026.03710938 c 0
527.296875 1071.03710938 m 0
 539.71484375 1071.03710938 549.796875 1081.11914062 549.796875 1093.53710938 c 2
 549.796875 1116.03710938 l 1
 549.796875 1158.53710938 l 2
 549.796875 1170.95507812 539.71484375 1181.03710938 527.296875 1181.03710938 c 0
 514.87890625 1181.03710938 504.796875 1170.95507812 504.796875 1158.53710938 c 2
 504.796875 1093.53710938 l 2
 504.796875 1081.11914062 514.87890625 1071.03710938 527.296875 1071.03710938 c 0
EndSplineSet
Ligature2: "'liga' Standard Ligatures in Latin lookup 0 subtable" l f f
EndChar

StartChar: l_f_h
Encoding: 65571 -1 145
Width: 360
VWidth: 824
Flags: HW
LayerCount: 2
Fore
SplineSet
22.5 700 m 1
 10.08203125 700 0 689.91796875 0 677.5 c 1
 0 22.5 l 2
 0 10.08203125 10.08203125 0 22.5 0 c 0
 34.91796875 0 45 10.08203125 45 22.5 c 2
 45 477.5 l 2
 45 489.91796875 55.08203125 500 67.5 500 c 0
 79.91796875 500 90 489.91796875 90 477.5 c 2
 90 22.5 l 2
 90 10.08203125 100.08203125 0 112.5 0 c 0
 124.91796875 0 135 10.08203125 135 22.5 c 2
 135 477.5 l 2
 135 489.91796875 145.08203125 500 157.5 500 c 0
 169.91796875 500 180 489.91796875 180 477.5 c 1
 180 500 l 1
 180 545 l 1
 180 567.5 l 1
 180 555.08203125 169.91796875 545 157.5 545 c 0
 145.08203125 545 135 555.08203125 135 567.5 c 2
 135 632.5 l 2
 135 644.91796875 145.08203125 655 157.5 655 c 0
 169.91796875 655 180 644.91796875 180 632.5 c 1
 180.001953125 632.5 l 1
 180.001953125 22.5 l 2
 180.001953125 10.08203125 190.083984375 0 202.501953125 0 c 0
 214.919921875 0 225.001953125 10.08203125 225.001953125 22.5 c 2
 225.001953125 432.521484375 l 2
 225.013671875 444.928710938 235.08984375 454.999023438 247.5 455 c 0
 259.91796875 455 270 444.91796875 270 432.5 c 2
 270 22.5 l 2
 270 10.08203125 280.08203125 0 292.5 0 c 0
 304.91796875 0 315 10.08203125 315 22.5 c 2
 315 432.5 l 2
 315 469.75390625 284.75390625 500 247.5 500 c 0
 235.08984375 500.000976562 225.013671875 510.071289062 225.001953125 522.478515625 c 1
 225.001953125 632.5 l 1
 225 632.5 l 1
 225 669.75390625 194.75390625 700 157.5 700 c 0
 120.24609375 700 90 669.75390625 90 632.5 c 1
 90 567.5 l 2
 90 555.08203125 79.91796875 545 67.5 545 c 0
 55.08203125 545 45 555.08203125 45 567.5 c 2
 45 677.5 l 2
 45 689.91796875 34.91796875 700 22.5 700 c 1
 22.5 700 l 1
EndSplineSet
Ligature2: "'liga' Standard Ligatures in Latin lookup 0 subtable" l f h
EndChar

StartChar: l_f_k
Encoding: 65572 -1 146
Width: 360
VWidth: 824
Flags: HW
LayerCount: 2
Fore
SplineSet
22.5 700 m 0
 10.08203125 700 0 689.91796875 0 677.5 c 1
 0 22.5 l 2
 0 10.08203125 10.08203125 0 22.5 0 c 0
 34.91796875 0 45 10.08203125 45 22.5 c 2
 45 477.5 l 2
 45 489.91796875 55.08203125 500 67.5 500 c 0
 79.91796875 500 90 489.91796875 90 477.5 c 2
 90 22.5 l 2
 90 10.08203125 100.08203125 0 112.5 0 c 0
 124.91796875 0 135 10.08203125 135 22.5 c 2
 135 477.5 l 2
 135 489.91796875 145.08203125 500 157.5 500 c 0
 169.91796875 500 180 489.91796875 180 477.5 c 2
 180 22.5 l 2
 180 10.08203125 190.08203125 0 202.5 0 c 0
 214.91796875 0 225 10.08203125 225 22.5 c 2
 225 205 l 2
 225 217.41796875 235.08203125 227.5 247.5 227.5 c 0
 259.91796875 227.5 270 217.41796875 270 205 c 2
 270 22.5 l 2
 270 10.08203125 280.08203125 0 292.5 0 c 0
 304.91796875 0 315 10.08203125 315 22.5 c 2
 315 205 l 2
 315 242.25390625 284.75390625 272.5 247.5 272.5 c 0
 235.08203125 272.5 225 282.58203125 225 295 c 0
 225 307.41796875 235.08203125 317.5 247.5 317.5 c 0
 284.75390625 317.5 315 347.74609375 315 385 c 2
 315 477.5 l 2
 315 489.91796875 304.91796875 500 292.5 500 c 0
 280.08203125 500 270 489.91796875 270 477.5 c 2
 270 385 l 2
 270 372.58203125 259.91796875 362.5 247.5 362.5 c 0
 235.08203125 362.5 225 372.58203125 225 385 c 2
 225 632.5 l 2
 225 669.75390625 194.75390625 700 157.5 700 c 0
 120.24609375 700 90 669.75390625 90 632.5 c 1
 90 567.5 l 2
 90 555.08203125 79.91796875 545 67.5 545 c 0
 55.08203125 545 45 555.08203125 45 567.5 c 2
 45 677.5 l 2
 45 689.91796875 34.91796875 700 22.5 700 c 0
157.5 655 m 0
 169.91796875 655 180 644.91796875 180 632.5 c 2
 180 567.5 l 2
 180 555.08203125 169.91796875 545 157.5 545 c 0
 145.08203125 545 135 555.08203125 135 567.5 c 2
 135 632.5 l 2
 135 644.91796875 145.08203125 655 157.5 655 c 0
EndSplineSet
Ligature2: "'liga' Standard Ligatures in Latin lookup 0 subtable" l f k
EndChar

StartChar: l_f_l
Encoding: 65573 -1 147
Width: 270
VWidth: 824
Flags: HW
LayerCount: 2
Fore
SplineSet
22.5 700 m 0
 10.08203125 700 0 689.91796875 0 677.5 c 2
 0 22.5 l 2
 0 10.08203125 10.08203125 0 22.5 0 c 0
 34.91796875 0 45 10.08203125 45 22.5 c 2
 45 477.5 l 2
 45 489.91796875 55.08203125 500 67.5 500 c 0
 79.91796875 500 90 489.91796875 90 477.5 c 2
 90 22.5 l 2
 90 10.08203125 100.08203125 0 112.5 0 c 0
 124.91796875 0 135 10.08203125 135 22.5 c 2
 135 477.5 l 2
 135 489.91796875 145.08203125 500 157.5 500 c 0
 169.91796875 500 180 489.91796875 180 477.5 c 2
 180 22.6484375 l 1
 180.009765625 22.6484375 l 1
 180.006835938 22.5986328125 180.002929688 22.5498046875 180 22.5 c 0
 180 10.08203125 190.08203125 0 202.5 0 c 0
 214.91796875 0 225 10.08203125 225 22.5 c 0
 224.999023438 22.5498046875 224.997070312 22.5986328125 224.99609375 22.6484375 c 0
 224.99609375 22.650390625 225 22.6484375 225 22.6484375 c 1
 225 632.5 l 2
 225 669.75390625 194.75390625 700 157.5 700 c 0
 120.24609375 700 90 669.75390625 90 632.5 c 2
 90 567.5 l 2
 90 555.08203125 79.91796875 545 67.5 545 c 0
 55.08203125 545 45 555.08203125 45 567.5 c 2
 45 677.5 l 2
 45 689.91796875 34.91796875 700 22.5 700 c 0
157.5 655 m 0
 169.91796875 655 180 644.91796875 180 632.5 c 2
 180 567.5 l 2
 180 555.08203125 169.91796875 545 157.5 545 c 0
 145.08203125 545 135 555.08203125 135 567.5 c 2
 135 632.5 l 2
 135 644.91796875 145.08203125 655 157.5 655 c 0
EndSplineSet
Ligature2: "'liga' Standard Ligatures in Latin lookup 0 subtable" l f l
EndChar

StartChar: f_f_l
Encoding: 64260 64260 148
Width: 270
VWidth: 824
Flags: HW
LayerCount: 2
Fore
SplineSet
67.498046875 700 m 2
 30.2451171875 699.999023438 0 669.75390625 0 632.5 c 1
 0 567.5 l 2
 0 555.08203125 -10.08203125 545 -22.5 545 c 0
 -34.91796875 545 -45 534.91796875 -45 522.5 c 0
 -45 510.08203125 -34.91796875 500 -22.5 500 c 0
 -10.08203125 500 0 489.91796875 0 477.5 c 2
 0 22.5 l 2
 0 10.08203125 10.08203125 0 22.5 0 c 0
 34.91796875 0 45 10.08203125 45 22.5 c 2
 45 477.5 l 2
 45 489.91796875 55.08203125 500 67.5 500 c 0
 79.91796875 500 90 489.91796875 90 477.5 c 2
 90 22.5 l 2
 90 10.08203125 100.08203125 0 112.5 0 c 0
 124.91796875 0 135 10.08203125 135 22.5 c 2
 135 477.5 l 2
 135 489.91796875 145.08203125 500 157.5 500 c 0
 169.91796875 500 180 489.91796875 180 477.5 c 2
 180 22.5 l 2
 180 10.08203125 190.08203125 -0 202.5 -0 c 0
 214.91796875 -0 225 10.0859375 225 22.50390625 c 1
 225 22.5 225 632.5 225 632.5 c 1
 225 632.50390625 l 2
 224.998046875 669.756835938 194.750976562 700 157.498046875 700 c 1
 157.5 700 67.498046875 700 67.498046875 700 c 2
67.498046875 655 m 2
 67.5 655 l 2
 79.91796875 655 90 644.91796875 90 632.5 c 2
 90 610 l 1
 90 567.5 l 2
 90 555.08203125 79.91796875 545 67.5 545 c 0
 55.08203125 545 45 555.08203125 45 567.5 c 2
 45 632.5 l 2
 45 644.916992188 55.0810546875 654.999023438 67.498046875 655 c 2
157.5 655 m 2
 169.916992188 655 179.998046875 644.916015625 180 632.5 c 1
 180 632.50390625 180 567.5 180 567.5 c 2
 180 555.08203125 169.91796875 545 157.5 545 c 0
 145.08203125 545 135 555.08203125 135 567.5 c 2
 135 610 l 1
 135 632.5 l 2
 135 644.916992188 145.081054688 654.999023438 157.498046875 655 c 1
 157.5 655 l 2
EndSplineSet
Ligature2: "'liga' Standard Ligatures in Latin lookup 0 subtable" f f l
EndChar

StartChar: "f_+APYA"
Encoding: 65574 -1 149
Width: 270
VWidth: 824
Flags: HW
LayerCount: 2
Fore
SplineSet
67.5 700 m 0
 30.24609375 700 0 669.75390625 0 632.5 c 2
 0 567.5 l 2
 0 555.08203125 -10.08203125 545 -22.5 545 c 0
 -34.91796875 545 -45 534.91796875 -45 522.5 c 0
 -45 510.08203125 -34.91796875 500 -22.5 500 c 0
 -10.08203125 500 0 489.91796875 0 477.5 c 2
 0 22.5 l 2
 0 10.08203125 10.08203125 0 22.5 0 c 0
 34.91796875 0 45 10.08203125 45 22.5 c 2
 45 477.5 l 2
 45 489.91796875 55.08203125 500 67.5 500 c 0
 79.91796875 500 90 510.08203125 90 522.5 c 0
 90 534.91796875 79.91796875 545 67.5 545 c 0
 55.08203125 545 45 555.08203125 45 567.5 c 2
 45 632.5 l 2
 45 644.91796875 55.08203125 655 67.5 655 c 0
 79.91796875 655 90 644.91796875 90 632.5 c 2
 90 565 l 2
 90 552.58203125 100.08203125 542.5 112.5 542.5 c 0
 124.91796875 542.5 135 552.58203125 135 565 c 2
 135 632.5 l 2
 135 669.75390625 104.75390625 700 67.5 700 c 0
202.5 587.5 m 0
 190.08203125 587.5 180 577.41796875 180 565 c 0
 180 552.58203125 190.08203125 542.5 202.5 542.5 c 0
 214.91796875 542.5 225 552.58203125 225 565 c 0
 225 577.41796875 214.91796875 587.5 202.5 587.5 c 0
157.5 500 m 0
 120.24609375 500 90 469.75390625 90 432.5 c 2
 90 67.5 l 2
 90 30.24609375 120.24609375 0 157.5 0 c 0
 194.75390625 0 225 30.24609375 225 67.5 c 2
 225 432.5 l 2
 225 469.75390625 194.75390625 500 157.5 500 c 0
157.5 455 m 0
 169.91796875 455 180 444.91796875 180 432.5 c 2
 180 67.5 l 2
 180 55.08203125 169.91796875 45 157.5 45 c 0
 145.08203125 45 135 55.08203125 135 67.5 c 2
 135 432.5 l 2
 135 444.91796875 145.08203125 455 157.5 455 c 0
EndSplineSet
Ligature2: "'liga' Standard Ligatures in Latin lookup 0 subtable" f 
EndChar

StartChar: "f_+APwA"
Encoding: 65575 -1 150
Width: 270
VWidth: 824
Flags: HW
LayerCount: 2
Fore
SplineSet
67.5 699.998046875 m 0
 30.24609375 699.998046875 0 669.751953125 0 632.498046875 c 2
 0 567.498046875 l 2
 -0.0009765625 555.086914062 -10.0732421875 545.009765625 -22.482421875 545 c 0
 -22.4853515625 545 -22.48828125 545 -22.4912109375 545 c 0
 -22.494140625 545 -22.4970703125 545 -22.5 545 c 0
 -34.91796875 545 -45 534.91796875 -45 522.5 c 0
 -45 510.08203125 -34.91796875 500 -22.5 500 c 1
 -22.5 499.998046875 l 1
 -10.08203125 499.998046875 0 489.916015625 0 477.498046875 c 2
 0 22.5 l 2
 0 10.08203125 10.08203125 0 22.5 0 c 0
 34.91796875 0 45 10.08203125 45 22.5 c 2
 45 477.498046875 l 2
 45 489.916015625 55.08203125 499.998046875 67.5 499.998046875 c 1
 67.5 500 l 1
 79.91796875 500 90 510.08203125 90 522.5 c 0
 90 534.91796875 79.91796875 545 67.5 545 c 2
 67.494140625 545 l 1
 67.48828125 545 l 2
 55.076171875 545.006835938 45.0009765625 555.084960938 45 567.498046875 c 1
 45 632.5 l 2
 45.0009765625 644.916992188 55.0830078125 654.998046875 67.5 654.998046875 c 0
 79.91796875 654.998046875 90 644.916015625 90 632.498046875 c 2
 90 567.5 l 2
 90 555.08203125 100.08203125 545 112.5 545 c 0
 124.91796875 545 135 555.08203125 135 567.5 c 2
 135 632.5 l 2
 134.999023438 669.75390625 104.75390625 699.998046875 67.5 699.998046875 c 0
202.5 590 m 0
 190.08203125 590 180 579.91796875 180 567.5 c 0
 180 555.08203125 190.08203125 545 202.5 545 c 0
 214.91796875 545 225 555.08203125 225 567.5 c 0
 225 579.91796875 214.91796875 590 202.5 590 c 0
112.5 500 m 0
 100.08203125 500 90 489.91796875 90 477.5 c 2
 90 67.5 l 2
 90 30.24609375 120.24609375 0 157.5 0 c 0
 194.75390625 0 225 30.24609375 225 67.5 c 2
 225 477.5 l 2
 225 489.91796875 214.91796875 500 202.5 500 c 0
 190.08203125 500 180 489.91796875 180 477.5 c 2
 180 67.5 l 2
 180 55.08203125 169.91796875 45 157.5 45 c 0
 145.08203125 45 135 55.08203125 135 67.5 c 2
 135 477.5 l 2
 135 489.91796875 124.91796875 500 112.5 500 c 0
EndSplineSet
Ligature2: "'liga' Standard Ligatures in Latin lookup 0 subtable" f 
EndChar

StartChar: "f_+AOQA"
Encoding: 65576 -1 151
Width: 270
VWidth: 824
Flags: HW
LayerCount: 2
Fore
SplineSet
67.5 700 m 0
 30.24609375 700 0 669.75390625 0 632.5 c 2
 0 567.5 l 2
 0 555.08203125 -10.08203125 545 -22.5 545 c 0
 -34.91796875 545 -45 534.91796875 -45 522.5 c 0
 -45 510.08203125 -34.91796875 500 -22.5 500 c 0
 -10.08203125 500 0 489.91796875 0 477.5 c 2
 0 22.5 l 2
 0 10.08203125 10.08203125 0 22.5 0 c 0
 34.91796875 0 45 10.08203125 45 22.5 c 2
 45 477.5 l 2
 45 489.91796875 55.08203125 500 67.5 500 c 0
 79.91796875 500 90 510.08203125 90 522.5 c 0
 90 534.91796875 79.91796875 545 67.5 545 c 0
 55.08203125 545 45 555.08203125 45 567.5 c 2
 45 632.5 l 2
 45 644.91796875 55.08203125 655 67.5 655 c 0
 79.91796875 655 90 644.91796875 90 632.5 c 2
 90 567.5 l 2
 90 555.08203125 100.08203125 545 112.5 545 c 0
 124.91796875 545 135 555.08203125 135 567.5 c 2
 135 632.5 l 2
 135 669.75390625 104.75390625 700 67.5 700 c 0
202.5 590 m 0
 190.08203125 590 180 579.91796875 180 567.5 c 0
 180 555.08203125 190.08203125 545 202.5 545 c 0
 214.91796875 545 225 555.08203125 225 567.5 c 0
 225 579.91796875 214.91796875 590 202.5 590 c 0
157.5 500 m 0
 120.24609375 500 90 469.75390625 90 432.5 c 2
 90 387.5 l 2
 90 375.08203125 100.08203125 365 112.5 365 c 0
 124.91796875 365 135 375.08203125 135 387.5 c 2
 135 432.5 l 2
 135 444.91796875 145.08203125 455 157.5 455 c 0
 169.91796875 455 180 444.91796875 180 432.5 c 2
 180 295 l 2
 180 282.58203125 169.91796875 272.5 157.5 272.5 c 0
 120.24609375 272.5 90 242.25390625 90 205 c 2
 90 67.5 l 2
 90 30.24609375 120.24609375 0 157.5 0 c 0
 194.75390625 0 225 30.24609375 225 67.5 c 2
 225 432.5 l 2
 225 469.75390625 194.75390625 500 157.5 500 c 0
157.5 227.5 m 0
 169.91796875 227.5 180 217.41796875 180 205 c 2
 180 67.5 l 2
 180 55.08203125 169.91796875 45 157.5 45 c 0
 145.08203125 45 135 55.08203125 135 67.5 c 2
 135 205 l 2
 135 217.41796875 145.08203125 227.5 157.5 227.5 c 0
EndSplineSet
Ligature2: "'liga' Standard Ligatures in Latin lookup 0 subtable" f 
EndChar

StartChar: "d_f_+APYA"
Encoding: 65577 -1 152
Width: 450
VWidth: 824
Flags: HW
LayerCount: 2
Fore
SplineSet
112.5 700 m 0
 100.08203125 700 90 689.91796875 90 677.5 c 1
 90 522.5 l 2
 90 510.08203125 79.91796875 500 67.5 500 c 0
 30.24609375 500 0 469.75390625 0 432.5 c 2
 0 67.5 l 2
 0 30.24609375 30.24609375 0 67.5 0 c 0
 104.75390625 0 135 30.24609375 135 67.5 c 2
 135 477.5 l 2
 135 489.91796875 145.08203125 500 157.5 500 c 0
 169.91796875 500 180 489.91796875 180 477.5 c 2
 180 22.5 l 2
 180 10.08203125 190.08203125 0 202.5 0 c 0
 214.91796875 0 225 10.08203125 225 22.5 c 2
 225 477.5 l 2
 225 489.91796875 235.08203125 500 247.5 500 c 0
 259.91796875 500 270 510.08203125 270 522.5 c 0
 270 534.91796875 259.91796875 545 247.5 545 c 0
 235.08203125 545 225 555.08203125 225 567.5 c 2
 225 632.5 l 2
 225 644.91796875 235.08203125 655 247.5 655 c 0
 259.91796875 655 270 644.91796875 270 632.5 c 2
 270 565 l 2
 270 552.58203125 280.08203125 542.5 292.5 542.5 c 0
 304.91796875 542.5 315 552.58203125 315 565 c 2
 315 632.5 l 2
 315 669.75390625 284.75390625 700 247.5 700 c 0
 210.24609375 700 180 669.75390625 180 632.5 c 2
 180 567.5 l 2
 180 555.08203125 169.91796875 545 157.5 545 c 0
 145.08203125 545 135 555.08203125 135 567.5 c 2
 135 677.5 l 2
 135 689.91796875 124.91796875 700 112.5 700 c 0
382.5 587.5 m 0
 370.08203125 587.5 360 577.41796875 360 565 c 0
 360 552.58203125 370.08203125 542.5 382.5 542.5 c 0
 394.91796875 542.5 405 552.58203125 405 565 c 0
 405 577.41796875 394.91796875 587.5 382.5 587.5 c 0
337.5 500 m 0
 300.24609375 500 270 469.75390625 270 432.5 c 2
 270 67.5 l 2
 270 30.24609375 300.24609375 0 337.5 0 c 0
 374.75390625 0 405 30.24609375 405 67.5 c 2
 405 432.5 l 2
 405 469.75390625 374.75390625 500 337.5 500 c 0
67.5 455 m 0
 79.91796875 455 90 444.91796875 90 432.5 c 1
 90 67.5 l 2
 90 55.08203125 79.91796875 45 67.5 45 c 0
 55.08203125 45 45 55.08203125 45 67.5 c 2
 45 432.5 l 2
 45 444.91796875 55.08203125 455 67.5 455 c 0
337.5 455 m 0
 349.91796875 455 360 444.91796875 360 432.5 c 2
 360 67.5 l 2
 360 55.08203125 349.91796875 45 337.5 45 c 0
 325.08203125 45 315 55.08203125 315 67.5 c 2
 315 432.5 l 2
 315 444.91796875 325.08203125 455 337.5 455 c 0
EndSplineSet
Ligature2: "'liga' Standard Ligatures in Latin lookup 0 subtable" d f 
EndChar

StartChar: "d_f_+APwA"
Encoding: 65578 -1 153
Width: 450
VWidth: 824
Flags: HW
LayerCount: 2
Fore
SplineSet
112.5 700 m 0
 100.08203125 700 90 689.91796875 90 677.5 c 2
 90 522.5 l 2
 90 510.08203125 79.91796875 500 67.5 500 c 0
 30.24609375 500 0 469.75390625 0 432.5 c 2
 0 67.5 l 2
 0 30.24609375 30.24609375 0 67.5 0 c 0
 104.75390625 0 135 30.24609375 135 67.5 c 2
 135 477.5 l 2
 135 489.91796875 145.08203125 500 157.5 500 c 0
 169.91796875 500 180 489.91796875 180 477.5 c 2
 180 22.5 l 2
 180 10.08203125 190.08203125 0 202.5 0 c 0
 214.91796875 0 225 10.08203125 225 22.5 c 2
 225 477.5 l 2
 225 489.91796875 235.08203125 500 247.5 500 c 0
 259.91796875 500 270 510.08203125 270 522.5 c 0
 270 534.91796875 259.91796875 545 247.5 545 c 0
 235.08203125 545 225 555.08203125 225 567.5 c 2
 225 632.5 l 2
 225 644.91796875 235.08203125 655 247.5 655 c 0
 259.91796875 655 270 644.91796875 270 632.5 c 2
 270 567.5 l 2
 270 555.08203125 280.08203125 545 292.5 545 c 0
 304.91796875 545 315 555.08203125 315 567.5 c 2
 315 632.5 l 2
 315 669.75390625 284.75390625 700 247.5 700 c 0
 210.24609375 700 180 669.75390625 180 632.5 c 2
 180 567.5 l 2
 180 555.08203125 169.91796875 545 157.5 545 c 0
 145.08203125 545 135 555.08203125 135 567.5 c 2
 135 677.5 l 2
 135 689.91796875 124.91796875 700 112.5 700 c 0
382.5 590 m 0
 370.08203125 590 360 579.91796875 360 567.5 c 0
 360 555.08203125 370.08203125 545 382.5 545 c 0
 394.91796875 545 405 555.08203125 405 567.5 c 0
 405 579.91796875 394.91796875 590 382.5 590 c 0
292.5 500 m 0
 280.08203125 500 270 489.91796875 270 477.5 c 2
 270 67.5 l 2
 270 30.24609375 300.24609375 0 337.5 0 c 0
 374.75390625 0 405 30.24609375 405 67.5 c 2
 405 477.5 l 2
 405 489.91796875 394.91796875 500 382.5 500 c 0
 370.08203125 500 360 489.91796875 360 477.5 c 2
 360 67.5 l 2
 360 55.08203125 349.91796875 45 337.5 45 c 0
 325.08203125 45 315 55.08203125 315 67.5 c 2
 315 477.5 l 2
 315 489.91796875 304.91796875 500 292.5 500 c 0
67.5 455 m 0
 79.91796875 455 90 444.91796875 90 432.5 c 2
 90 67.5 l 2
 90 55.08203125 79.91796875 45 67.5 45 c 0
 55.08203125 45 45 55.08203125 45 67.5 c 2
 45 432.5 l 2
 45 444.91796875 55.08203125 455 67.5 455 c 0
EndSplineSet
Ligature2: "'liga' Standard Ligatures in Latin lookup 0 subtable" d f 
EndChar

StartChar: "d_f_+AOQA"
Encoding: 65579 -1 154
Width: 450
VWidth: 824
Flags: HW
LayerCount: 2
Fore
SplineSet
112.296875 700.236328125 m 0
 99.87890625 700.236328125 89.796875 690.154296875 89.796875 677.736328125 c 2
 89.796875 522.736328125 l 2
 89.796875 510.318359375 79.71484375 500.236328125 67.296875 500.236328125 c 0
 30.04296875 500.236328125 -0.203125 469.990234375 -0.203125 432.736328125 c 1
 -0.203125 67.736328125 l 2
 -0.203125 30.482421875 30.04296875 0.236328125 67.296875 0.236328125 c 0
 104.55078125 0.236328125 134.796875 30.482421875 134.796875 67.736328125 c 2
 134.796875 477.736328125 l 2
 134.796875 490.154296875 144.87890625 500.236328125 157.296875 500.236328125 c 0
 169.71484375 500.236328125 179.796875 490.154296875 179.796875 477.736328125 c 2
 179.796875 22.736328125 l 2
 179.796875 10.318359375 189.87890625 0.236328125 202.296875 0.236328125 c 0
 214.71484375 0.236328125 224.796875 10.318359375 224.796875 22.736328125 c 2
 224.796875 477.736328125 l 2
 224.796875 490.154296875 234.87890625 500.236328125 247.296875 500.236328125 c 0
 259.71484375 500.236328125 269.796875 510.318359375 269.796875 522.736328125 c 0
 269.796875 535.154296875 259.71484375 545.236328125 247.296875 545.236328125 c 0
 234.87890625 545.236328125 224.796875 555.318359375 224.796875 567.736328125 c 2
 224.796875 632.736328125 l 2
 224.796875 645.154296875 234.87890625 655.236328125 247.296875 655.236328125 c 0
 259.71484375 655.236328125 269.796875 645.154296875 269.796875 632.736328125 c 2
 269.796875 567.736328125 l 2
 269.796875 555.318359375 279.87890625 545.236328125 292.296875 545.236328125 c 0
 304.71484375 545.236328125 314.796875 555.318359375 314.796875 567.736328125 c 2
 314.796875 632.736328125 l 2
 314.796875 669.990234375 284.55078125 700.236328125 247.296875 700.236328125 c 0
 210.04296875 700.236328125 179.796875 669.990234375 179.796875 632.736328125 c 2
 179.796875 567.736328125 l 2
 179.796875 555.318359375 169.71484375 545.236328125 157.296875 545.236328125 c 0
 144.87890625 545.236328125 134.796875 555.318359375 134.796875 567.736328125 c 2
 134.796875 677.736328125 l 2
 134.796875 690.154296875 124.71484375 700.236328125 112.296875 700.236328125 c 0
382.296875 590.236328125 m 0
 369.87890625 590.236328125 359.796875 580.154296875 359.796875 567.736328125 c 0
 359.796875 555.318359375 369.87890625 545.236328125 382.296875 545.236328125 c 0
 394.71484375 545.236328125 404.796875 555.318359375 404.796875 567.736328125 c 0
 404.796875 580.154296875 394.71484375 590.236328125 382.296875 590.236328125 c 0
337.296875 500.236328125 m 0
 300.04296875 500.236328125 269.796875 469.990234375 269.796875 432.736328125 c 2
 269.796875 387.73828125 l 2
 269.796875 375.3203125 279.87890625 365.23828125 292.296875 365.23828125 c 0
 304.71484375 365.23828125 314.796875 375.3203125 314.796875 387.73828125 c 2
 314.796875 432.73828125 l 2
 314.797851562 445.155273438 324.879882812 455.236328125 337.296875 455.236328125 c 0
 349.71484375 455.236328125 359.796875 445.154296875 359.796875 432.736328125 c 2
 359.796875 295.236328125 l 2
 359.796875 282.818359375 349.71484375 272.736328125 337.296875 272.736328125 c 0
 300.04296875 272.736328125 269.796875 242.490234375 269.796875 205.236328125 c 2
 269.796875 67.736328125 l 2
 269.796875 30.482421875 300.04296875 0.236328125 337.296875 0.236328125 c 0
 374.55078125 0.236328125 404.796875 30.482421875 404.796875 67.736328125 c 2
 404.796875 432.736328125 l 2
 404.796875 469.990234375 374.55078125 500.236328125 337.296875 500.236328125 c 0
67.296875 455.236328125 m 0
 79.71484375 455.236328125 89.796875 445.154296875 89.796875 432.736328125 c 2
 89.796875 67.736328125 l 2
 89.796875 55.318359375 79.71484375 45.236328125 67.296875 45.236328125 c 0
 54.87890625 45.236328125 44.796875 55.318359375 44.796875 67.736328125 c 2
 44.796875 432.736328125 l 2
 44.796875 445.154296875 54.87890625 455.236328125 67.296875 455.236328125 c 0
337.296875 227.736328125 m 0
 349.71484375 227.736328125 359.796875 217.654296875 359.796875 205.236328125 c 2
 359.796875 67.736328125 l 2
 359.796875 55.318359375 349.71484375 45.236328125 337.296875 45.236328125 c 0
 324.87890625 45.236328125 314.796875 55.318359375 314.796875 67.736328125 c 2
 314.796875 205.236328125 l 2
 314.796875 217.654296875 324.87890625 227.736328125 337.296875 227.736328125 c 0
EndSplineSet
Ligature2: "'liga' Standard Ligatures in Latin lookup 0 subtable" d f 
EndChar

StartChar: "l_f_+APYA"
Encoding: 65580 -1 155
Width: 360
VWidth: 824
Flags: HW
LayerCount: 2
Fore
SplineSet
22.5 700 m 0
 10.08203125 700 0 689.91796875 0 677.5 c 2
 0 22.5 l 2
 0 10.08203125 10.08203125 0 22.5 0 c 0
 34.91796875 0 45 10.08203125 45 22.5 c 2
 45 477.5 l 2
 45 489.91796875 55.08203125 500 67.5 500 c 0
 79.91796875 500 90 489.91796875 90 477.5 c 2
 90 22.5 l 2
 90 10.08203125 100.08203125 0 112.5 0 c 0
 124.91796875 0 135 10.08203125 135 22.5 c 2
 135 477.5 l 2
 135 489.91796875 145.08203125 500 157.5 500 c 0
 169.91796875 500 180 510.08203125 180 522.5 c 0
 180 534.91796875 169.91796875 545 157.5 545 c 0
 145.08203125 545 135 555.08203125 135 567.5 c 2
 135 632.5 l 2
 135 644.91796875 145.08203125 655 157.5 655 c 0
 169.91796875 655 180 644.91796875 180 632.5 c 2
 180 565 l 2
 180 552.58203125 190.08203125 542.5 202.5 542.5 c 0
 214.91796875 542.5 225 552.58203125 225 565 c 2
 225 632.5 l 2
 225 669.75390625 194.75390625 700 157.5 700 c 0
 120.24609375 700 90 669.75390625 90 632.5 c 2
 90 567.5 l 2
 90 555.08203125 79.91796875 545 67.5 545 c 0
 55.08203125 545 45 555.08203125 45 567.5 c 2
 45 677.5 l 2
 45 689.91796875 34.91796875 700 22.5 700 c 0
292.5 587.5 m 0
 280.08203125 587.5 270 577.41796875 270 565 c 0
 270 552.58203125 280.08203125 542.5 292.5 542.5 c 0
 304.91796875 542.5 315 552.58203125 315 565 c 0
 315 577.41796875 304.91796875 587.5 292.5 587.5 c 0
247.5 500 m 0
 210.24609375 500 180 469.75390625 180 432.5 c 2
 180 67.5 l 2
 180 30.24609375 210.24609375 0 247.5 0 c 0
 284.75390625 0 315 30.24609375 315 67.5 c 2
 315 432.5 l 2
 315 469.75390625 284.75390625 500 247.5 500 c 0
247.5 455 m 0
 259.91796875 455 270 444.91796875 270 432.5 c 2
 270 67.5 l 2
 270 55.08203125 259.91796875 45 247.5 45 c 0
 235.08203125 45 225 55.08203125 225 67.5 c 2
 225 432.5 l 2
 225 444.91796875 235.08203125 455 247.5 455 c 0
EndSplineSet
Ligature2: "'liga' Standard Ligatures in Latin lookup 0 subtable" l f 
EndChar

StartChar: "l_f_+APwA"
Encoding: 65581 -1 156
Width: 360
VWidth: 824
Flags: HW
LayerCount: 2
Fore
SplineSet
22.5 700 m 0
 10.08203125 700 0 689.91796875 0 677.5 c 2
 0 22.5 l 2
 0 10.08203125 10.08203125 0 22.5 0 c 0
 34.91796875 0 45 10.08203125 45 22.5 c 2
 45 477.5 l 2
 45 489.91796875 55.08203125 500 67.5 500 c 0
 79.91796875 500 90 489.91796875 90 477.5 c 2
 90 22.5 l 2
 90 10.08203125 100.08203125 0 112.5 0 c 0
 124.91796875 0 135 10.08203125 135 22.5 c 2
 135 477.5 l 2
 135 489.91796875 145.08203125 500 157.5 500 c 0
 169.91796875 500 180 510.08203125 180 522.5 c 0
 180 534.91796875 169.91796875 545 157.5 545 c 0
 145.08203125 545 135 555.08203125 135 567.5 c 2
 135 632.5 l 2
 135 644.91796875 145.08203125 655 157.5 655 c 0
 169.91796875 655 180 644.91796875 180 632.5 c 2
 180 567.5 l 2
 180 555.08203125 190.08203125 545 202.5 545 c 0
 214.91796875 545 225 555.08203125 225 567.5 c 2
 225 632.5 l 2
 225 669.75390625 194.75390625 700 157.5 700 c 0
 120.24609375 700 90 669.75390625 90 632.5 c 2
 90 567.5 l 2
 90 555.08203125 79.91796875 545 67.5 545 c 0
 55.08203125 545 45 555.08203125 45 567.5 c 2
 45 677.5 l 2
 45 689.91796875 34.91796875 700 22.5 700 c 0
292.5 590 m 0
 280.08203125 590 270 579.91796875 270 567.5 c 0
 270 555.08203125 280.08203125 545 292.5 545 c 0
 304.91796875 545 315 555.08203125 315 567.5 c 0
 315 579.91796875 304.91796875 590 292.5 590 c 0
202.5 500 m 0
 190.08203125 500 180 489.91796875 180 477.5 c 2
 180 67.5 l 2
 180 30.24609375 210.24609375 0 247.5 0 c 0
 284.75390625 0 315 30.24609375 315 67.5 c 2
 315 477.5 l 2
 315 489.91796875 304.91796875 500 292.5 500 c 0
 280.08203125 500 270 489.91796875 270 477.5 c 2
 270 67.5 l 2
 270 55.08203125 259.91796875 45 247.5 45 c 0
 235.08203125 45 225 55.08203125 225 67.5 c 2
 225 477.5 l 2
 225 489.91796875 214.91796875 500 202.5 500 c 0
EndSplineSet
Ligature2: "'liga' Standard Ligatures in Latin lookup 0 subtable" l f 
EndChar

StartChar: "l_f_+AOQA"
Encoding: 65582 -1 157
Width: 360
VWidth: 824
Flags: HW
LayerCount: 2
Fore
SplineSet
22.5 700 m 0
 10.08203125 700 0 689.91796875 0 677.5 c 2
 0 22.5 l 2
 0 10.08203125 10.08203125 0 22.5 0 c 0
 34.91796875 0 45 10.08203125 45 22.5 c 2
 45 477.5 l 2
 45 489.91796875 55.08203125 500 67.5 500 c 0
 79.91796875 500 90 489.91796875 90 477.5 c 2
 90 22.5 l 2
 90 10.08203125 100.08203125 0 112.5 0 c 0
 124.91796875 0 135 10.08203125 135 22.5 c 2
 135 477.5 l 2
 135 489.91796875 145.08203125 500 157.5 500 c 0
 169.91796875 500 180 510.08203125 180 522.5 c 0
 180 534.91796875 169.91796875 545 157.5 545 c 0
 145.08203125 545 135 555.08203125 135 567.5 c 2
 135 632.5 l 2
 135 644.91796875 145.08203125 655 157.5 655 c 0
 169.91796875 655 180 644.91796875 180 632.5 c 2
 180 567.5 l 2
 180 555.08203125 190.08203125 545 202.5 545 c 0
 214.91796875 545 225 555.08203125 225 567.5 c 2
 225 632.5 l 2
 225 669.75390625 194.75390625 700 157.5 700 c 0
 120.24609375 700 90 669.75390625 90 632.5 c 2
 90 567.5 l 2
 90 555.08203125 79.91796875 545 67.5 545 c 0
 55.08203125 545 45 555.08203125 45 567.5 c 2
 45 677.5 l 2
 45 689.91796875 34.91796875 700 22.5 700 c 0
292.5 590 m 0
 280.08203125 590 270 579.91796875 270 567.5 c 0
 270 555.08203125 280.08203125 545 292.5 545 c 0
 304.91796875 545 315 555.08203125 315 567.5 c 0
 315 579.91796875 304.91796875 590 292.5 590 c 0
247.5 500 m 0
 210.24609375 500 180 469.75390625 180 432.5 c 2
 180 387.5 l 2
 180 375.08203125 190.08203125 365 202.5 365 c 0
 214.91796875 365 225 375.08203125 225 387.5 c 2
 225 432.5 l 2
 225 444.91796875 235.08203125 455 247.5 455 c 0
 259.91796875 455 270 444.91796875 270 432.5 c 2
 270 295 l 2
 270 282.58203125 259.91796875 272.5 247.5 272.5 c 0
 210.24609375 272.5 180 242.25390625 180 205 c 2
 180 67.5 l 2
 180 30.24609375 210.24609375 0 247.5 0 c 0
 284.75390625 0 315 30.24609375 315 67.5 c 2
 315 432.5 l 2
 315 469.75390625 284.75390625 500 247.5 500 c 0
247.5 227.5 m 0
 259.91796875 227.5 270 217.41796875 270 205 c 2
 270 67.5 l 2
 270 55.08203125 259.91796875 45 247.5 45 c 0
 235.08203125 45 225 55.08203125 225 67.5 c 2
 225 205 l 2
 225 217.41796875 235.08203125 227.5 247.5 227.5 c 0
EndSplineSet
Ligature2: "'liga' Standard Ligatures in Latin lookup 0 subtable" l f 
EndChar

StartChar: "t_f_+APYA"
Encoding: 65583 -1 158
Width: 360
VWidth: 824
Flags: HW
LayerCount: 2
Fore
SplineSet
22.5 700 m 0
 10.08203125 700 0 689.91796875 0 677.5 c 2
 0 567.5 l 2
 0 555.08203125 -10.08203125 545 -22.5 545 c 0
 -34.91796875 545 -45 534.91796875 -45 522.5 c 0
 -45 510.08203125 -34.91796875 500 -22.5 500 c 0
 -10.08203125 500 0 489.91796875 0 477.5 c 2
 0 22.5 l 2
 0 10.08203125 10.08203125 0 22.5 0 c 0
 34.91796875 0 45 10.08203125 45 22.5 c 2
 45 477.5 l 2
 45 489.91796875 55.08203125 500 67.5 500 c 0
 79.91796875 500 90 489.91796875 90 477.5 c 2
 90 22.5 l 2
 90 10.08203125 100.08203125 0 112.5 0 c 0
 124.91796875 0 135 10.08203125 135 22.5 c 2
 135 477.5 l 2
 135 489.91796875 145.08203125 500 157.5 500 c 0
 169.91796875 500 180 510.08203125 180 522.5 c 0
 180 534.91796875 169.91796875 545 157.5 545 c 0
 145.08203125 545 135 555.08203125 135 567.5 c 2
 135 632.5 l 2
 135 644.91796875 145.08203125 655 157.5 655 c 0
 169.91796875 655 180 644.91796875 180 632.5 c 2
 180 565 l 2
 180 552.58203125 190.08203125 542.5 202.5 542.5 c 0
 214.91796875 542.5 225 552.58203125 225 565 c 2
 225 632.5 l 2
 225 669.75390625 194.75390625 700 157.5 700 c 0
 120.24609375 700 90 669.75390625 90 632.5 c 2
 90 567.5 l 2
 90 555.08203125 79.91796875 545 67.5 545 c 0
 55.08203125 545 45 555.08203125 45 567.5 c 2
 45 677.5 l 2
 45 689.91796875 34.91796875 700 22.5 700 c 0
292.5 587.5 m 0
 280.08203125 587.5 270 577.41796875 270 565 c 0
 270 552.58203125 280.08203125 542.5 292.5 542.5 c 0
 304.91796875 542.5 315 552.58203125 315 565 c 0
 315 577.41796875 304.91796875 587.5 292.5 587.5 c 0
247.5 500 m 0
 210.24609375 500 180 469.75390625 180 432.5 c 2
 180 67.5 l 2
 180 30.24609375 210.24609375 0 247.5 0 c 0
 284.75390625 0 315 30.24609375 315 67.5 c 2
 315 432.5 l 2
 315 469.75390625 284.75390625 500 247.5 500 c 0
247.5 455 m 0
 259.91796875 455 270 444.91796875 270 432.5 c 2
 270 67.5 l 2
 270 55.08203125 259.91796875 45 247.5 45 c 0
 235.08203125 45 225 55.08203125 225 67.5 c 2
 225 432.5 l 2
 225 444.91796875 235.08203125 455 247.5 455 c 0
EndSplineSet
Ligature2: "'liga' Standard Ligatures in Latin lookup 0 subtable" t f 
EndChar

StartChar: "t_f_+APwA"
Encoding: 65584 -1 159
Width: 360
VWidth: 824
Flags: HW
LayerCount: 2
Fore
SplineSet
22.5 700 m 0
 10.08203125 700 0 689.91796875 0 677.5 c 2
 0 567.5 l 2
 0 555.08203125 -10.08203125 545 -22.5 545 c 0
 -34.91796875 545 -45 534.91796875 -45 522.5 c 0
 -45 510.08203125 -34.91796875 500 -22.5 500 c 0
 -10.08203125 500 0 489.91796875 0 477.5 c 2
 0 22.5 l 2
 0 10.08203125 10.08203125 0 22.5 0 c 0
 34.91796875 0 45 10.08203125 45 22.5 c 2
 45 477.5 l 2
 45 489.91796875 55.08203125 500 67.5 500 c 0
 79.91796875 500 90 489.91796875 90 477.5 c 2
 90 22.5 l 2
 90 10.08203125 100.08203125 0 112.5 0 c 0
 124.91796875 0 135 10.08203125 135 22.5 c 2
 135 477.5 l 2
 135 489.91796875 145.08203125 500 157.5 500 c 0
 169.91796875 500 180 510.08203125 180 522.5 c 0
 180 534.91796875 169.91796875 545 157.5 545 c 0
 145.08203125 545 135 555.08203125 135 567.5 c 2
 135 632.5 l 2
 135 644.91796875 145.08203125 655 157.5 655 c 0
 169.91796875 655 180 644.91796875 180 632.5 c 2
 180 567.5 l 2
 180 555.08203125 190.08203125 545 202.5 545 c 0
 214.91796875 545 225 555.08203125 225 567.5 c 2
 225 632.5 l 2
 225 669.75390625 194.75390625 700 157.5 700 c 0
 120.24609375 700 90 669.75390625 90 632.5 c 2
 90 567.5 l 2
 90 555.08203125 79.91796875 545 67.5 545 c 0
 55.08203125 545 45 555.08203125 45 567.5 c 2
 45 677.5 l 2
 45 689.91796875 34.91796875 700 22.5 700 c 0
292.5 590 m 0
 280.08203125 590 270 579.91796875 270 567.5 c 0
 270 555.08203125 280.08203125 545 292.5 545 c 0
 304.91796875 545 315 555.08203125 315 567.5 c 0
 315 579.91796875 304.91796875 590 292.5 590 c 0
202.5 500 m 0
 190.08203125 500 180 489.91796875 180 477.5 c 2
 180 67.5 l 2
 180 30.24609375 210.24609375 0 247.5 0 c 0
 284.75390625 0 315 30.24609375 315 67.5 c 2
 315 477.5 l 2
 315 489.91796875 304.91796875 500 292.5 500 c 0
 280.08203125 500 270 489.91796875 270 477.5 c 2
 270 67.5 l 2
 270 55.08203125 259.91796875 45 247.5 45 c 0
 235.08203125 45 225 55.08203125 225 67.5 c 2
 225 477.5 l 2
 225 489.91796875 214.91796875 500 202.5 500 c 0
EndSplineSet
Ligature2: "'liga' Standard Ligatures in Latin lookup 0 subtable" t f 
EndChar

StartChar: "t_f_+AOQA"
Encoding: 65585 -1 160
Width: 360
VWidth: 824
Flags: HW
LayerCount: 2
Fore
SplineSet
22.5 700 m 0
 10.08203125 700 0 689.91796875 0 677.5 c 2
 0 567.5 l 2
 0 555.08203125 -10.08203125 545 -22.5 545 c 0
 -34.91796875 545 -45 534.91796875 -45 522.5 c 0
 -45 510.08203125 -34.91796875 500 -22.5 500 c 0
 -10.08203125 500 0 489.91796875 0 477.5 c 2
 0 22.5 l 2
 0 10.08203125 10.08203125 0 22.5 0 c 0
 34.91796875 0 45 10.08203125 45 22.5 c 2
 45 477.5 l 2
 45 489.91796875 55.08203125 500 67.5 500 c 0
 79.91796875 500 90 489.91796875 90 477.5 c 2
 90 22.5 l 2
 90 10.08203125 100.08203125 0 112.5 0 c 0
 124.91796875 0 135 10.08203125 135 22.5 c 2
 135 477.5 l 2
 135 489.91796875 145.08203125 500 157.5 500 c 0
 169.91796875 500 180 510.08203125 180 522.5 c 0
 180 534.91796875 169.91796875 545 157.5 545 c 0
 145.08203125 545 135 555.08203125 135 567.5 c 2
 135 632.5 l 2
 135 644.91796875 145.08203125 655 157.5 655 c 0
 169.91796875 655 180 644.91796875 180 632.5 c 2
 180 567.5 l 2
 180 555.08203125 190.08203125 545 202.5 545 c 0
 214.91796875 545 225 555.08203125 225 567.5 c 2
 225 632.5 l 2
 225 669.75390625 194.75390625 700 157.5 700 c 0
 120.24609375 700 90 669.75390625 90 632.5 c 2
 90 567.5 l 2
 90 555.08203125 79.91796875 545 67.5 545 c 0
 55.08203125 545 45 555.08203125 45 567.5 c 2
 45 677.5 l 2
 45 689.91796875 34.91796875 700 22.5 700 c 0
292.5 590 m 0
 280.08203125 590 270 579.91796875 270 567.5 c 0
 270 555.08203125 280.08203125 545 292.5 545 c 0
 304.91796875 545 315 555.08203125 315 567.5 c 0
 315 579.91796875 304.91796875 590 292.5 590 c 0
247.5 500 m 0
 210.24609375 500 180 469.75390625 180 432.5 c 2
 180 387.5 l 2
 180 375.08203125 190.08203125 365 202.5 365 c 0
 214.91796875 365 225 375.08203125 225 387.5 c 2
 225 432.5 l 2
 225 444.91796875 235.08203125 455 247.5 455 c 0
 259.91796875 455 270 444.91796875 270 432.5 c 2
 270 295 l 2
 270 282.58203125 259.91796875 272.5 247.5 272.5 c 0
 210.24609375 272.5 180 242.25390625 180 205 c 2
 180 67.5 l 2
 180 30.24609375 210.24609375 0 247.5 0 c 0
 284.75390625 0 315 30.24609375 315 67.5 c 2
 315 432.5 l 2
 315 469.75390625 284.75390625 500 247.5 500 c 0
247.5 227.5 m 0
 259.91796875 227.5 270 217.41796875 270 205 c 2
 270 67.5 l 2
 270 55.08203125 259.91796875 45 247.5 45 c 0
 235.08203125 45 225 55.08203125 225 67.5 c 2
 225 205 l 2
 225 217.41796875 235.08203125 227.5 247.5 227.5 c 0
EndSplineSet
Ligature2: "'liga' Standard Ligatures in Latin lookup 0 subtable" t f 
EndChar

StartChar: "+AN8A"
Encoding: 223 223 161
Width: 180
VWidth: 824
Flags: HW
LayerCount: 2
Fore
SplineSet
67.5 700 m 0
 30.24609375 700 0 669.75390625 0 632.5 c 2
 0 -177.5 l 2
 0 -189.91796875 10.08203125 -200 22.5 -200 c 0
 34.91796875 -200 45 -189.91796875 45 -177.5 c 2
 45 -22.5 l 2
 45 -10.08203125 55.08203125 0 67.5 0 c 0
 104.75390625 0 135 30.24609375 135 67.5 c 2
 135 632.5 l 2
 135 669.75390625 104.75390625 700 67.5 700 c 0
67.5 655 m 0
 79.91796875 655 90 644.91796875 90 632.5 c 2
 90 500 l 2
 90 487.58203125 79.91796875 477.5 67.5 477.5 c 0
 55.08203125 477.5 45 487.58203125 45 500 c 2
 45 632.5 l 2
 45 644.91796875 55.08203125 655 67.5 655 c 0
67.5 432.5 m 0
 79.91796875 432.5 90 422.41796875 90 410 c 2
 90 67.5 l 2
 90 55.08203125 79.91796875 45 67.5 45 c 0
 55.08203125 45 45 55.08203125 45 67.5 c 2
 45 410 l 2
 45 422.41796875 55.08203125 432.5 67.5 432.5 c 0
EndSplineSet
EndChar

StartChar: "t_+AN8A"
Encoding: 65586 -1 162
Width: 270
VWidth: 824
Flags: HW
LayerCount: 2
Fore
SplineSet
-564.73828125 760.796875 m 0
 -552.3203125 760.796875 -542.23828125 750.71484375 -542.23828125 738.296875 c 2
 -542.23828125 628.296875 l 2
 -542.23828125 615.87890625 -532.15625 605.796875 -519.73828125 605.796875 c 0
 -507.3203125 605.796875 -497.23828125 595.71484375 -497.23828125 583.296875 c 0
 -497.23828125 570.87890625 -507.3203125 560.796875 -519.73828125 560.796875 c 0
 -532.15625 560.796875 -542.23828125 550.71484375 -542.23828125 538.296875 c 2
 -542.23828125 83.296875 l 2
 -542.23828125 70.87890625 -552.3203125 60.796875 -564.73828125 60.796875 c 0
 -577.15625 60.796875 -587.23828125 70.87890625 -587.23828125 83.296875 c 2
 -587.23828125 538.296875 l 2
 -587.23828125 550.71484375 -597.3203125 560.796875 -609.73828125 560.796875 c 0
 -622.15625 560.796875 -632.23828125 550.71484375 -632.23828125 538.296875 c 2
 -632.23828125 -116.703125 l 2
 -632.23828125 -129.12109375 -642.3203125 -139.203125 -654.73828125 -139.203125 c 0
 -667.15625 -139.203125 -677.23828125 -129.12109375 -677.23828125 -116.703125 c 2
 -677.23828125 38.296875 l 2
 -677.23828125 50.71484375 -687.3203125 60.796875 -699.73828125 60.796875 c 0
 -736.9921875 60.796875 -767.23828125 91.04296875 -767.23828125 128.296875 c 2
 -767.23828125 693.296875 l 2
 -767.23828125 730.55078125 -736.9921875 760.796875 -699.73828125 760.796875 c 0
 -662.484375 760.796875 -632.23828125 730.55078125 -632.23828125 693.296875 c 0
 -632.23828125 628.296875 l 2
 -632.23828125 615.87890625 -622.15625 605.796875 -609.73828125 605.796875 c 0
 -597.3203125 605.796875 -587.23828125 615.87890625 -587.23828125 628.296875 c 2
 -587.23828125 738.296875 l 2
 -587.23828125 750.71484375 -577.15625 760.796875 -564.73828125 760.796875 c 0
-699.73828125 715.796875 m 0
 -712.15625 715.796875 -722.23828125 705.71484375 -722.23828125 693.296875 c 2
 -722.23828125 560.796875 l 2
 -722.23828125 548.37890625 -712.15625 538.296875 -699.73828125 538.296875 c 0
 -687.3203125 538.296875 -677.23828125 548.37890625 -677.23828125 560.796875 c 2
 -677.23828125 693.296875 l 2
 -677.23828125 705.71484375 -687.3203125 715.796875 -699.73828125 715.796875 c 0
-699.73828125 493.296875 m 0
 -712.15625 493.296875 -722.23828125 483.21484375 -722.23828125 470.796875 c 2
 -722.23828125 128.296875 l 2
 -722.23828125 115.87890625 -712.15625 105.796875 -699.73828125 105.796875 c 0
 -687.3203125 105.796875 -677.23828125 115.87890625 -677.23828125 128.296875 c 2
 -677.23828125 470.796875 l 2
 -677.23828125 483.21484375 -687.3203125 493.296875 -699.73828125 493.296875 c 0
EndSplineSet
Ligature2: "'liga' Standard Ligatures in Latin lookup 0 subtable" t 
EndChar

StartChar: "f_+AN8A"
Encoding: 65587 -1 163
Width: 270
VWidth: 824
Flags: HW
LayerCount: 2
Fore
SplineSet
67.5 700 m 2
 30.24609375 700 0 669.75390625 0 632.5 c 1
 0 567.5 l 2
 0 555.08203125 -10.08203125 545 -22.5 545 c 0
 -34.91796875 545 -45 534.91796875 -45 522.5 c 0
 -45 510.08203125 -34.91796875 500 -22.5 500 c 0
 -10.08203125 500 0 489.91796875 0 477.5 c 2
 0 22.5 l 2
 0 10.08203125 10.08203125 0 22.5 0 c 0
 34.91796875 0 45 10.08203125 45 22.5 c 2
 45 477.5 l 2
 45 489.91796875 55.08203125 500 67.5 500 c 0
 79.91796875 500 90 489.91796875 90 477.5 c 2
 90 -177.60546875 l 1
 90.0078125 -177.60546875 l 1
 90.06640625 -189.971679688 100.12109375 -199.99609375 112.5 -200 c 0
 124.87890625 -199.99609375 134.934570312 -189.971679688 134.9921875 -177.60546875 c 1
 134.9921875 -177.607421875 135 -177.60546875 135 -177.60546875 c 1
 135 -22.5 l 2
 135 -10.08203125 145.08203125 0 157.5 0 c 0
 194.754882812 0 225 30.24609375 225 67.5 c 2
 225 632.5 l 2
 225 669.75390625 194.754882812 700 157.5 700 c 1
 67.5 700 l 2
67.5 655 m 0
 79.91796875 655 90 644.91796875 90 632.5 c 2
 90 567.5 l 2
 90 555.08203125 79.91796875 545 67.5 545 c 0
 55.08203125 545 45 555.08203125 45 567.5 c 2
 45 632.5 l 2
 45 644.91796875 55.08203125 655 67.5 655 c 0
157.5 655 m 0
 169.91796875 655 180 644.91796875 180 632.5 c 2
 180 500 l 2
 180 487.58203125 169.91796875 477.5 157.5 477.5 c 0
 145.08203125 477.5 135 487.58203125 135 500 c 2
 135 632.5 l 2
 135 644.91796875 145.08203125 655 157.5 655 c 0
157.5 432.5 m 0
 169.91796875 432.5 180 422.41796875 180 410 c 2
 180 67.5 l 2
 180 55.08203125 169.91796875 45 157.5 45 c 0
 145.08203125 45 135 55.08203125 135 67.5 c 2
 135 410 l 2
 135 422.41796875 145.08203125 432.5 157.5 432.5 c 0
EndSplineSet
Ligature2: "'liga' Standard Ligatures in Latin lookup 0 subtable" f 
EndChar

StartChar: "+AN8A_t"
Encoding: 65588 -1 164
Width: 270
VWidth: 824
Flags: HW
LayerCount: 2
Fore
SplineSet
67.5 700 m 0
 30.24609375 700 0 669.75390625 0 632.5 c 1
 0 -177.5 l 2
 0 -189.91796875 10.08203125 -200 22.5 -200 c 0
 34.91796875 -200 45 -189.91796875 45 -177.5 c 2
 45 -22.5 l 2
 45 -10.08203125 55.08203125 -0 67.5 -0 c 0
 104.75390625 -0 135 30.24609375 135 67.5 c 1
 135 477.5 l 2
 135 489.91796875 145.08203125 500 157.5 500 c 0
 169.91796875 500 180 489.91796875 180 477.5 c 2
 180 22.5 l 2
 180 10.08203125 190.08203125 -0 202.5 -0 c 0
 214.91796875 -0 225 10.08203125 225 22.5 c 2
 225 477.5 l 2
 225 489.91796875 235.08203125 500 247.5 500 c 0
 259.91796875 500 270 510.08203125 270 522.5 c 0
 270 534.91796875 259.91796875 545 247.5 545 c 0
 235.08203125 545 225 555.08203125 225 567.5 c 2
 225 677.5 l 2
 225 689.91796875 214.91796875 700 202.5 700 c 0
 190.08203125 700 180 689.91796875 180 677.5 c 2
 180 567.5 l 2
 180 555.08203125 169.91796875 545 157.5 545 c 0
 145.08203125 545 135 555.08203125 135 567.5 c 2
 135 632.5 l 2
 135 669.75390625 104.75390625 700 67.5 700 c 0
67.5 655 m 0
 79.91796875 655 90 644.91796875 90 632.5 c 2
 90 500 l 2
 90 487.58203125 79.91796875 477.5 67.5 477.5 c 0
 55.08203125 477.5 45 487.58203125 45 500 c 1
 45 632.5 l 2
 45 644.91796875 55.08203125 655 67.5 655 c 0
67.5 432.5 m 0
 79.91796875 432.5 90 422.41796875 90 410 c 2
 90 67.5 l 2
 90 55.08203125 79.91796875 45 67.5 45 c 0
 55.08203125 45 45 55.08203125 45 67.5 c 1
 45 410 l 2
 45 422.41796875 55.08203125 432.5 67.5 432.5 c 0
EndSplineSet
Ligature2: "'liga' Standard Ligatures in Latin lookup 0 subtable"  t
EndChar

StartChar: "+AN8A_f"
Encoding: 65589 -1 165
Width: 270
VWidth: 824
Flags: HW
LayerCount: 2
Fore
SplineSet
67.5 700 m 0
 30.24609375 700 0 669.75390625 0 632.5 c 2
 0 -177.5 l 2
 0 -189.91796875 10.08203125 -200 22.5 -200 c 0
 34.91796875 -200 45 -189.91796875 45 -177.5 c 2
 45 -22.5 l 2
 45 -10.08203125 55.08203125 0 67.5 0 c 0
 104.75390625 0 135 30.24609375 135 67.5 c 2
 135 477.5 l 2
 135 489.91796875 145.08203125 500 157.5 500 c 0
 169.91796875 500 180 489.91796875 180 477.5 c 2
 180 22.5 l 2
 180 10.08203125 190.08203125 0 202.5 0 c 0
 214.91796875 0 225 10.08203125 225 22.5 c 2
 225 477.5 l 2
 225 489.91796875 235.08203125 500 247.5 500 c 0
 259.91796875 500 270 510.08203125 270 522.5 c 0
 270 534.91796875 259.91796875 545 247.5 545 c 0
 235.08203125 545 225 555.08203125 225 567.5 c 2
 225 632.5 l 2
 225 644.91796875 235.08203125 655 247.5 655 c 0
 259.91796875 655 270 644.91796875 270 632.5 c 2
 270 587.5 l 2
 270 575.08203125 280.08203125 565 292.5 565 c 0
 304.91796875 565 315 575.08203125 315 587.5 c 2
 315 632.5 l 2
 315 669.75390625 284.75390625 700 247.5 700 c 0
 210.24609375 700 180 669.75390625 180 632.5 c 2
 180 567.5 l 2
 180 555.08203125 169.91796875 545 157.5 545 c 0
 145.08203125 545 135 555.08203125 135 567.5 c 2
 135 632.5 l 2
 135 669.75390625 104.75390625 700 67.5 700 c 0
67.5 655 m 0
 79.91796875 655 90 644.91796875 90 632.5 c 2
 90 500 l 2
 90 487.58203125 79.91796875 477.5 67.5 477.5 c 0
 55.08203125 477.5 45 487.58203125 45 500 c 2
 45 632.5 l 2
 45 644.91796875 55.08203125 655 67.5 655 c 0
67.5 432.5 m 0
 79.91796875 432.5 90 422.41796875 90 410 c 2
 90 67.5 l 2
 90 55.08203125 79.91796875 45 67.5 45 c 0
 55.08203125 45 45 55.08203125 45 67.5 c 2
 45 410 l 2
 45 422.41796875 55.08203125 432.5 67.5 432.5 c 0
EndSplineSet
Ligature2: "'liga' Standard Ligatures in Latin lookup 0 subtable"  f
EndChar

StartChar: t_t
Encoding: 65590 -1 166
Width: 180
VWidth: 824
Flags: HW
LayerCount: 2
Fore
SplineSet
22.5 700 m 0
 10.08203125 700 0 689.91796875 0 677.5 c 2
 0 567.5 l 2
 0 555.08203125 -10.08203125 545 -22.5 545 c 0
 -34.91796875 545 -45 534.91796875 -45 522.5 c 0
 -45 510.08203125 -34.91796875 500 -22.5 500 c 0
 -10.08203125 500 0 489.91796875 0 477.5 c 2
 0 22.5 l 2
 0 10.08203125 10.08203125 0 22.5 0 c 0
 34.91796875 0 45 10.08203125 45 22.5 c 2
 45 477.5 l 2
 45 489.91796875 55.08203125 500 67.5 500 c 0
 79.91796875 500 90 489.91796875 90 477.5 c 2
 90 22.5 l 2
 90 10.08203125 100.08203125 0 112.5 0 c 0
 124.91796875 0 135 10.08203125 135 22.5 c 2
 135 477.5 l 2
 135 489.91796875 145.08203125 500 157.5 500 c 0
 169.91796875 500 180 510.08203125 180 522.5 c 0
 180 534.91796875 169.91796875 545 157.5 545 c 0
 145.08203125 545 135 555.08203125 135 567.5 c 2
 135 677.5 l 2
 135 689.91796875 124.91796875 700 112.5 700 c 0
 100.08203125 700 90 689.91796875 90 677.5 c 2
 90 567.5 l 2
 90 555.08203125 79.91796875 545 67.5 545 c 0
 55.08203125 545 45 555.08203125 45 567.5 c 2
 45 677.5 l 2
 45 689.91796875 34.91796875 700 22.5 700 c 0
EndSplineSet
Ligature2: "'liga' Standard Ligatures in Latin lookup 0 subtable" t t
EndChar

StartChar: "d_t_+AN8A"
Encoding: 65591 -1 167
Width: 450
VWidth: 824
Flags: HW
LayerCount: 2
Fore
SplineSet
112.5 700 m 0
 100.08203125 700 90 689.91796875 90 677.5 c 2
 90 522.5 l 2
 90 510.08203125 79.91796875 500 67.5 500 c 0
 30.24609375 500 0 469.75390625 0 432.5 c 2
 0 67.5 l 2
 0 30.24609375 30.24609375 0 67.5 0 c 0
 104.75390625 0 135 30.24609375 135 67.5 c 2
 135 477.5 l 2
 135 489.91796875 145.08203125 500 157.5 500 c 0
 169.91796875 500 180 489.91796875 180 477.5 c 2
 180 22.5 l 2
 180 10.08203125 190.08203125 0 202.5 0 c 0
 214.91796875 0 225 10.08203125 225 22.5 c 2
 225 477.5 l 2
 225 489.91796875 235.08203125 500 247.5 500 c 0
 259.91796875 500 270 489.91796875 270 477.5 c 2
 270 -177.5 l 2
 270 -189.91796875 280.08203125 -200 292.5 -200 c 0
 304.91796875 -200 315 -189.91796875 315 -177.5 c 2
 315 -22.5 l 2
 315 -10.08203125 325.08203125 0 337.5 0 c 0
 374.75390625 0 405 30.24609375 405 67.5 c 2
 405 632.5 l 2
 405 669.75390625 374.75390625 700 337.5 700 c 0
 300.24609375 700 270 669.75390625 270 632.5 c 2
 270 567.5 l 2
 270 555.08203125 259.91796875 545 247.5 545 c 0
 235.08203125 545 225 555.08203125 225 567.5 c 2
 225 677.5 l 2
 225 689.91796875 214.91796875 700 202.5 700 c 0
 190.08203125 700 180 689.91796875 180 677.5 c 2
 180 567.5 l 2
 180 555.08203125 169.91796875 545 157.5 545 c 0
 145.08203125 545 135 555.08203125 135 567.5 c 2
 135 677.5 l 2
 135 689.91796875 124.91796875 700 112.5 700 c 0
337.5 655 m 0
 349.91796875 655 360 644.91796875 360 632.5 c 2
 360 500 l 2
 360 487.58203125 349.91796875 477.5 337.5 477.5 c 0
 325.08203125 477.5 315 487.58203125 315 500 c 2
 315 632.5 l 2
 315 644.91796875 325.08203125 655 337.5 655 c 0
67.5 455 m 0
 79.91796875 455 90 444.91796875 90 432.5 c 2
 90 67.5 l 2
 90 55.08203125 79.91796875 45 67.5 45 c 0
 55.08203125 45 45 55.08203125 45 67.5 c 2
 45 432.5 l 2
 45 444.91796875 55.08203125 455 67.5 455 c 0
337.5 432.5 m 0
 349.91796875 432.5 360 422.41796875 360 410 c 2
 360 67.5 l 2
 360 55.08203125 349.91796875 45 337.5 45 c 0
 325.08203125 45 315 55.08203125 315 67.5 c 2
 315 410 l 2
 315 422.41796875 325.08203125 432.5 337.5 432.5 c 0
EndSplineSet
Ligature2: "'liga' Standard Ligatures in Latin lookup 0 subtable" d t 
EndChar

StartChar: "d_f_+AN8A"
Encoding: 65592 -1 168
Width: 450
VWidth: 824
Flags: HW
LayerCount: 2
Fore
SplineSet
112.5 700 m 2
 100.08203125 700 90 689.91796875 90 677.5 c 2
 90 522.5 l 2
 90 510.08203125 79.91796875 500 67.5 500 c 0
 30.24609375 500 0 469.75390625 0 432.5 c 2
 0 67.5 l 2
 0 30.24609375 30.24609375 0 67.5 0 c 0
 104.75390625 0 135 30.24609375 135 67.5 c 2
 135 477.5 l 2
 135 489.91796875 145.08203125 500 157.5 500 c 0
 169.91796875 500 180 489.91796875 180 477.5 c 2
 180 22.5 l 2
 180 10.08203125 190.08203125 0 202.5 0 c 0
 214.91796875 0 225 10.08203125 225 22.5 c 2
 225 477.5 l 2
 225 489.91796875 235.08203125 500 247.5 500 c 0
 259.91796875 500 270 489.91796875 270 477.5 c 2
 270 -177.60546875 l 1
 270.0078125 -177.60546875 l 1
 270.06640625 -189.971679688 280.12109375 -199.99609375 292.5 -200 c 0
 304.87890625 -199.99609375 314.934570312 -189.971679688 314.9921875 -177.60546875 c 1
 314.9921875 -177.607421875 315 -177.60546875 315 -177.60546875 c 1
 315 -22.5 l 2
 315 -10.08203125 325.08203125 0 337.5 0 c 0
 374.754882812 0 405 30.24609375 405 67.5 c 2
 405 632.5 l 2
 405 669.75390625 374.754882812 700 337.5 700 c 2
 247.5 700 l 2
 210.24609375 700 180 669.75390625 180 632.5 c 2
 180 567.5 l 2
 180 555.08203125 169.918945312 545 157.5 545 c 0
 145.08203125 545 135 555.08203125 135 567.5 c 2
 135 677.5 l 2
 135 689.91796875 124.918945312 700 112.5 700 c 2
 112.5 700 l 2
247.5 655 m 0
 259.91796875 655 270 644.91796875 270 632.5 c 2
 270 567.5 l 2
 270 555.08203125 259.91796875 545 247.5 545 c 0
 235.08203125 545 225 555.08203125 225 567.5 c 2
 225 632.5 l 2
 225 644.91796875 235.08203125 655 247.5 655 c 0
337.5 655 m 0
 349.91796875 655 360 644.91796875 360 632.5 c 2
 360 500 l 2
 360 487.58203125 349.91796875 477.5 337.5 477.5 c 0
 325.08203125 477.5 315 487.58203125 315 500 c 2
 315 632.5 l 2
 315 644.91796875 325.08203125 655 337.5 655 c 0
67.5 455 m 0
 79.91796875 455 90 444.91796875 90 432.5 c 2
 90 67.5 l 2
 90 55.08203125 79.91796875 45 67.5 45 c 0
 55.08203125 45 45 55.08203125 45 67.5 c 2
 45 432.5 l 2
 45 444.91796875 55.08203125 455 67.5 455 c 0
337.5 432.5 m 0
 349.91796875 432.5 360 422.41796875 360 410 c 2
 360 67.5 l 2
 360 55.08203125 349.91796875 45 337.5 45 c 0
 325.08203125 45 315 55.08203125 315 67.5 c 2
 315 410 l 2
 315 422.41796875 325.08203125 432.5 337.5 432.5 c 0
EndSplineSet
Ligature2: "'liga' Standard Ligatures in Latin lookup 0 subtable" d f 
EndChar

StartChar: d_t_t
Encoding: 65593 -1 169
Width: 360
VWidth: 824
Flags: HW
LayerCount: 2
Fore
SplineSet
112.5 700 m 0
 100.08203125 700 90 689.91796875 90 677.5 c 2
 90 522.5 l 2
 90 510.08203125 79.91796875 500 67.5 500 c 0
 30.24609375 500 0 469.75390625 0 432.5 c 2
 0 67.5 l 2
 0 30.24609375 30.24609375 0 67.5 0 c 0
 104.75390625 0 135 30.24609375 135 67.5 c 2
 135 477.5 l 2
 135 489.91796875 145.08203125 500 157.5 500 c 0
 169.91796875 500 180 489.91796875 180 477.5 c 2
 180 22.5 l 2
 180 10.08203125 190.08203125 0 202.5 0 c 0
 214.91796875 0 225 10.08203125 225 22.5 c 2
 225 477.5 l 2
 225 489.91796875 235.08203125 500 247.5 500 c 0
 259.91796875 500 270 489.91796875 270 477.5 c 2
 270 22.5 l 2
 270 10.08203125 280.08203125 0 292.5 0 c 0
 304.91796875 0 315 10.08203125 315 22.5 c 2
 315 477.5 l 2
 315 489.91796875 325.08203125 500 337.5 500 c 0
 349.91796875 500 360 510.08203125 360 522.5 c 0
 360 534.91796875 349.91796875 545 337.5 545 c 0
 325.08203125 545 315 555.08203125 315 567.5 c 2
 315 677.5 l 2
 315 689.91796875 304.91796875 700 292.5 700 c 0
 280.08203125 700 270 689.91796875 270 677.5 c 2
 270 567.5 l 2
 270 555.08203125 259.91796875 545 247.5 545 c 0
 235.08203125 545 225 555.08203125 225 567.5 c 2
 225 677.5 l 2
 225 689.91796875 214.91796875 700 202.5 700 c 0
 190.08203125 700 180 689.91796875 180 677.5 c 2
 180 567.5 l 2
 180 555.08203125 169.91796875 545 157.5 545 c 0
 145.08203125 545 135 555.08203125 135 567.5 c 2
 135 677.5 l 2
 135 689.91796875 124.91796875 700 112.5 700 c 0
67.5 455 m 0
 79.91796875 455 90 444.91796875 90 432.5 c 2
 90 67.5 l 2
 90 55.08203125 79.91796875 45 67.5 45 c 0
 55.08203125 45 45 55.08203125 45 67.5 c 2
 45 432.5 l 2
 45 444.91796875 55.08203125 455 67.5 455 c 0
EndSplineSet
Ligature2: "'liga' Standard Ligatures in Latin lookup 0 subtable" d t t
EndChar

